<svg width="251" height="44" viewBox="0 0 251 44" fill="none" xmlns="http://www.w3.org/2000/svg">
<path d="M4.068 4.212H6.48V5.868C6.48 7.794 7.506 9.666 10.08 10.458L8.838 12.312C7.146 11.754 5.976 10.674 5.292 9.306C4.608 10.89 3.366 12.15 1.53 12.78L0.252 10.89C2.988 9.99 4.068 7.812 4.068 5.634V4.212ZM10.89 3.348H13.284V7.056H15.426V9.018H13.284V12.888H10.89V3.348ZM8.01 13.248C11.376 13.248 13.482 14.418 13.482 16.398C13.482 18.378 11.376 19.548 8.01 19.548C4.626 19.548 2.502 18.378 2.502 16.398C2.502 14.418 4.626 13.248 8.01 13.248ZM8.01 15.102C5.958 15.102 4.878 15.516 4.878 16.398C4.878 17.28 5.958 17.694 8.01 17.694C10.026 17.694 11.124 17.28 11.124 16.398C11.124 15.516 10.026 15.102 8.01 15.102ZM27.4324 3.348H29.8444V12.816H27.4324V10.8H24.6064V11.97H16.9204V4.482H24.6064V5.652H27.4324V3.348ZM22.2484 6.39H19.2784V10.098H22.2484V6.39ZM24.3364 13.23C27.7564 13.23 29.8984 14.4 29.8984 16.38C29.8984 18.396 27.7564 19.548 24.3364 19.548C20.8984 19.548 18.7744 18.396 18.7744 16.38C18.7744 14.4 20.8984 13.23 24.3364 13.23ZM24.3364 15.066C22.2484 15.066 21.1684 15.48 21.1684 16.38C21.1684 17.28 22.2484 17.73 24.3364 17.73C26.4244 17.73 27.5044 17.28 27.5044 16.38C27.5044 15.48 26.4244 15.066 24.3364 15.066ZM24.6064 8.892H27.4324V7.542H24.6064V8.892ZM43.6328 3.33H45.9188V19.53H43.6328V11.484H42.2468V18.756H40.0328V3.618H42.2468V9.54H43.6328V3.33ZM32.4548 5.202H38.4128V7.128H34.8128V13.932C36.2708 13.914 37.6388 13.806 39.1328 13.536L39.3308 15.48C37.3508 15.858 35.6408 15.912 33.5888 15.912H32.4548V5.202ZM47.7373 4.716H51.3013V3.24H53.6953V4.716H57.2593V6.606H47.7373V4.716ZM52.5073 7.074C54.8473 7.074 56.5033 8.298 56.5033 10.098C56.5033 11.862 54.8473 13.068 52.5073 13.068C50.1673 13.068 48.5113 11.862 48.5113 10.098C48.5113 8.298 50.1673 7.074 52.5073 7.074ZM52.5073 8.892C51.4993 8.892 50.8153 9.288 50.8153 10.098C50.8153 10.872 51.4993 11.286 52.5073 11.286C53.4973 11.286 54.1813 10.872 54.1813 10.098C54.1813 9.288 53.4973 8.892 52.5073 8.892ZM58.0873 3.348H60.4993V7.488H62.6233V9.432H60.4993V13.5H58.0873V3.348ZM49.6633 14.148H60.4993V19.548H58.0873V16.056H49.6633V14.148ZM64.8737 4.68H76.8437V6.246C76.8437 8.208 76.8437 10.458 76.2677 13.752L73.8917 13.518C74.3957 10.62 74.4317 8.442 74.4317 6.606H64.8737V4.68ZM63.4697 15.66H66.5117V10.584H68.8697V15.66H70.5077V10.584H72.8657V15.66H78.1217V17.604H63.4697V15.66ZM94.4025 3.33H96.7965V19.584H94.4025V3.33ZM84.3225 4.77H92.1525V6.696H86.6985V13.734C89.5245 13.716 91.2885 13.644 93.2325 13.266L93.4305 15.228C91.2525 15.678 89.2185 15.732 85.7265 15.732H84.3225V4.77ZM99.335 4.878H108.263V6.858H105.077V7.668C105.077 10.098 106.301 12.978 108.983 14.202L107.669 16.092C105.869 15.264 104.627 13.662 103.907 11.772C103.205 13.86 101.927 15.624 100.073 16.506L98.705 14.616C101.405 13.338 102.683 10.314 102.683 7.668V6.858H99.335V4.878ZM109.379 3.348H111.791V9.486H114.113V11.466H111.791V19.548H109.379V3.348ZM125.885 3.348H128.279V14.958H125.885V3.348ZM117.461 13.806H119.855V17.352H128.675V19.26H117.461V13.806ZM119.441 4.356C121.943 4.356 123.869 6.066 123.869 8.478C123.869 10.854 121.943 12.6 119.441 12.6C116.975 12.6 115.031 10.854 115.031 8.478C115.031 6.066 116.975 4.356 119.441 4.356ZM119.441 6.426C118.271 6.426 117.371 7.164 117.371 8.478C117.371 9.756 118.271 10.512 119.441 10.512C120.611 10.512 121.529 9.756 121.529 8.478C121.529 7.164 120.611 6.426 119.441 6.426ZM142.176 3.33H144.462V19.53H142.176V11.484H140.79V18.756H138.576V3.618H140.79V9.54H142.176V3.33ZM130.998 5.202H136.956V7.128H133.356V13.932C134.814 13.914 136.182 13.806 137.676 13.536L137.874 15.48C135.894 15.858 134.184 15.912 132.132 15.912H130.998V5.202ZM146.28 4.716H149.844V3.24H152.238V4.716H155.802V6.606H146.28V4.716ZM151.05 7.074C153.39 7.074 155.046 8.298 155.046 10.098C155.046 11.862 153.39 13.068 151.05 13.068C148.71 13.068 147.054 11.862 147.054 10.098C147.054 8.298 148.71 7.074 151.05 7.074ZM151.05 8.892C150.042 8.892 149.358 9.288 149.358 10.098C149.358 10.872 150.042 11.286 151.05 11.286C152.04 11.286 152.724 10.872 152.724 10.098C152.724 9.288 152.04 8.892 151.05 8.892ZM156.63 3.348H159.042V7.488H161.166V9.432H159.042V13.5H156.63V3.348ZM148.206 14.148H159.042V19.548H156.63V16.056H148.206V14.148Z" fill="white"/>
<path d="M245.109 32.154H248.727V27.69H249.555V39.084H248.727V32.856H245.109V32.154ZM239.889 38.058H240.717V42.072H250.041V42.792H239.889V38.058ZM237.423 29.094H245.667V29.814H241.995V30.966C241.995 33.108 243.849 35.088 245.955 35.862L245.505 36.528C243.759 35.844 242.229 34.422 241.617 32.676C241.005 34.638 239.367 36.186 237.549 36.924L237.099 36.258C239.205 35.448 241.185 33.378 241.185 30.984V29.814H237.423V29.094Z" fill="white"/>
<path d="M233.462 27.672H234.272V43.206H233.462V27.672ZM227.396 33.45H230.366V28.104H231.158V42.324H230.366V34.152H227.396V33.45ZM221.438 29.67H228.638V30.39H225.506V32.244C225.506 35.016 226.964 37.77 229.016 38.958L228.458 39.588C226.892 38.616 225.65 36.744 225.128 34.566C224.588 36.942 223.274 38.94 221.654 39.948L221.114 39.318C223.184 38.094 224.696 35.232 224.696 32.244V30.39H221.438V29.67Z" fill="white"/>
<path d="M206.246 29.49H213.95V30.012C213.95 31.092 213.95 33.234 213.482 36.33L212.636 36.258C213.104 33.396 213.14 31.344 213.14 30.21H206.246V29.49ZM208.964 33.936H209.792V38.796C211.628 38.742 213.518 38.634 215.228 38.418L215.264 39.048C211.988 39.534 208.262 39.606 205.472 39.624L205.328 38.868C206.426 38.868 207.668 38.85 208.964 38.814V33.936ZM216.344 27.672H217.154V34.35H219.944V35.088H217.154V43.206H216.344V27.672Z" fill="white"/>
<path d="M180.393 35.826L179.529 35.664L179.907 29.004H186.297V29.76H180.753L180.465 34.656C181.185 34.152 182.085 33.828 182.895 33.828C185.361 33.828 187.071 35.52 187.071 37.932C187.071 40.398 185.361 42.144 182.895 42.144C180.951 42.144 179.277 40.848 178.845 38.976L179.691 38.796C180.015 40.272 181.347 41.334 182.895 41.334C184.857 41.334 186.207 39.93 186.207 37.932C186.207 36.006 184.857 34.656 182.895 34.656C182.049 34.656 181.005 35.142 180.393 35.826Z" fill="white"/>
<path d="M165.769 37.59C169.027 37.59 171.115 38.634 171.115 40.38C171.115 42.126 169.027 43.17 165.769 43.17C162.511 43.17 160.441 42.126 160.441 40.38C160.441 38.634 162.511 37.59 165.769 37.59ZM165.769 38.274C163.087 38.274 161.251 39.12 161.251 40.38C161.251 41.622 163.087 42.468 165.769 42.468C168.451 42.468 170.269 41.622 170.269 40.38C170.269 39.12 168.451 38.274 165.769 38.274ZM160.513 28.536H170.935V29.886C170.935 31.164 170.935 32.37 170.521 33.972L169.729 33.864C170.143 32.262 170.143 31.11 170.143 29.886V29.256H160.513V28.536ZM158.803 35.142H164.959V31.938H165.787V35.142H172.807V35.844H158.803V35.142Z" fill="white"/>
<path d="M151.206 32.154H154.824V27.69H155.652V39.084H154.824V32.856H151.206V32.154ZM145.986 38.058H146.814V42.072H156.138V42.792H145.986V38.058ZM143.52 29.094H151.764V29.814H148.092V30.966C148.092 33.108 149.946 35.088 152.052 35.862L151.602 36.528C149.856 35.844 148.326 34.422 147.714 32.676C147.102 34.638 145.464 36.186 143.646 36.924L143.196 36.258C145.302 35.448 147.282 33.378 147.282 30.984V29.814H143.52V29.094Z" fill="white"/>
<path d="M139.074 27.69H139.92V39.138H139.074V27.69ZM130.218 37.968H131.046V42.072H140.442V42.792H130.218V37.968ZM131.676 28.842C133.944 28.842 135.6 30.354 135.6 32.568C135.6 34.782 133.944 36.312 131.676 36.312C129.426 36.312 127.752 34.782 127.752 32.568C127.752 30.354 129.426 28.842 131.676 28.842ZM131.676 29.562C129.912 29.562 128.562 30.876 128.562 32.568C128.562 34.26 129.912 35.556 131.676 35.556C133.458 35.556 134.808 34.26 134.808 32.568C134.808 30.876 133.458 29.562 131.676 29.562Z" fill="white"/>
<path d="M111.929 29.328H120.191V30.048H116.483V32.82C116.483 35.358 118.625 38.13 120.641 39.12L120.155 39.804C118.463 38.904 116.753 36.924 116.087 34.71C115.403 37.086 113.603 39.246 111.929 40.164L111.425 39.498C113.369 38.49 115.691 35.52 115.691 32.82V30.048H111.929V29.328ZM122.531 27.672H123.359V34.206H126.113V34.926H123.359V43.206H122.531V27.672Z" fill="white"/>
<path d="M107.591 27.672H108.419V43.206H107.591V27.672ZM98.1049 38.508C101.039 38.508 103.127 38.4 105.611 37.95L105.719 38.688C103.145 39.138 101.075 39.246 98.1049 39.246H96.9169V29.238H104.117V29.976H97.7449V38.508H98.1049Z" fill="white"/>
<path d="M84.1725 28.95C86.2785 28.95 87.7905 30.858 87.9165 33.846H91.8945V27.672H92.7225V43.206H91.8945V34.53H87.9345C87.8445 37.626 86.3325 39.588 84.1725 39.588C81.9585 39.588 80.4105 37.518 80.4105 34.278C80.4105 31.038 81.9585 28.95 84.1725 28.95ZM84.1725 29.688C82.4265 29.688 81.2025 31.596 81.2025 34.278C81.2025 36.942 82.4265 38.886 84.1725 38.886C85.9365 38.886 87.1605 36.942 87.1605 34.278C87.1605 31.596 85.9365 29.688 84.1725 29.688Z" fill="white"/>
<path d="M76.1261 27.672H76.9541V43.206H76.1261V27.672ZM66.6401 38.508C69.5741 38.508 71.6621 38.4 74.1461 37.95L74.2541 38.688C71.6801 39.138 69.6101 39.246 66.6401 39.246H65.4521V29.238H72.6521V29.976H66.2801V38.508H66.6401Z" fill="white"/>
<path d="M49.6296 29.274H56.5236V39.156H49.6296V29.274ZM55.7316 29.994H50.4396V38.454H55.7316V29.994ZM60.3936 27.672H61.2216V43.206H60.3936V27.672Z" fill="white"/>
<path d="M41.7587 35.556C43.5407 35.556 44.7827 34.35 44.7827 32.64C44.7827 30.966 43.5407 29.778 41.7587 29.778H38.5187V35.556H41.7587ZM46.2407 42H45.1967L41.3087 36.33H38.5187V42H37.6547V29.004H41.7407C44.0447 29.004 45.6467 30.534 45.6467 32.676C45.6467 34.674 44.0447 36.168 42.3347 36.294L46.2407 42Z" fill="white"/>
<path d="M35.1342 29.004L30.4362 42H29.5362L24.6042 29.004H25.5402L29.9862 40.722L34.2162 29.004H35.1342Z" fill="white"/>
<path d="M18.8544 35.556C20.6364 35.556 21.8784 34.35 21.8784 32.64C21.8784 30.966 20.6364 29.778 18.8544 29.778H15.6144V35.556H18.8544ZM23.3364 42H22.2924L18.4044 36.33H15.6144V42H14.7504V29.004H18.8364C21.1404 29.004 22.7424 30.534 22.7424 32.676C22.7424 34.674 21.1404 36.168 19.4304 36.294L23.3364 42Z" fill="white"/>
<path d="M7.21802 29.004L12.222 42H11.286L9.79202 38.058H3.74402L2.21402 42H1.27802L6.31802 29.004H7.21802ZM4.03202 37.302H9.48602L6.76802 30.21L4.03202 37.302Z" fill="white"/>
<path d="M197.946 33.276C197.946 32.044 197.246 31.19 196.266 31.19C195.146 31.19 194.264 32.226 194.264 33.612V37H193.592V27.172H194.264V31.82C194.572 31.19 195.258 30.588 196.266 30.588C197.638 30.588 198.618 31.708 198.618 33.304V37H197.946V33.276Z" fill="white"/>
<path d="M189.834 37V31.148H188.588V30.546H189.834V28.418H190.506V30.546H192.102V31.148H190.506V37H189.834Z" fill="white"/>
</svg>
