<svg width="195" height="217" viewBox="0 0 195 217" fill="none" xmlns="http://www.w3.org/2000/svg">
<path d="M102.556 49.7011C102.556 42.7578 103.601 36.2541 105.691 30.1898C107.781 24.1254 110.786 18.8521 114.705 14.3698C118.711 9.79959 123.545 6.28404 129.206 3.82316C134.954 1.27439 141.355 0 148.41 0C155.464 0 161.822 1.27439 167.483 3.82316C173.231 6.28404 178.108 9.79959 182.115 14.3698C186.121 18.8521 189.125 24.1254 191.129 30.1898C193.219 36.2541 194.264 42.7578 194.264 49.7011C194.264 56.4685 193.219 62.8404 191.129 68.8168C189.125 74.7054 186.121 79.8908 182.115 84.3731C178.108 88.8555 173.231 92.371 167.483 94.9198C161.822 97.3807 155.464 98.6111 148.41 98.6111C141.355 98.6111 134.954 97.3807 129.206 94.9198C123.545 92.371 118.711 88.8994 114.705 84.505C110.786 80.0227 107.781 74.7933 105.691 68.8168C103.601 62.8404 102.556 56.4685 102.556 49.7011ZM123.066 49.7011C123.066 53.8318 123.545 57.7868 124.503 61.566C125.461 65.2574 126.941 68.5971 128.945 71.5853C131.035 74.5736 133.691 76.9465 136.914 78.7043C140.136 80.3742 143.968 81.2092 148.41 81.2092C152.851 81.2092 156.684 80.3303 159.906 78.5725C163.215 76.8147 165.872 74.4857 167.875 71.5853C169.878 68.5971 171.359 65.2574 172.317 61.566C173.275 57.7868 173.754 53.8318 173.754 49.7011C173.754 45.3945 173.275 41.3077 172.317 37.4406C171.359 33.5735 169.878 30.1458 167.875 27.1576C165.872 24.1694 163.215 21.7964 159.906 20.0386C156.684 18.2808 152.851 17.402 148.41 17.402C143.968 17.402 140.092 18.2808 136.783 20.0386C133.561 21.7964 130.948 24.1694 128.945 27.1576C126.941 30.1458 125.461 33.5735 124.503 37.4406C123.545 41.3077 123.066 45.3945 123.066 49.7011Z" fill="#F0F6DA"/>
<path d="M21.4883 54.6919V81.7616H44.4822C49.3182 81.7616 53.1505 80.7948 55.9791 78.8613C58.899 76.8356 60.3589 73.4749 60.3589 68.7792C60.3589 63.8993 58.9902 60.3544 56.2528 58.1446C53.5155 55.8428 49.7288 54.6919 44.8928 54.6919H21.4883ZM0 98.6111V0H45.9877C55.9335 0 63.5981 1.88751 68.9816 5.66254C74.4563 9.43757 77.1937 15.6986 77.1937 24.4456C77.1937 33.8371 72.7683 40.6966 63.9175 45.0241C69.7572 46.6814 74.1826 49.7199 77.1937 54.1394C80.296 58.4669 81.8472 63.7612 81.8472 70.0222C81.8472 74.81 80.8891 79.0454 78.973 82.7284C77.1481 86.3193 74.5932 89.3117 71.3084 91.7056C68.1148 94.0074 64.4649 95.7568 60.3589 96.9538C56.2528 98.0587 51.9187 98.6111 47.3564 98.6111H0ZM21.4883 16.8495V39.914H43.2504C47.2652 39.914 50.4588 38.9472 52.8311 37.0137C55.2035 35.0801 56.3897 32.1338 56.3897 28.1746C56.3897 23.8471 55.021 20.9008 52.2837 19.3355C49.6376 17.6782 46.079 16.8495 41.6079 16.8495H21.4883Z" fill="#F0F6DA"/>
<path d="M102.556 216.694L136.322 168.14L105.257 124H129.838L148.747 153.6L168.332 124H191.563L160.633 168.27L194.264 216.694H169.007L147.937 184.628L126.462 216.694H102.556Z" fill="#F0F6DA"/>
</svg>
