<svg width="90" height="111" viewBox="0 0 90 111" fill="none" xmlns="http://www.w3.org/2000/svg">
<path d="M11.9 38.34C6.426 38.34 2.754 33.58 2.754 26.44C2.754 19.3 6.426 14.54 11.9 14.54C17.442 14.54 21.114 19.3 21.114 26.44C21.114 33.58 17.442 38.34 11.9 38.34ZM6.018 26.406C6.018 32.186 8.398 36.062 11.934 36.062C15.47 36.062 17.816 32.22 17.816 26.474C17.816 20.694 15.47 16.818 11.866 16.818C8.33 16.818 6.018 20.66 6.018 26.406ZM33.767 38.34C31.047 38.34 28.395 37.456 26.729 36.13L27.239 30.996H28.769V31.438C28.769 34.804 30.741 36.062 33.427 36.062C36.623 36.062 38.119 34.294 38.119 31.2C38.119 27.222 35.671 25.352 32.101 25.352C30.741 25.352 29.585 25.624 28.633 26.1L27.919 26.066L29.279 14.88H40.465V17.464H32.135L31.353 23.414C32.203 23.176 33.155 23.108 33.903 23.108C39.173 23.108 41.689 26.406 41.689 30.758C41.689 36.062 38.187 38.34 33.767 38.34ZM48.6312 38.34C47.5092 38.34 46.6252 37.422 46.6252 36.266C46.6252 35.178 47.4752 34.26 48.6312 34.26C49.7192 34.26 50.6372 35.178 50.6372 36.266C50.6372 37.422 49.7192 38.34 48.6312 38.34ZM55.7321 38V36.368L58.0781 36.164C59.1321 36.062 59.7101 35.45 59.7101 34.396V18.688C59.7101 18.212 59.4721 17.906 59.0301 17.906C58.9621 17.906 58.8601 17.906 58.7581 17.94L55.3581 18.858V16.614L63.0421 14.54V35.314C63.0421 35.824 63.3481 36.13 63.8581 36.198L66.5441 36.47V38H55.7321ZM71.0071 35.824C79.2691 27.12 82.0231 23.992 82.0231 20.626C82.0231 17.634 79.8811 16.546 77.4331 16.546C75.0531 16.546 74.1691 17.566 73.9651 19.13L73.6931 21.102H72.1631L71.5511 16.172C73.4891 15.084 75.9371 14.54 78.3171 14.54C82.1251 14.54 85.5591 16.07 85.5591 20.66C85.5591 24.842 82.1591 28.48 75.0191 35.348H80.6971C83.0431 35.348 83.9951 34.192 84.4711 32.424L84.6751 31.676H86.2051V38H71.0071V35.824Z" fill="#F0F6DA"/>
<path d="M11.9 92.34C6.426 92.34 2.754 87.58 2.754 80.44C2.754 73.3 6.426 68.54 11.9 68.54C17.442 68.54 21.114 73.3 21.114 80.44C21.114 87.58 17.442 92.34 11.9 92.34ZM6.018 80.406C6.018 86.186 8.398 90.062 11.934 90.062C15.47 90.062 17.816 86.22 17.816 80.474C17.816 74.694 15.47 70.818 11.866 70.818C8.33 70.818 6.018 74.66 6.018 80.406ZM33.767 92.34C31.047 92.34 28.395 91.456 26.729 90.13L27.239 84.996H28.769V85.438C28.769 88.804 30.741 90.062 33.427 90.062C36.623 90.062 38.119 88.294 38.119 85.2C38.119 81.222 35.671 79.352 32.101 79.352C30.741 79.352 29.585 79.624 28.633 80.1L27.919 80.066L29.279 68.88H40.465V71.464H32.135L31.353 77.414C32.203 77.176 33.155 77.108 33.903 77.108C39.173 77.108 41.689 80.406 41.689 84.758C41.689 90.062 38.187 92.34 33.767 92.34ZM48.6312 92.34C47.5092 92.34 46.6252 91.422 46.6252 90.266C46.6252 89.178 47.4752 88.26 48.6312 88.26C49.7192 88.26 50.6372 89.178 50.6372 90.266C50.6372 91.422 49.7192 92.34 48.6312 92.34ZM55.7321 92V90.368L58.0781 90.164C59.1321 90.062 59.7101 89.45 59.7101 88.396V72.688C59.7101 72.212 59.4721 71.906 59.0301 71.906C58.9621 71.906 58.8601 71.906 58.7581 71.94L55.3581 72.858V70.614L63.0421 68.54V89.314C63.0421 89.824 63.3481 90.13 63.8581 90.198L66.5441 90.47V92H55.7321ZM79.2455 92.34C73.5675 92.34 71.0515 88.328 71.0515 82.004C71.0515 72.416 76.8655 68.54 85.5695 68.54V70.818C79.1775 70.818 75.8455 73.708 74.7235 78.298C76.0495 77.55 77.8515 77.006 79.8575 77.006C84.5155 77.006 86.8275 80.032 86.8275 84.588C86.8275 89.858 83.6995 92.34 79.2455 92.34ZM74.2815 82.344C74.2815 87.886 76.1855 90.062 79.2795 90.062C82.3735 90.062 83.6995 87.886 83.6995 84.588C83.6995 80.644 81.7955 79.114 78.8715 79.114C77.3075 79.114 75.8455 79.522 74.3835 80.338C74.3155 80.984 74.2815 81.664 74.2815 82.344Z" fill="#F0F6DA"/>
<path d="M12.058 45.306H12.002L8.628 51.284L5.254 45.306H5.198V54H4.386V44.228H5.534L8.628 49.73H8.67L11.764 44.228H12.87V54H12.058V45.306ZM18.242 54.168C17.766 54.168 17.3366 54.084 16.954 53.916C16.5713 53.748 16.2446 53.5053 15.974 53.188C15.7033 52.8613 15.4933 52.4647 15.344 51.998C15.1946 51.5313 15.12 51.004 15.12 50.416C15.12 49.828 15.1946 49.3053 15.344 48.848C15.4933 48.3813 15.7033 47.9893 15.974 47.672C16.2446 47.3453 16.5713 47.098 16.954 46.93C17.3366 46.7527 17.766 46.664 18.242 46.664C18.718 46.664 19.1473 46.7527 19.53 46.93C19.9126 47.098 20.2393 47.3453 20.51 47.672C20.7806 47.9893 20.9906 48.3813 21.14 48.848C21.2893 49.3053 21.364 49.828 21.364 50.416C21.364 51.004 21.2893 51.5313 21.14 51.998C20.9906 52.4647 20.7806 52.8613 20.51 53.188C20.2393 53.5053 19.9126 53.748 19.53 53.916C19.1473 54.084 18.718 54.168 18.242 54.168ZM18.242 53.454C18.942 53.454 19.4926 53.2347 19.894 52.796C20.3046 52.3573 20.51 51.7133 20.51 50.864V49.968C20.51 49.128 20.3046 48.4887 19.894 48.05C19.4926 47.602 18.942 47.378 18.242 47.378C17.542 47.378 16.9866 47.5973 16.576 48.036C16.1746 48.4747 15.974 49.1187 15.974 49.968V50.864C15.974 51.704 16.1746 52.348 16.576 52.796C16.9866 53.2347 17.542 53.454 18.242 53.454ZM23.5312 54V46.832H24.3292V47.966H24.3712C24.5299 47.5927 24.7772 47.2847 25.1132 47.042C25.4492 46.79 25.9066 46.664 26.4852 46.664C27.2506 46.664 27.8432 46.902 28.2632 47.378C28.6926 47.8447 28.9072 48.5167 28.9072 49.394V54H28.1092V49.534C28.1092 48.806 27.9506 48.2647 27.6332 47.91C27.3252 47.5553 26.8726 47.378 26.2752 47.378C26.0232 47.378 25.7806 47.4107 25.5472 47.476C25.3139 47.5413 25.1039 47.6393 24.9172 47.77C24.7399 47.9007 24.5952 48.0687 24.4832 48.274C24.3806 48.47 24.3292 48.6987 24.3292 48.96V54H23.5312ZM52.2095 54V53.258H55.0655V44.844H54.9955L52.3075 47.238L51.8315 46.706L54.6175 44.228H55.9055V53.258H58.5935V54H52.2095ZM66.876 54H60.604V53.146L64.02 49.87C64.4773 49.422 64.8507 48.9647 65.14 48.498C65.4293 48.022 65.574 47.5367 65.574 47.042V46.776C65.574 46.1973 65.406 45.726 65.07 45.362C64.734 44.998 64.23 44.816 63.558 44.816C62.9047 44.816 62.4053 44.9793 62.06 45.306C61.7147 45.6327 61.4627 46.0573 61.304 46.58L60.548 46.3C60.6413 46.0013 60.7673 45.7167 60.926 45.446C61.0847 45.1753 61.2853 44.9373 61.528 44.732C61.78 44.5267 62.074 44.3633 62.41 44.242C62.746 44.1207 63.138 44.06 63.586 44.06C64.0433 44.06 64.4493 44.13 64.804 44.27C65.168 44.4007 65.4713 44.5873 65.714 44.83C65.966 45.0727 66.1527 45.3667 66.274 45.712C66.4047 46.048 66.47 46.426 66.47 46.846C66.47 47.2007 66.4233 47.5367 66.33 47.854C66.2367 48.162 66.106 48.4607 65.938 48.75C65.77 49.03 65.5647 49.31 65.322 49.59C65.0793 49.8607 64.8133 50.1313 64.524 50.402L61.514 53.258H66.876V54ZM69.4045 54V44.228H73.2405C74.0899 44.228 74.7385 44.4753 75.1865 44.97C75.6345 45.4553 75.8585 46.118 75.8585 46.958C75.8585 47.8073 75.6345 48.4793 75.1865 48.974C74.7385 49.4593 74.0899 49.702 73.2405 49.702H70.2445V54H69.4045ZM70.2445 48.96H73.2405C73.8005 48.96 74.2252 48.806 74.5145 48.498C74.8132 48.1807 74.9625 47.7793 74.9625 47.294V46.622C74.9625 46.146 74.8132 45.754 74.5145 45.446C74.2252 45.1287 73.8005 44.97 73.2405 44.97H70.2445V48.96ZM85.6247 45.306H85.5687L82.1947 51.284L78.8207 45.306H78.7647V54H77.9527V44.228H79.1007L82.1947 49.73H82.2367L85.3307 44.228H86.4367V54H85.6247V45.306Z" fill="#F0F6DA"/>
<path d="M4.386 107V97.228H9.972V97.97H5.226V101.666H9.65V102.408H5.226V107H4.386ZM13.0633 107H12.2233V97.228H16.0593C16.8993 97.228 17.5433 97.466 17.9913 97.942C18.4486 98.418 18.6773 99.0853 18.6773 99.944C18.6773 100.7 18.4906 101.311 18.1173 101.778C17.7533 102.245 17.2213 102.525 16.5213 102.618L18.9293 107H17.9913L15.6533 102.674H13.0633V107ZM16.0593 101.96C16.6193 101.96 17.0439 101.806 17.3333 101.498C17.6319 101.181 17.7813 100.779 17.7813 100.294V99.622C17.7813 99.146 17.6319 98.754 17.3333 98.446C17.0439 98.1287 16.6193 97.97 16.0593 97.97H13.0633V101.96H16.0593ZM20.7597 107V106.3H22.1877V97.928H20.7597V97.228H24.4557V97.928H23.0277V106.3H24.4557V107H20.7597ZM67.3507 107H61.0787V106.146L64.4947 102.87C64.952 102.422 65.3253 101.965 65.6147 101.498C65.904 101.022 66.0487 100.537 66.0487 100.042V99.776C66.0487 99.1973 65.8807 98.726 65.5447 98.362C65.2087 97.998 64.7047 97.816 64.0327 97.816C63.3793 97.816 62.88 97.9793 62.5347 98.306C62.1893 98.6327 61.9373 99.0573 61.7787 99.58L61.0227 99.3C61.116 99.0013 61.242 98.7167 61.4007 98.446C61.5593 98.1753 61.76 97.9373 62.0027 97.732C62.2547 97.5267 62.5487 97.3633 62.8847 97.242C63.2207 97.1207 63.6127 97.06 64.0607 97.06C64.518 97.06 64.924 97.13 65.2787 97.27C65.6427 97.4007 65.946 97.5873 66.1887 97.83C66.4407 98.0727 66.6273 98.3667 66.7487 98.712C66.8793 99.048 66.9447 99.426 66.9447 99.846C66.9447 100.201 66.898 100.537 66.8047 100.854C66.7113 101.162 66.5807 101.461 66.4127 101.75C66.2447 102.03 66.0393 102.31 65.7967 102.59C65.554 102.861 65.288 103.131 64.9987 103.402L61.9887 106.258H67.3507V107ZM69.8792 107V97.228H73.7152C74.5645 97.228 75.2132 97.4753 75.6612 97.97C76.1092 98.4553 76.3332 99.118 76.3332 99.958C76.3332 100.807 76.1092 101.479 75.6612 101.974C75.2132 102.459 74.5645 102.702 73.7152 102.702H70.7192V107H69.8792ZM70.7192 101.96H73.7152C74.2752 101.96 74.6999 101.806 74.9892 101.498C75.2879 101.181 75.4372 100.779 75.4372 100.294V99.622C75.4372 99.146 75.2879 98.754 74.9892 98.446C74.6999 98.1287 74.2752 97.97 73.7152 97.97H70.7192V101.96ZM86.0994 98.306H86.0434L82.6694 104.284L79.2954 98.306H79.2394V107H78.4274V97.228H79.5754L82.6694 102.73H82.7114L85.8054 97.228H86.9114V107H86.0994V98.306Z" fill="#F0F6DA"/>
<path d="M85.1768 61.1768C85.2744 61.0791 85.2744 60.9209 85.1768 60.8232L83.5858 59.2322C83.4882 59.1346 83.3299 59.1346 83.2322 59.2322C83.1346 59.3299 83.1346 59.4882 83.2322 59.5858L84.6464 61L83.2322 62.4142C83.1346 62.5118 83.1346 62.6701 83.2322 62.7678C83.3299 62.8654 83.4882 62.8654 83.5858 62.7678L85.1768 61.1768ZM3 61V61.25H85V61V60.75H3V61Z" fill="#F0F6DA"/>
</svg>
