<svg width="153" height="63" viewBox="0 0 153 63" fill="none" xmlns="http://www.w3.org/2000/svg">
<path d="M7.932 21V1.008H16.948C18.1427 1.008 19.1787 1.18533 20.056 1.54C20.952 1.876 21.68 2.352 22.24 2.968C22.8 3.56533 23.2107 4.24667 23.472 5.012C23.7333 5.77733 23.864 6.58 23.864 7.42C23.864 8.26 23.7333 9.06267 23.472 9.828C23.2107 10.5933 22.8 11.284 22.24 11.9C21.68 12.4973 20.952 12.9733 20.056 13.328C19.1787 13.664 18.1427 13.832 16.948 13.832H12.328V21H7.932ZM12.328 4.424V10.416H15.744C16.304 10.416 16.808 10.3787 17.256 10.304C17.704 10.2107 18.1053 10.0613 18.46 9.856C18.8333 9.632 19.1133 9.324 19.3 8.932C19.5053 8.54 19.608 8.036 19.608 7.42C19.608 6.804 19.5053 6.3 19.3 5.908C19.1133 5.516 18.8333 5.208 18.46 4.984C18.1053 4.76 17.704 4.61067 17.256 4.536C16.808 4.46133 16.304 4.424 15.744 4.424H12.328ZM26.6078 21V1.008H31.0038V17.304H40.7478V21H26.6078ZM41.0774 21L48.6654 1.008H53.1734L60.6494 21H56.0854L54.5734 16.548H47.0974L45.5294 21H41.0774ZM50.8494 5.936L48.2454 13.272H53.4254L50.9054 5.936H50.8494ZM65.4753 21V13.216L58.1113 1.008H63.0673L67.7433 8.904L72.3913 1.008H77.2913L69.8713 13.328V21H65.4753ZM91.16 12.096V17.584H95.864C96.8534 17.584 97.6374 17.388 98.216 16.996C98.8134 16.5853 99.112 15.904 99.112 14.952C99.112 13.9627 98.832 13.244 98.272 12.796C97.712 12.3293 96.9374 12.096 95.948 12.096H91.16ZM86.764 21V1.008H96.172C98.2067 1.008 99.7747 1.39067 100.876 2.156C101.996 2.92133 102.556 4.19067 102.556 5.964C102.556 7.868 101.651 9.25867 99.84 10.136C101.035 10.472 101.94 11.088 102.556 11.984C103.191 12.8613 103.508 13.9347 103.508 15.204C103.508 16.1747 103.312 17.0333 102.92 17.78C102.547 18.508 102.024 19.1147 101.352 19.6C100.699 20.0667 99.952 20.4213 99.112 20.664C98.272 20.888 97.3854 21 96.452 21H86.764ZM91.16 4.424V9.1H95.612C96.4334 9.1 97.0867 8.904 97.572 8.512C98.0574 8.12 98.3 7.52267 98.3 6.72C98.3 5.84267 98.02 5.24533 97.46 4.928C96.9187 4.592 96.1907 4.424 95.276 4.424H91.16ZM105.611 11.088C105.611 9.61333 105.835 8.232 106.283 6.944C106.731 5.656 107.375 4.536 108.215 3.584C109.074 2.61333 110.11 1.86667 111.323 1.344C112.555 0.802666 113.927 0.532 115.439 0.532C116.951 0.532 118.314 0.802666 119.527 1.344C120.759 1.86667 121.804 2.61333 122.663 3.584C123.522 4.536 124.166 5.656 124.595 6.944C125.043 8.232 125.267 9.61333 125.267 11.088C125.267 12.5253 125.043 13.8787 124.595 15.148C124.166 16.3987 123.522 17.5 122.663 18.452C121.804 19.404 120.759 20.1507 119.527 20.692C118.314 21.2147 116.951 21.476 115.439 21.476C113.927 21.476 112.555 21.2147 111.323 20.692C110.11 20.1507 109.074 19.4133 108.215 18.48C107.375 17.528 106.731 16.4173 106.283 15.148C105.835 13.8787 105.611 12.5253 105.611 11.088ZM110.007 11.088C110.007 11.9653 110.11 12.8053 110.315 13.608C110.52 14.392 110.838 15.1013 111.267 15.736C111.715 16.3707 112.284 16.8747 112.975 17.248C113.666 17.6027 114.487 17.78 115.439 17.78C116.391 17.78 117.212 17.5933 117.903 17.22C118.612 16.8467 119.182 16.352 119.611 15.736C120.04 15.1013 120.358 14.392 120.563 13.608C120.768 12.8053 120.871 11.9653 120.871 11.088C120.871 10.1733 120.768 9.30533 120.563 8.484C120.358 7.66267 120.04 6.93467 119.611 6.3C119.182 5.66533 118.612 5.16133 117.903 4.788C117.212 4.41467 116.391 4.228 115.439 4.228C114.487 4.228 113.656 4.41467 112.947 4.788C112.256 5.16133 111.696 5.66533 111.267 6.3C110.838 6.93467 110.52 7.66267 110.315 8.484C110.11 9.30533 110.007 10.1733 110.007 11.088ZM126.172 21L133.172 10.528L126.732 1.008H131.828L135.748 7.392L139.808 1.008H144.624L138.212 10.556L145.184 21H139.948L135.58 14.084L131.128 21H126.172Z" fill="#F0F6DA"/>
<path d="M4.844 36.84V57H2.94V36.84H4.844ZM11.909 57H10.005V36.84H12.161L23.809 54.452H23.865V36.84H25.769V57H23.557L11.965 39.416H11.909V57ZM36.568 54.76L42.616 36.84H44.604L37.604 57H35.504L28.504 36.84H30.492L36.568 54.76ZM49.9612 36.84V57H48.0572V36.84H49.9612ZM68.0302 38.464H61.6462V57H59.7422V38.464H53.3582V36.84H68.0302V38.464ZM78.9688 36.84L86.6968 57H84.7368L82.4128 50.672H73.2288L70.8488 57H68.8888L76.8128 36.84H78.9688ZM77.8208 38.464L73.8728 49.048H81.7688L77.8208 38.464ZM102.265 38.464H95.8805V57H93.9765V38.464H87.5925V36.84H102.265V38.464ZM107.547 36.84V57H105.643V36.84H107.547ZM111.98 46.948C111.98 45.464 112.176 44.092 112.596 42.804C112.988 41.516 113.576 40.396 114.36 39.416C115.144 38.464 116.124 37.708 117.272 37.148C118.42 36.588 119.764 36.308 121.276 36.308C122.844 36.308 124.216 36.588 125.42 37.12C126.596 37.68 127.576 38.436 128.388 39.388C129.172 40.368 129.76 41.488 130.18 42.776C130.572 44.092 130.768 45.464 130.768 46.948C130.768 48.404 130.572 49.776 130.18 51.036C129.76 52.324 129.172 53.444 128.388 54.396C127.604 55.376 126.624 56.132 125.448 56.692C124.272 57.252 122.9 57.532 121.36 57.532C119.82 57.532 118.448 57.252 117.272 56.692C116.096 56.132 115.116 55.376 114.332 54.396C113.548 53.444 112.96 52.324 112.568 51.036C112.176 49.776 111.98 48.404 111.98 46.948ZM121.388 55.908C122.704 55.908 123.824 55.656 124.776 55.152C125.7 54.676 126.484 54.004 127.1 53.192C127.688 52.38 128.136 51.428 128.444 50.336C128.724 49.244 128.864 48.124 128.864 46.948C128.864 45.548 128.696 44.288 128.36 43.168C127.996 42.076 127.492 41.124 126.848 40.34C126.204 39.556 125.392 38.968 124.468 38.548C123.544 38.128 122.48 37.932 121.332 37.932C120.044 37.932 118.924 38.184 118 38.688C117.048 39.192 116.264 39.864 115.676 40.676C115.06 41.516 114.612 42.468 114.332 43.56C114.024 44.652 113.884 45.772 113.884 46.948C113.884 48.152 114.024 49.272 114.332 50.364C114.612 51.456 115.06 52.408 115.676 53.22C116.264 54.032 117.048 54.704 118 55.18C118.924 55.656 120.072 55.908 121.388 55.908ZM136.405 57H134.501V36.84H136.657L148.305 54.452H148.361V36.84H150.265V57H148.053L136.461 39.416H136.405V57Z" fill="white"/>
</svg>
