<svg width="290" height="302" viewBox="0 0 290 302" fill="none" xmlns="http://www.w3.org/2000/svg">
<path d="M45.843 43.28C44.5896 43.28 43.4763 42.9667 42.503 42.34C41.543 41.7133 40.7896 40.8267 40.243 39.68C39.6963 38.52 39.423 37.1533 39.423 35.58C39.423 33.9933 39.6963 32.64 40.243 31.52C40.7896 30.3867 41.543 29.52 42.503 28.92C43.4763 28.3067 44.5896 28 45.843 28C47.1096 28 48.223 28.3067 49.183 28.92C50.143 29.52 50.8963 30.3867 51.443 31.52C51.9896 32.64 52.263 33.9933 52.263 35.58C52.263 37.1533 51.9896 38.52 51.443 39.68C50.8963 40.8267 50.143 41.7133 49.183 42.34C48.223 42.9667 47.1096 43.28 45.843 43.28ZM45.843 41.24C46.6563 41.24 47.363 41.0067 47.963 40.54C48.5763 40.0733 49.0496 39.42 49.383 38.58C49.7163 37.7267 49.883 36.7267 49.883 35.58C49.883 34.4333 49.7163 33.4467 49.383 32.62C49.0496 31.78 48.5763 31.14 47.963 30.7C47.363 30.2467 46.6563 30.02 45.843 30.02C45.0296 30.02 44.3163 30.2467 43.703 30.7C43.103 31.14 42.6363 31.78 42.303 32.62C41.983 33.4467 41.823 34.4333 41.823 35.58C41.823 36.7267 41.983 37.7267 42.303 38.58C42.6363 39.42 43.103 40.0733 43.703 40.54C44.3163 41.0067 45.0296 41.24 45.843 41.24Z" fill="white"/>
<path d="M29.2274 43V28.26H37.9474V30.22H31.5474V34.72H37.0074V36.66H31.5474V43H29.2274Z" fill="white"/>
<path d="M14.5399 43V28.26H16.9199L21.7999 36.92L23.3399 40.02H23.4399C23.3732 39.2733 23.2999 38.4733 23.2199 37.62C23.1532 36.7667 23.1199 35.94 23.1199 35.14V28.26H25.3399V43H22.9599L18.0799 34.32L16.5399 31.24H16.4599C16.5132 32 16.5732 32.7933 16.6399 33.62C16.7066 34.4467 16.7399 35.2667 16.7399 36.08V43H14.5399Z" fill="white"/>
<path d="M8.36801 43V28.26H10.688V43H8.36801Z" fill="white"/>
<path d="M64.8504 88.7679H66.1944V99.3439H64.8504V88.7679ZM65.7784 93.1519H68.3224V94.2719H65.7784V93.1519ZM60.8984 89.8879H62.3064C62.3064 91.1359 62.0291 92.2666 61.4744 93.2799C60.9304 94.2933 60.1517 95.1733 59.1384 95.9199C58.1251 96.6666 56.9251 97.2586 55.5384 97.6959L54.9784 96.6239C56.1944 96.2399 57.2451 95.7439 58.1304 95.1359C59.0157 94.5279 59.6984 93.8293 60.1784 93.0399C60.6584 92.2506 60.8984 91.3973 60.8984 90.4799V89.8879ZM55.5704 89.8879H61.5864V90.9919H55.5704V89.8879ZM57.1704 101.84H66.8184V102.928H57.1704V101.84ZM57.1704 98.2719H58.4984V102.272H57.1704V98.2719Z" fill="white"/>
<path d="M50.7876 88.7679H52.1156V103.248H50.7876V88.7679ZM46.5476 90.3359H47.8596C47.8596 91.3813 47.7316 92.3893 47.4756 93.3599C47.2303 94.3306 46.8409 95.2533 46.3076 96.1279C45.7743 96.9919 45.0809 97.7973 44.2276 98.5439C43.3743 99.2906 42.3396 99.9573 41.1236 100.544L40.4196 99.4719C41.8169 98.7999 42.9689 98.0159 43.8756 97.1199C44.7823 96.2239 45.4543 95.2266 45.8916 94.1279C46.329 93.0186 46.5476 91.8239 46.5476 90.5439V90.3359ZM41.0916 90.3359H47.1076V91.4079H41.0916V90.3359Z" fill="white"/>
<path d="M25.7548 90.0159H26.8588V92.6079C26.8588 93.4399 26.7521 94.2506 26.5388 95.0399C26.3361 95.8186 26.0428 96.5493 25.6588 97.2319C25.2854 97.9039 24.8428 98.5013 24.3308 99.0239C23.8294 99.5359 23.2801 99.9413 22.6828 100.24L21.8668 99.1359C22.4108 98.8906 22.9174 98.5386 23.3868 98.0799C23.8561 97.6213 24.2668 97.1039 24.6188 96.5279C24.9708 95.9413 25.2481 95.3119 25.4508 94.6399C25.6534 93.9679 25.7548 93.2906 25.7548 92.6079V90.0159ZM25.9788 90.0159H27.0828V92.6079C27.0828 93.2693 27.1788 93.9199 27.3708 94.5599C27.5734 95.1999 27.8508 95.8079 28.2028 96.3839C28.5654 96.9493 28.9761 97.4506 29.4348 97.8879C29.9041 98.3146 30.4054 98.6506 30.9388 98.8959L30.1388 99.9519C29.5521 99.6746 29.0081 99.2853 28.5068 98.7839C28.0054 98.2826 27.5628 97.7066 27.1788 97.0559C26.8054 96.4053 26.5121 95.7013 26.2988 94.9439C26.0854 94.1866 25.9788 93.4079 25.9788 92.6079V90.0159ZM32.4588 88.7679H33.7868V103.264H32.4588V88.7679Z" fill="white"/>
<path d="M14.892 92.7681H18.556V93.8561H14.892V92.7681ZM17.804 88.7841H19.132V99.3921H17.804V88.7841ZM9.9 101.84H19.532V102.928H9.9V101.84ZM9.9 98.4481H11.212V102.384H9.9V98.4481ZM10.908 90.5761H11.996V91.7441C11.996 92.6187 11.8253 93.4454 11.484 94.2241C11.1533 94.9921 10.684 95.6641 10.076 96.2401C9.468 96.8054 8.764 97.2427 7.964 97.5521L7.276 96.4801C7.80933 96.2881 8.29467 96.0321 8.732 95.7121C9.18 95.3921 9.56933 95.0241 9.9 94.6081C10.2307 94.1921 10.4813 93.7387 10.652 93.2481C10.8227 92.7574 10.908 92.2561 10.908 91.7441V90.5761ZM11.164 90.5761H12.252V91.7441C12.252 92.3627 12.396 92.9654 12.684 93.5521C12.972 94.1387 13.3827 94.6614 13.916 95.1201C14.4493 95.5681 15.0627 95.9147 15.756 96.1601L15.084 97.2161C14.2947 96.9281 13.6067 96.5121 13.02 95.9681C12.4333 95.4134 11.9747 94.7734 11.644 94.0481C11.324 93.3227 11.164 92.5547 11.164 91.7441V90.5761ZM7.692 89.9521H15.42V91.0401H7.692V89.9521Z" fill="white"/>
<path d="M97.866 162.768H99.21V173.344H97.866V162.768ZM98.794 167.152H101.338V168.272H98.794V167.152ZM93.914 163.888H95.322C95.322 165.136 95.0447 166.267 94.49 167.28C93.946 168.293 93.1673 169.173 92.154 169.92C91.1407 170.667 89.9407 171.259 88.554 171.696L87.994 170.624C89.21 170.24 90.2607 169.744 91.146 169.136C92.0314 168.528 92.714 167.829 93.194 167.04C93.674 166.251 93.914 165.397 93.914 164.48V163.888ZM88.586 163.888H94.602V164.992H88.586V163.888ZM90.186 175.84H99.834V176.928H90.186V175.84ZM90.186 172.272H91.514V176.272H90.186V172.272Z" fill="white"/>
<path d="M77.0673 164.016H78.1713V166.608C78.1713 167.44 78.0646 168.251 77.8513 169.04C77.6486 169.819 77.3553 170.549 76.9713 171.232C76.5979 171.904 76.1553 172.501 75.6433 173.024C75.1419 173.536 74.5926 173.941 73.9953 174.24L73.1793 173.136C73.7233 172.891 74.2299 172.539 74.6993 172.08C75.1686 171.621 75.5793 171.104 75.9313 170.528C76.2833 169.941 76.5606 169.312 76.7633 168.64C76.9659 167.968 77.0673 167.291 77.0673 166.608V164.016ZM77.2913 164.016H78.3953V166.608C78.3953 167.269 78.4913 167.92 78.6833 168.56C78.8859 169.2 79.1633 169.808 79.5153 170.384C79.8779 170.949 80.2886 171.451 80.7473 171.888C81.2166 172.315 81.7179 172.651 82.2513 172.896L81.4513 173.952C80.8646 173.675 80.3206 173.285 79.8193 172.784C79.3179 172.283 78.8753 171.707 78.4913 171.056C78.1179 170.405 77.8246 169.701 77.6113 168.944C77.3979 168.187 77.2913 167.408 77.2913 166.608V164.016ZM83.7713 162.768H85.0993V177.264H83.7713V162.768Z" fill="white"/>
<path d="M61.5544 164.864H65.9544V165.936H61.5544V164.864ZM61.5544 168.192H65.9544V169.28H61.5544V168.192ZM58.9144 163.632C59.6184 163.632 60.2477 163.781 60.8024 164.08C61.3677 164.368 61.8104 164.773 62.1304 165.296C62.4611 165.808 62.6264 166.4 62.6264 167.072C62.6264 167.744 62.4611 168.341 62.1304 168.864C61.8104 169.376 61.3677 169.781 60.8024 170.08C60.2477 170.368 59.6184 170.512 58.9144 170.512C58.1997 170.512 57.5597 170.368 56.9944 170.08C56.4397 169.781 55.9971 169.376 55.6664 168.864C55.3464 168.341 55.1864 167.744 55.1864 167.072C55.1864 166.4 55.3464 165.808 55.6664 165.296C55.9971 164.773 56.4397 164.368 56.9944 164.08C57.5597 163.781 58.1997 163.632 58.9144 163.632ZM58.9144 164.768C58.4451 164.768 58.0237 164.864 57.6504 165.056C57.2771 165.248 56.9837 165.52 56.7704 165.872C56.5571 166.213 56.4504 166.613 56.4504 167.072C56.4504 167.52 56.5571 167.92 56.7704 168.272C56.9837 168.613 57.2771 168.885 57.6504 169.088C58.0237 169.28 58.4451 169.376 58.9144 169.376C59.3837 169.376 59.7997 169.28 60.1624 169.088C60.5357 168.885 60.8291 168.613 61.0424 168.272C61.2557 167.92 61.3624 167.52 61.3624 167.072C61.3624 166.613 61.2557 166.213 61.0424 165.872C60.8291 165.52 60.5357 165.248 60.1624 165.056C59.7997 164.864 59.3837 164.768 58.9144 164.768ZM65.5384 162.768H66.8664V171.328H65.5384V162.768ZM62.0984 171.68C63.1011 171.68 63.9597 171.792 64.6744 172.016C65.3891 172.229 65.9384 172.544 66.3224 172.96C66.7171 173.365 66.9144 173.861 66.9144 174.448C66.9144 175.024 66.7171 175.52 66.3224 175.936C65.9384 176.352 65.3891 176.667 64.6744 176.88C63.9597 177.104 63.1011 177.216 62.0984 177.216C61.1064 177.216 60.2477 177.104 59.5224 176.88C58.8077 176.667 58.2531 176.352 57.8584 175.936C57.4744 175.52 57.2824 175.024 57.2824 174.448C57.2824 173.861 57.4744 173.365 57.8584 172.96C58.2531 172.544 58.8077 172.229 59.5224 172.016C60.2477 171.792 61.1064 171.68 62.0984 171.68ZM62.0984 172.72C61.3731 172.72 60.7437 172.789 60.2104 172.928C59.6877 173.067 59.2824 173.264 58.9944 173.52C58.7171 173.776 58.5784 174.085 58.5784 174.448C58.5784 174.8 58.7171 175.104 58.9944 175.36C59.2824 175.616 59.6877 175.813 60.2104 175.952C60.7437 176.091 61.3731 176.16 62.0984 176.16C62.8344 176.16 63.4637 176.091 63.9864 175.952C64.5091 175.813 64.9091 175.616 65.1864 175.36C65.4744 175.104 65.6184 174.8 65.6184 174.448C65.6184 174.085 65.4744 173.776 65.1864 173.52C64.9091 173.264 64.5091 173.067 63.9864 172.928C63.4637 172.789 62.8344 172.72 62.0984 172.72Z" fill="white"/>
<path d="M40.2277 170.112H53.3477V171.2H40.2277V170.112ZM46.2277 170.8H47.5717V174.128H46.2277V170.8ZM41.9077 175.824H51.8917V176.928H41.9077V175.824ZM41.9077 172.704H43.2357V176.128H41.9077V172.704ZM46.7717 163.136C47.7957 163.136 48.6863 163.253 49.4437 163.488C50.201 163.723 50.7877 164.059 51.2037 164.496C51.6303 164.923 51.8437 165.44 51.8437 166.048C51.8437 166.635 51.6303 167.147 51.2037 167.584C50.7877 168.021 50.201 168.357 49.4437 168.592C48.6863 168.827 47.7957 168.944 46.7717 168.944C45.7583 168.944 44.8677 168.827 44.0997 168.592C43.3423 168.357 42.7503 168.021 42.3237 167.584C41.9077 167.147 41.6997 166.635 41.6997 166.048C41.6997 165.44 41.9077 164.923 42.3237 164.496C42.7503 164.059 43.3423 163.723 44.0997 163.488C44.8677 163.253 45.7583 163.136 46.7717 163.136ZM46.7717 164.208C46.0463 164.208 45.4063 164.283 44.8517 164.432C44.297 164.581 43.865 164.795 43.5557 165.072C43.257 165.339 43.1077 165.664 43.1077 166.048C43.1077 166.421 43.257 166.747 43.5557 167.024C43.865 167.291 44.297 167.499 44.8517 167.648C45.4063 167.787 46.0463 167.856 46.7717 167.856C47.5183 167.856 48.1637 167.787 48.7077 167.648C49.2517 167.499 49.673 167.291 49.9717 167.024C50.281 166.747 50.4357 166.421 50.4357 166.048C50.4357 165.664 50.281 165.339 49.9717 165.072C49.673 164.795 49.2517 164.581 48.7077 164.432C48.1637 164.283 47.5183 164.208 46.7717 164.208Z" fill="white"/>
<path d="M25.7548 164.016H26.8588V166.608C26.8588 167.44 26.7521 168.251 26.5388 169.04C26.3361 169.819 26.0428 170.549 25.6588 171.232C25.2854 171.904 24.8428 172.501 24.3308 173.024C23.8294 173.536 23.2801 173.941 22.6828 174.24L21.8668 173.136C22.4108 172.891 22.9174 172.539 23.3868 172.08C23.8561 171.621 24.2668 171.104 24.6188 170.528C24.9708 169.941 25.2481 169.312 25.4508 168.64C25.6534 167.968 25.7548 167.291 25.7548 166.608V164.016ZM25.9788 164.016H27.0828V166.608C27.0828 167.269 27.1788 167.92 27.3708 168.56C27.5734 169.2 27.8508 169.808 28.2028 170.384C28.5654 170.949 28.9761 171.451 29.4348 171.888C29.9041 172.315 30.4054 172.651 30.9388 172.896L30.1388 173.952C29.5521 173.675 29.0081 173.285 28.5068 172.784C28.0054 172.283 27.5628 171.707 27.1788 171.056C26.8054 170.405 26.5121 169.701 26.2988 168.944C26.0854 168.187 25.9788 167.408 25.9788 166.608V164.016ZM32.4588 162.768H33.7868V177.264H32.4588V162.768Z" fill="white"/>
<path d="M14.892 166.768H18.556V167.856H14.892V166.768ZM17.804 162.784H19.132V173.392H17.804V162.784ZM9.9 175.84H19.532V176.928H9.9V175.84ZM9.9 172.448H11.212V176.384H9.9V172.448ZM10.908 164.576H11.996V165.744C11.996 166.619 11.8253 167.445 11.484 168.224C11.1533 168.992 10.684 169.664 10.076 170.24C9.468 170.805 8.764 171.243 7.964 171.552L7.276 170.48C7.80933 170.288 8.29467 170.032 8.732 169.712C9.18 169.392 9.56933 169.024 9.9 168.608C10.2307 168.192 10.4813 167.739 10.652 167.248C10.8227 166.757 10.908 166.256 10.908 165.744V164.576ZM11.164 164.576H12.252V165.744C12.252 166.363 12.396 166.965 12.684 167.552C12.972 168.139 13.3827 168.661 13.916 169.12C14.4493 169.568 15.0627 169.915 15.756 170.16L15.084 171.216C14.2947 170.928 13.6067 170.512 13.02 169.968C12.4333 169.413 11.9747 168.773 11.644 168.048C11.324 167.323 11.164 166.555 11.164 165.744V164.576ZM7.692 163.952H15.42V165.04H7.692V163.952Z" fill="white"/>
<path d="M54.9624 248.256H68.0824V249.376H54.9624V248.256ZM60.8024 244.752H62.1144V248.624H60.8024V244.752ZM60.7544 237.728H61.9224V238.848C61.9224 239.477 61.8104 240.069 61.5864 240.624C61.3731 241.168 61.0744 241.68 60.6904 242.16C60.3064 242.629 59.8637 243.051 59.3624 243.424C58.8717 243.797 58.3437 244.112 57.7784 244.368C57.2131 244.624 56.6371 244.811 56.0504 244.928L55.4744 243.824C55.9864 243.739 56.4931 243.589 56.9944 243.376C57.5064 243.152 57.9864 242.885 58.4344 242.576C58.8824 242.256 59.2824 241.904 59.6344 241.52C59.9864 241.125 60.2584 240.704 60.4504 240.256C60.6531 239.797 60.7544 239.328 60.7544 238.848V237.728ZM60.9944 237.728H62.1464V238.848C62.1464 239.339 62.2477 239.808 62.4504 240.256C62.6531 240.704 62.9304 241.125 63.2824 241.52C63.6344 241.904 64.0344 242.256 64.4824 242.576C64.9411 242.896 65.4211 243.163 65.9224 243.376C66.4344 243.589 66.9464 243.739 67.4584 243.824L66.8824 244.928C66.2957 244.811 65.7197 244.624 65.1544 244.368C64.5891 244.112 64.0557 243.797 63.5544 243.424C63.0531 243.051 62.6104 242.629 62.2264 242.16C61.8424 241.68 61.5384 241.163 61.3144 240.608C61.1011 240.053 60.9944 239.467 60.9944 238.848V237.728Z" fill="white"/>
<path d="M43.8116 238.32H44.8996V239.488C44.8996 240.384 44.729 241.211 44.3876 241.968C44.057 242.725 43.5876 243.387 42.9796 243.952C42.3823 244.517 41.673 244.949 40.8516 245.248L40.1796 244.192C40.905 243.936 41.5396 243.573 42.0836 243.104C42.6276 242.624 43.049 242.075 43.3476 241.456C43.657 240.837 43.8116 240.181 43.8116 239.488V238.32ZM44.0516 238.32H45.1396V239.488C45.1396 240.117 45.2836 240.715 45.5716 241.28C45.8596 241.845 46.265 242.341 46.7876 242.768C47.3103 243.195 47.9236 243.531 48.6276 243.776L48.0036 244.816C47.193 244.539 46.4943 244.139 45.9076 243.616C45.321 243.093 44.8623 242.48 44.5316 241.776C44.2116 241.061 44.0516 240.299 44.0516 239.488V238.32ZM40.5796 237.84H48.3236V238.928H40.5796V237.84ZM50.1476 236.768H51.4756V245.488H50.1476V236.768ZM51.1076 240.448H53.6036V241.552H51.1076V240.448ZM46.8676 245.888C47.849 245.888 48.6916 245.995 49.3956 246.208C50.1103 246.411 50.6596 246.709 51.0436 247.104C51.4276 247.499 51.6196 247.979 51.6196 248.544C51.6196 249.109 51.4276 249.589 51.0436 249.984C50.6596 250.379 50.1103 250.683 49.3956 250.896C48.6916 251.109 47.849 251.216 46.8676 251.216C45.8863 251.216 45.0383 251.109 44.3236 250.896C43.609 250.683 43.0596 250.379 42.6756 249.984C42.2916 249.589 42.0996 249.109 42.0996 248.544C42.0996 247.979 42.2916 247.499 42.6756 247.104C43.0596 246.709 43.609 246.411 44.3236 246.208C45.0383 245.995 45.8863 245.888 46.8676 245.888ZM46.8676 246.944C46.153 246.944 45.5343 247.008 45.0116 247.136C44.4996 247.264 44.105 247.445 43.8276 247.68C43.5503 247.915 43.4116 248.203 43.4116 248.544C43.4116 248.885 43.5503 249.179 43.8276 249.424C44.105 249.659 44.4996 249.84 45.0116 249.968C45.5343 250.096 46.153 250.16 46.8676 250.16C47.5823 250.16 48.1956 250.096 48.7076 249.968C49.2196 249.84 49.6143 249.659 49.8916 249.424C50.169 249.179 50.3076 248.885 50.3076 248.544C50.3076 248.203 50.169 247.915 49.8916 247.68C49.6143 247.445 49.2196 247.264 48.7076 247.136C48.1956 247.008 47.5823 246.944 46.8676 246.944Z" fill="white"/>
<path d="M25.7548 238.016H26.8588V240.608C26.8588 241.44 26.7521 242.251 26.5388 243.04C26.3361 243.819 26.0428 244.549 25.6588 245.232C25.2854 245.904 24.8428 246.501 24.3308 247.024C23.8294 247.536 23.2801 247.941 22.6828 248.24L21.8668 247.136C22.4108 246.891 22.9174 246.539 23.3868 246.08C23.8561 245.621 24.2668 245.104 24.6188 244.528C24.9708 243.941 25.2481 243.312 25.4508 242.64C25.6534 241.968 25.7548 241.291 25.7548 240.608V238.016ZM25.9788 238.016H27.0828V240.608C27.0828 241.269 27.1788 241.92 27.3708 242.56C27.5734 243.2 27.8508 243.808 28.2028 244.384C28.5654 244.949 28.9761 245.451 29.4348 245.888C29.9041 246.315 30.4054 246.651 30.9388 246.896L30.1388 247.952C29.5521 247.675 29.0081 247.285 28.5068 246.784C28.0054 246.283 27.5628 245.707 27.1788 245.056C26.8054 244.405 26.5121 243.701 26.2988 242.944C26.0854 242.187 25.9788 241.408 25.9788 240.608V238.016ZM32.4588 236.768H33.7868V251.264H32.4588V236.768Z" fill="white"/>
<path d="M14.892 240.768H18.556V241.856H14.892V240.768ZM17.804 236.784H19.132V247.392H17.804V236.784ZM9.9 249.84H19.532V250.928H9.9V249.84ZM9.9 246.448H11.212V250.384H9.9V246.448ZM10.908 238.576H11.996V239.744C11.996 240.619 11.8253 241.445 11.484 242.224C11.1533 242.992 10.684 243.664 10.076 244.24C9.468 244.805 8.764 245.243 7.964 245.552L7.276 244.48C7.80933 244.288 8.29467 244.032 8.732 243.712C9.18 243.392 9.56933 243.024 9.9 242.608C10.2307 242.192 10.4813 241.739 10.652 241.248C10.8227 240.757 10.908 240.256 10.908 239.744V238.576ZM11.164 238.576H12.252V239.744C12.252 240.363 12.396 240.965 12.684 241.552C12.972 242.139 13.3827 242.661 13.916 243.12C14.4493 243.568 15.0627 243.915 15.756 244.16L15.084 245.216C14.2947 244.928 13.6067 244.512 13.02 243.968C12.4333 243.413 11.9747 242.773 11.644 242.048C11.324 241.323 11.164 240.555 11.164 239.744V238.576ZM7.692 237.952H15.42V239.04H7.692V237.952Z" fill="white"/>
<path d="M262.826 128.169C262.271 128.169 261.79 127.991 261.383 127.636C260.984 127.281 260.677 126.739 260.46 126.011C260.252 125.283 260.148 124.364 260.148 123.255C260.148 122.154 260.252 121.249 260.46 120.538C260.677 119.819 260.984 119.281 261.383 118.926C261.79 118.571 262.271 118.393 262.826 118.393C263.381 118.393 263.853 118.571 264.243 118.926C264.642 119.281 264.949 119.819 265.166 120.538C265.383 121.249 265.491 122.154 265.491 123.255C265.491 124.364 265.383 125.283 265.166 126.011C264.949 126.739 264.642 127.281 264.243 127.636C263.853 127.991 263.381 128.169 262.826 128.169ZM262.826 127.74C263.268 127.74 263.654 127.567 263.983 127.22C264.312 126.873 264.564 126.366 264.737 125.699C264.919 125.032 265.01 124.217 265.01 123.255C265.01 122.302 264.919 121.496 264.737 120.837C264.564 120.17 264.312 119.667 263.983 119.329C263.654 118.982 263.268 118.809 262.826 118.809C262.384 118.809 261.998 118.982 261.669 119.329C261.34 119.667 261.084 120.17 260.902 120.837C260.72 121.496 260.629 122.302 260.629 123.255C260.629 124.217 260.72 125.032 260.902 125.699C261.084 126.366 261.34 126.873 261.669 127.22C261.998 127.567 262.384 127.74 262.826 127.74Z" fill="white"/>
<path d="M256.047 128.169C255.492 128.169 255.011 127.991 254.604 127.636C254.205 127.281 253.897 126.739 253.681 126.011C253.473 125.283 253.369 124.364 253.369 123.255C253.369 122.154 253.473 121.249 253.681 120.538C253.897 119.819 254.205 119.281 254.604 118.926C255.011 118.571 255.492 118.393 256.047 118.393C256.601 118.393 257.074 118.571 257.464 118.926C257.862 119.281 258.17 119.819 258.387 120.538C258.603 121.249 258.712 122.154 258.712 123.255C258.712 124.364 258.603 125.283 258.387 126.011C258.17 126.739 257.862 127.281 257.464 127.636C257.074 127.991 256.601 128.169 256.047 128.169ZM256.047 127.74C256.489 127.74 256.874 127.567 257.204 127.22C257.533 126.873 257.784 126.366 257.958 125.699C258.14 125.032 258.231 124.217 258.231 123.255C258.231 122.302 258.14 121.496 257.958 120.837C257.784 120.17 257.533 119.667 257.204 119.329C256.874 118.982 256.489 118.809 256.047 118.809C255.605 118.809 255.219 118.982 254.89 119.329C254.56 119.667 254.305 120.17 254.123 120.837C253.941 121.496 253.85 122.302 253.85 123.255C253.85 124.217 253.941 125.032 254.123 125.699C254.305 126.366 254.56 126.873 254.89 127.22C255.219 127.567 255.605 127.74 256.047 127.74Z" fill="white"/>
<path d="M251.14 122.605C251.01 122.605 250.888 122.557 250.776 122.462C250.672 122.367 250.62 122.228 250.62 122.046C250.62 121.855 250.672 121.712 250.776 121.617C250.888 121.513 251.01 121.461 251.14 121.461C251.278 121.461 251.4 121.513 251.504 121.617C251.616 121.712 251.673 121.855 251.673 122.046C251.673 122.228 251.616 122.367 251.504 122.462C251.4 122.557 251.278 122.605 251.14 122.605ZM251.14 128.169C251.01 128.169 250.888 128.117 250.776 128.013C250.672 127.918 250.62 127.783 250.62 127.61C250.62 127.419 250.672 127.276 250.776 127.181C250.888 127.077 251.01 127.025 251.14 127.025C251.278 127.025 251.4 127.077 251.504 127.181C251.616 127.276 251.673 127.419 251.673 127.61C251.673 127.783 251.616 127.918 251.504 128.013C251.4 128.117 251.278 128.169 251.14 128.169Z" fill="white"/>
<path d="M247.324 128V120.928C247.324 120.729 247.329 120.486 247.337 120.2C247.355 119.905 247.372 119.658 247.389 119.459H247.324C247.212 119.658 247.09 119.866 246.96 120.083C246.839 120.291 246.713 120.499 246.583 120.707L243.723 124.815H249.183V125.231H243.099V124.984L247.454 118.562H247.779V128H247.324Z" fill="white"/>
<path d="M237.321 128V127.571H239.492V119.446H237.841V119.108C238.205 119.047 238.53 118.969 238.816 118.874C239.102 118.779 239.345 118.675 239.544 118.562H239.947V127.571H241.975V128H237.321Z" fill="white"/>
<path d="M230.06 130.483L229.774 130.314C230.346 129.413 230.779 128.425 231.074 127.35C231.369 126.275 231.516 125.166 231.516 124.022C231.516 122.878 231.369 121.769 231.074 120.694C230.779 119.619 230.346 118.631 229.774 117.73L230.06 117.548C230.649 118.493 231.109 119.494 231.438 120.551C231.776 121.608 231.945 122.765 231.945 124.022C231.945 125.279 231.776 126.436 231.438 127.493C231.109 128.542 230.649 129.538 230.06 130.483Z" fill="white"/>
<path d="M219.531 118.094H227.032V118.484H219.531V118.094ZM218.153 122.423H228.566V122.813H218.153V122.423ZM226.668 118.094H227.084V118.874C227.084 119.351 227.067 119.897 227.032 120.512C226.997 121.119 226.876 121.847 226.668 122.696L226.265 122.605C226.464 121.782 226.581 121.071 226.616 120.473C226.651 119.866 226.668 119.333 226.668 118.874V118.094ZM219.492 124.75H227.214V128.689H219.492V124.75ZM226.798 125.127H219.908V128.299H226.798V125.127Z" fill="white"/>
<path d="M216.673 130.483C216.093 129.538 215.633 128.542 215.295 127.493C214.957 126.436 214.788 125.279 214.788 124.022C214.788 122.765 214.957 121.608 215.295 120.551C215.633 119.494 216.093 118.493 216.673 117.548L216.946 117.73C216.374 118.631 215.941 119.619 215.646 120.694C215.36 121.769 215.217 122.878 215.217 124.022C215.217 125.166 215.36 126.275 215.646 127.35C215.941 128.425 216.374 129.413 216.946 130.314L216.673 130.483Z" fill="white"/>
<path d="M202.664 117.899C203.227 117.899 203.721 118.003 204.146 118.211C204.579 118.419 204.917 118.709 205.16 119.082C205.403 119.446 205.524 119.875 205.524 120.369C205.524 120.854 205.403 121.283 205.16 121.656C204.917 122.029 204.579 122.319 204.146 122.527C203.721 122.726 203.227 122.826 202.664 122.826C202.109 122.826 201.615 122.726 201.182 122.527C200.757 122.319 200.419 122.029 200.168 121.656C199.925 121.283 199.804 120.854 199.804 120.369C199.804 119.875 199.925 119.446 200.168 119.082C200.419 118.709 200.757 118.419 201.182 118.211C201.615 118.003 202.109 117.899 202.664 117.899ZM202.664 118.276C202.196 118.276 201.78 118.371 201.416 118.562C201.052 118.744 200.761 118.995 200.545 119.316C200.337 119.628 200.233 119.979 200.233 120.369C200.233 120.759 200.337 121.11 200.545 121.422C200.761 121.734 201.052 121.985 201.416 122.176C201.78 122.358 202.196 122.449 202.664 122.449C203.132 122.449 203.548 122.358 203.912 122.176C204.285 121.985 204.575 121.734 204.783 121.422C205 121.11 205.108 120.759 205.108 120.369C205.108 119.979 205 119.628 204.783 119.316C204.575 118.995 204.285 118.744 203.912 118.562C203.548 118.371 203.132 118.276 202.664 118.276ZM208.293 117.392H208.722V123.411H208.293V117.392ZM201.546 124.074H208.722V126.479H201.988V128.559H201.585V126.115H208.306V124.464H201.546V124.074ZM201.585 128.299H209.216V128.689H201.585V128.299Z" fill="white"/>
<path d="M195.638 128.169C195.178 128.169 194.767 128.069 194.403 127.87C194.047 127.662 193.744 127.363 193.493 126.973C193.241 126.574 193.046 126.093 192.908 125.53C192.778 124.967 192.713 124.321 192.713 123.593C192.713 122.622 192.799 121.803 192.973 121.136C193.155 120.469 193.402 119.936 193.714 119.537C194.026 119.13 194.381 118.839 194.78 118.666C195.178 118.484 195.594 118.393 196.028 118.393C196.435 118.393 196.786 118.471 197.081 118.627C197.384 118.783 197.653 118.991 197.887 119.251L197.575 119.576C197.375 119.325 197.141 119.138 196.873 119.017C196.604 118.887 196.318 118.822 196.015 118.822C195.512 118.822 195.044 118.974 194.611 119.277C194.186 119.572 193.844 120.07 193.584 120.772C193.324 121.465 193.194 122.406 193.194 123.593C193.194 124.39 193.28 125.101 193.454 125.725C193.627 126.349 193.896 126.843 194.26 127.207C194.624 127.562 195.092 127.74 195.664 127.74C196.036 127.74 196.366 127.627 196.652 127.402C196.938 127.168 197.163 126.86 197.328 126.479C197.501 126.089 197.588 125.66 197.588 125.192C197.588 124.707 197.518 124.273 197.38 123.892C197.241 123.502 197.02 123.194 196.717 122.969C196.413 122.744 196.015 122.631 195.521 122.631C195.174 122.631 194.788 122.748 194.364 122.982C193.939 123.216 193.527 123.61 193.129 124.165V123.58C193.354 123.303 193.592 123.064 193.844 122.865C194.104 122.657 194.377 122.501 194.663 122.397C194.957 122.284 195.252 122.228 195.547 122.228C196.084 122.228 196.539 122.341 196.912 122.566C197.293 122.791 197.583 123.125 197.783 123.567C197.982 124 198.082 124.542 198.082 125.192C198.082 125.764 197.969 126.275 197.744 126.726C197.518 127.168 197.219 127.519 196.847 127.779C196.483 128.039 196.08 128.169 195.638 128.169Z" fill="white"/>
<path d="M186.362 128V127.571H188.533V119.446H186.882V119.108C187.246 119.047 187.571 118.969 187.857 118.874C188.143 118.779 188.386 118.675 188.585 118.562H188.988V127.571H191.016V128H186.362Z" fill="white"/>
<path d="M174.485 122.228H174.901V124.334H174.485V122.228ZM179.763 117.405H180.192V124.269H179.763V117.405ZM171.079 122.423L171.001 122.02C171.737 122.02 172.535 122.011 173.393 121.994C174.251 121.977 175.126 121.946 176.019 121.903C176.911 121.851 177.774 121.773 178.606 121.669L178.645 122.007C177.804 122.128 176.937 122.219 176.045 122.28C175.152 122.341 174.281 122.38 173.432 122.397C172.582 122.414 171.798 122.423 171.079 122.423ZM172.86 124.763H180.192V126.83H173.302V128.533H172.899V126.466H179.776V125.14H172.86V124.763ZM172.899 128.299H180.699V128.689H172.899V128.299ZM177.215 123.008H179.919V123.385H177.215V123.008ZM174.771 117.678C175.334 117.678 175.824 117.747 176.24 117.886C176.656 118.016 176.976 118.211 177.202 118.471C177.436 118.731 177.553 119.043 177.553 119.407C177.553 119.762 177.436 120.07 177.202 120.33C176.976 120.59 176.656 120.789 176.24 120.928C175.824 121.058 175.334 121.123 174.771 121.123C174.207 121.123 173.713 121.058 173.289 120.928C172.873 120.789 172.552 120.59 172.327 120.33C172.101 120.07 171.989 119.762 171.989 119.407C171.989 119.043 172.101 118.731 172.327 118.471C172.552 118.211 172.873 118.016 173.289 117.886C173.713 117.747 174.207 117.678 174.771 117.678ZM174.771 118.042C174.06 118.042 173.484 118.168 173.042 118.419C172.608 118.67 172.392 119 172.392 119.407C172.392 119.806 172.608 120.135 173.042 120.395C173.484 120.646 174.06 120.772 174.771 120.772C175.481 120.772 176.053 120.646 176.487 120.395C176.92 120.135 177.137 119.806 177.137 119.407C177.137 119 176.92 118.67 176.487 118.419C176.053 118.168 175.481 118.042 174.771 118.042Z" fill="white"/>
<path d="M166.743 128.169C166.258 128.169 165.838 128.108 165.482 127.987C165.136 127.857 164.832 127.701 164.572 127.519C164.321 127.328 164.1 127.138 163.909 126.947L164.208 126.596C164.39 126.787 164.594 126.969 164.819 127.142C165.053 127.315 165.326 127.458 165.638 127.571C165.959 127.684 166.336 127.74 166.769 127.74C167.185 127.74 167.571 127.627 167.926 127.402C168.29 127.177 168.581 126.86 168.797 126.453C169.014 126.037 169.122 125.56 169.122 125.023C169.122 124.217 168.91 123.58 168.485 123.112C168.069 122.644 167.506 122.41 166.795 122.41C166.449 122.41 166.141 122.471 165.872 122.592C165.604 122.705 165.335 122.852 165.066 123.034L164.676 122.8L165.014 118.562H169.135V118.991H165.443L165.131 122.462C165.374 122.315 165.63 122.198 165.898 122.111C166.176 122.016 166.488 121.968 166.834 121.968C167.354 121.968 167.822 122.076 168.238 122.293C168.663 122.501 168.997 122.83 169.239 123.281C169.491 123.723 169.616 124.295 169.616 124.997C169.616 125.673 169.473 126.249 169.187 126.726C168.91 127.194 168.55 127.554 168.108 127.805C167.675 128.048 167.22 128.169 166.743 128.169Z" fill="white"/>
<path d="M158.577 124.139C158.308 124.139 158.057 124.074 157.823 123.944C157.597 123.814 157.381 123.662 157.173 123.489C156.965 123.316 156.761 123.164 156.562 123.034C156.371 122.904 156.172 122.839 155.964 122.839C155.747 122.839 155.543 122.904 155.353 123.034C155.171 123.164 154.993 123.402 154.82 123.749L154.495 123.567C154.685 123.177 154.915 122.887 155.184 122.696C155.461 122.505 155.734 122.41 156.003 122.41C156.271 122.41 156.518 122.479 156.744 122.618C156.978 122.748 157.194 122.9 157.394 123.073C157.602 123.238 157.801 123.389 157.992 123.528C158.191 123.658 158.395 123.723 158.603 123.723C158.819 123.723 159.019 123.658 159.201 123.528C159.391 123.398 159.573 123.16 159.747 122.813L160.072 123.021C159.881 123.394 159.651 123.675 159.383 123.866C159.114 124.048 158.845 124.139 158.577 124.139Z" fill="white"/>
<path d="M147.654 128.169C147.099 128.169 146.618 127.991 146.211 127.636C145.812 127.281 145.505 126.739 145.288 126.011C145.08 125.283 144.976 124.364 144.976 123.255C144.976 122.154 145.08 121.249 145.288 120.538C145.505 119.819 145.812 119.281 146.211 118.926C146.618 118.571 147.099 118.393 147.654 118.393C148.209 118.393 148.681 118.571 149.071 118.926C149.47 119.281 149.777 119.819 149.994 120.538C150.211 121.249 150.319 122.154 150.319 123.255C150.319 124.364 150.211 125.283 149.994 126.011C149.777 126.739 149.47 127.281 149.071 127.636C148.681 127.991 148.209 128.169 147.654 128.169ZM147.654 127.74C148.096 127.74 148.482 127.567 148.811 127.22C149.14 126.873 149.392 126.366 149.565 125.699C149.747 125.032 149.838 124.217 149.838 123.255C149.838 122.302 149.747 121.496 149.565 120.837C149.392 120.17 149.14 119.667 148.811 119.329C148.482 118.982 148.096 118.809 147.654 118.809C147.212 118.809 146.826 118.982 146.497 119.329C146.168 119.667 145.912 120.17 145.73 120.837C145.548 121.496 145.457 122.302 145.457 123.255C145.457 124.217 145.548 125.032 145.73 125.699C145.912 126.366 146.168 126.873 146.497 127.22C146.826 127.567 147.212 127.74 147.654 127.74Z" fill="white"/>
<path d="M140.875 128.169C140.32 128.169 139.839 127.991 139.432 127.636C139.033 127.281 138.725 126.739 138.509 126.011C138.301 125.283 138.197 124.364 138.197 123.255C138.197 122.154 138.301 121.249 138.509 120.538C138.725 119.819 139.033 119.281 139.432 118.926C139.839 118.571 140.32 118.393 140.875 118.393C141.429 118.393 141.902 118.571 142.292 118.926C142.69 119.281 142.998 119.819 143.215 120.538C143.431 121.249 143.54 122.154 143.54 123.255C143.54 124.364 143.431 125.283 143.215 126.011C142.998 126.739 142.69 127.281 142.292 127.636C141.902 127.991 141.429 128.169 140.875 128.169ZM140.875 127.74C141.317 127.74 141.702 127.567 142.032 127.22C142.361 126.873 142.612 126.366 142.786 125.699C142.968 125.032 143.059 124.217 143.059 123.255C143.059 122.302 142.968 121.496 142.786 120.837C142.612 120.17 142.361 119.667 142.032 119.329C141.702 118.982 141.317 118.809 140.875 118.809C140.433 118.809 140.047 118.982 139.718 119.329C139.388 119.667 139.133 120.17 138.951 120.837C138.769 121.496 138.678 122.302 138.678 123.255C138.678 124.217 138.769 125.032 138.951 125.699C139.133 126.366 139.388 126.873 139.718 127.22C140.047 127.567 140.433 127.74 140.875 127.74Z" fill="white"/>
<path d="M135.968 122.605C135.838 122.605 135.717 122.557 135.604 122.462C135.5 122.367 135.448 122.228 135.448 122.046C135.448 121.855 135.5 121.712 135.604 121.617C135.717 121.513 135.838 121.461 135.968 121.461C136.107 121.461 136.228 121.513 136.332 121.617C136.445 121.712 136.501 121.855 136.501 122.046C136.501 122.228 136.445 122.367 136.332 122.462C136.228 122.557 136.107 122.605 135.968 122.605ZM135.968 128.169C135.838 128.169 135.717 128.117 135.604 128.013C135.5 127.918 135.448 127.783 135.448 127.61C135.448 127.419 135.5 127.276 135.604 127.181C135.717 127.077 135.838 127.025 135.968 127.025C136.107 127.025 136.228 127.077 136.332 127.181C136.445 127.276 136.501 127.419 136.501 127.61C136.501 127.783 136.445 127.918 136.332 128.013C136.228 128.117 136.107 128.169 135.968 128.169Z" fill="white"/>
<path d="M128.292 128V127.701C129.41 126.739 130.302 125.868 130.97 125.088C131.637 124.308 132.118 123.589 132.413 122.93C132.707 122.263 132.855 121.634 132.855 121.045C132.855 120.638 132.781 120.265 132.634 119.927C132.495 119.589 132.274 119.32 131.971 119.121C131.667 118.922 131.273 118.822 130.788 118.822C130.363 118.822 129.96 118.935 129.579 119.16C129.206 119.385 128.877 119.676 128.591 120.031L128.266 119.732C128.595 119.359 128.963 119.043 129.371 118.783C129.787 118.523 130.272 118.393 130.827 118.393C131.364 118.393 131.819 118.506 132.192 118.731C132.564 118.948 132.85 119.255 133.05 119.654C133.249 120.044 133.349 120.508 133.349 121.045C133.349 121.73 133.18 122.419 132.842 123.112C132.512 123.805 132.027 124.525 131.386 125.27C130.753 126.007 129.982 126.795 129.072 127.636C129.332 127.619 129.592 127.606 129.852 127.597C130.112 127.58 130.367 127.571 130.619 127.571H133.817V128H128.292Z" fill="white"/>
<path d="M122.149 128V127.571H124.32V119.446H122.669V119.108C123.033 119.047 123.358 118.969 123.644 118.874C123.93 118.779 124.173 118.675 124.372 118.562H124.775V127.571H126.803V128H122.149Z" fill="white"/>
<path d="M114.888 130.483L114.602 130.314C115.174 129.413 115.607 128.425 115.902 127.35C116.197 126.275 116.344 125.166 116.344 124.022C116.344 122.878 116.197 121.769 115.902 120.694C115.607 119.619 115.174 118.631 114.602 117.73L114.888 117.548C115.477 118.493 115.937 119.494 116.266 120.551C116.604 121.608 116.773 122.765 116.773 124.022C116.773 125.279 116.604 126.436 116.266 127.493C115.937 128.542 115.477 129.538 114.888 130.483Z" fill="white"/>
<path d="M106.387 122.228H106.803V124.334H106.387V122.228ZM111.665 117.405H112.094V124.269H111.665V117.405ZM102.981 122.423L102.903 122.02C103.64 122.02 104.437 122.011 105.295 121.994C106.153 121.977 107.028 121.946 107.921 121.903C108.814 121.851 109.676 121.773 110.508 121.669L110.547 122.007C109.706 122.128 108.84 122.219 107.947 122.28C107.054 122.341 106.183 122.38 105.334 122.397C104.485 122.414 103.7 122.423 102.981 122.423ZM104.762 124.763H112.094V126.83H105.204V128.533H104.801V126.466H111.678V125.14H104.762V124.763ZM104.801 128.299H112.601V128.689H104.801V128.299ZM109.117 123.008H111.821V123.385H109.117V123.008ZM106.673 117.678C107.236 117.678 107.726 117.747 108.142 117.886C108.558 118.016 108.879 118.211 109.104 118.471C109.338 118.731 109.455 119.043 109.455 119.407C109.455 119.762 109.338 120.07 109.104 120.33C108.879 120.59 108.558 120.789 108.142 120.928C107.726 121.058 107.236 121.123 106.673 121.123C106.11 121.123 105.616 121.058 105.191 120.928C104.775 120.789 104.454 120.59 104.229 120.33C104.004 120.07 103.891 119.762 103.891 119.407C103.891 119.043 104.004 118.731 104.229 118.471C104.454 118.211 104.775 118.016 105.191 117.886C105.616 117.747 106.11 117.678 106.673 117.678ZM106.673 118.042C105.962 118.042 105.386 118.168 104.944 118.419C104.511 118.67 104.294 119 104.294 119.407C104.294 119.806 104.511 120.135 104.944 120.395C105.386 120.646 105.962 120.772 106.673 120.772C107.384 120.772 107.956 120.646 108.389 120.395C108.822 120.135 109.039 119.806 109.039 119.407C109.039 119 108.822 118.67 108.389 118.419C107.956 118.168 107.384 118.042 106.673 118.042Z" fill="white"/>
<path d="M101.501 130.483C100.921 129.538 100.461 128.542 100.123 127.493C99.7854 126.436 99.6164 125.279 99.6164 124.022C99.6164 122.765 99.7854 121.608 100.123 120.551C100.461 119.494 100.921 118.493 101.501 117.548L101.774 117.73C101.202 118.631 100.769 119.619 100.474 120.694C100.188 121.769 100.045 122.878 100.045 124.022C100.045 125.166 100.188 126.275 100.474 127.35C100.769 128.425 101.202 129.413 101.774 130.314L101.501 130.483Z" fill="white"/>
<path d="M87.492 117.899C88.0553 117.899 88.5493 118.003 88.974 118.211C89.4073 118.419 89.7453 118.709 89.988 119.082C90.2306 119.446 90.352 119.875 90.352 120.369C90.352 120.854 90.2306 121.283 89.988 121.656C89.7453 122.029 89.4073 122.319 88.974 122.527C88.5493 122.726 88.0553 122.826 87.492 122.826C86.9373 122.826 86.4433 122.726 86.01 122.527C85.5853 122.319 85.2473 122.029 84.996 121.656C84.7533 121.283 84.632 120.854 84.632 120.369C84.632 119.875 84.7533 119.446 84.996 119.082C85.2473 118.709 85.5853 118.419 86.01 118.211C86.4433 118.003 86.9373 117.899 87.492 117.899ZM87.492 118.276C87.024 118.276 86.608 118.371 86.244 118.562C85.88 118.744 85.5896 118.995 85.373 119.316C85.165 119.628 85.061 119.979 85.061 120.369C85.061 120.759 85.165 121.11 85.373 121.422C85.5896 121.734 85.88 121.985 86.244 122.176C86.608 122.358 87.024 122.449 87.492 122.449C87.96 122.449 88.376 122.358 88.74 122.176C89.1126 121.985 89.403 121.734 89.611 121.422C89.8276 121.11 89.936 120.759 89.936 120.369C89.936 119.979 89.8276 119.628 89.611 119.316C89.403 118.995 89.1126 118.744 88.74 118.562C88.376 118.371 87.96 118.276 87.492 118.276ZM93.121 117.392H93.55V123.411H93.121V117.392ZM86.374 124.074H93.55V126.479H86.816V128.559H86.413V126.115H93.134V124.464H86.374V124.074ZM86.413 128.299H94.044V128.689H86.413V128.299Z" fill="white"/>
<path d="M77.3326 128V127.701C78.4506 126.739 79.3433 125.868 80.0106 125.088C80.678 124.308 81.159 123.589 81.4536 122.93C81.7483 122.263 81.8956 121.634 81.8956 121.045C81.8956 120.638 81.822 120.265 81.6746 119.927C81.536 119.589 81.315 119.32 81.0116 119.121C80.7083 118.922 80.314 118.822 79.8286 118.822C79.404 118.822 79.001 118.935 78.6196 119.16C78.247 119.385 77.9176 119.676 77.6316 120.031L77.3066 119.732C77.636 119.359 78.0043 119.043 78.4116 118.783C78.8276 118.523 79.313 118.393 79.8676 118.393C80.405 118.393 80.86 118.506 81.2326 118.731C81.6053 118.948 81.8913 119.255 82.0906 119.654C82.29 120.044 82.3896 120.508 82.3896 121.045C82.3896 121.73 82.2206 122.419 81.8826 123.112C81.5533 123.805 81.068 124.525 80.4266 125.27C79.794 126.007 79.0226 126.795 78.1126 127.636C78.3726 127.619 78.6326 127.606 78.8926 127.597C79.1526 127.58 79.4083 127.571 79.6596 127.571H82.8576V128H77.3326Z" fill="white"/>
<path d="M71.1904 128V127.571H73.3614V119.446H71.7104V119.108C72.0744 119.047 72.3994 118.969 72.6854 118.874C72.9714 118.779 73.214 118.675 73.4134 118.562H73.8164V127.571H75.8444V128H71.1904Z" fill="white"/>
<path d="M59.3129 122.228H59.7289V124.334H59.3129V122.228ZM64.5909 117.405H65.0199V124.269H64.5909V117.405ZM55.9069 122.423L55.8289 122.02C56.5656 122.02 57.3629 122.011 58.2209 121.994C59.0789 121.977 59.9543 121.946 60.8469 121.903C61.7396 121.851 62.6019 121.773 63.4339 121.669L63.4729 122.007C62.6323 122.128 61.7656 122.219 60.8729 122.28C59.9803 122.341 59.1093 122.38 58.2599 122.397C57.4106 122.414 56.6263 122.423 55.9069 122.423ZM57.6879 124.763H65.0199V126.83H58.1299V128.533H57.7269V126.466H64.6039V125.14H57.6879V124.763ZM57.7269 128.299H65.5269V128.689H57.7269V128.299ZM62.0429 123.008H64.7469V123.385H62.0429V123.008ZM59.5989 117.678C60.1623 117.678 60.6519 117.747 61.0679 117.886C61.4839 118.016 61.8046 118.211 62.0299 118.471C62.2639 118.731 62.3809 119.043 62.3809 119.407C62.3809 119.762 62.2639 120.07 62.0299 120.33C61.8046 120.59 61.4839 120.789 61.0679 120.928C60.6519 121.058 60.1623 121.123 59.5989 121.123C59.0356 121.123 58.5416 121.058 58.1169 120.928C57.7009 120.789 57.3803 120.59 57.1549 120.33C56.9296 120.07 56.8169 119.762 56.8169 119.407C56.8169 119.043 56.9296 118.731 57.1549 118.471C57.3803 118.211 57.7009 118.016 58.1169 117.886C58.5416 117.747 59.0356 117.678 59.5989 117.678ZM59.5989 118.042C58.8883 118.042 58.3119 118.168 57.8699 118.419C57.4366 118.67 57.2199 119 57.2199 119.407C57.2199 119.806 57.4366 120.135 57.8699 120.395C58.3119 120.646 58.8883 120.772 59.5989 120.772C60.3096 120.772 60.8816 120.646 61.3149 120.395C61.7483 120.135 61.9649 119.806 61.9649 119.407C61.9649 119 61.7483 118.67 61.3149 118.419C60.8816 118.168 60.3096 118.042 59.5989 118.042Z" fill="white"/>
<path d="M51.5716 128.169C51.0863 128.169 50.6659 128.108 50.3106 127.987C49.9639 127.857 49.6606 127.701 49.4006 127.519C49.1493 127.328 48.9283 127.138 48.7376 126.947L49.0366 126.596C49.2186 126.787 49.4223 126.969 49.6476 127.142C49.8816 127.315 50.1546 127.458 50.4666 127.571C50.7873 127.684 51.1643 127.74 51.5976 127.74C52.0136 127.74 52.3993 127.627 52.7546 127.402C53.1186 127.177 53.4089 126.86 53.6256 126.453C53.8423 126.037 53.9506 125.56 53.9506 125.023C53.9506 124.217 53.7383 123.58 53.3136 123.112C52.8976 122.644 52.3343 122.41 51.6236 122.41C51.2769 122.41 50.9693 122.471 50.7006 122.592C50.4319 122.705 50.1633 122.852 49.8946 123.034L49.5046 122.8L49.8426 118.562H53.9636V118.991H50.2716L49.9596 122.462C50.2023 122.315 50.4579 122.198 50.7266 122.111C51.0039 122.016 51.3159 121.968 51.6626 121.968C52.1826 121.968 52.6506 122.076 53.0666 122.293C53.4913 122.501 53.8249 122.83 54.0676 123.281C54.3189 123.723 54.4446 124.295 54.4446 124.997C54.4446 125.673 54.3016 126.249 54.0156 126.726C53.7383 127.194 53.3786 127.554 52.9366 127.805C52.5033 128.048 52.0483 128.169 51.5716 128.169Z" fill="white"/>
<path d="M43.1522 117.405H43.5812V125.972H43.1522V117.405ZM39.4212 119.121H43.3732V119.511H39.4212V119.121ZM36.4962 128.169H43.9322V128.559H36.4962V128.169ZM36.4962 125.257H36.9122V128.26H36.4962V125.257ZM35.0272 118.341H35.4562V123.775H35.0272V118.341ZM35.0272 123.619H35.8332C36.6305 123.619 37.4452 123.589 38.2772 123.528C39.1092 123.459 40.0105 123.333 40.9812 123.151L41.0462 123.554C40.0495 123.736 39.1352 123.857 38.3032 123.918C37.4799 123.979 36.6565 124.009 35.8332 124.009H35.0272V123.619ZM39.4212 121.37H43.3732V121.76H39.4212V121.37Z" fill="white"/>
<path d="M29.9769 128.169C29.4915 128.169 29.0712 128.108 28.7159 127.987C28.3692 127.857 28.0659 127.701 27.8059 127.519C27.5546 127.328 27.3335 127.138 27.1429 126.947L27.4419 126.596C27.6239 126.787 27.8275 126.969 28.0529 127.142C28.2869 127.315 28.5599 127.458 28.8719 127.571C29.1926 127.684 29.5695 127.74 30.0029 127.74C30.4189 127.74 30.8046 127.627 31.1599 127.402C31.5239 127.177 31.8142 126.86 32.0309 126.453C32.2476 126.037 32.3559 125.56 32.3559 125.023C32.3559 124.217 32.1435 123.58 31.7189 123.112C31.3029 122.644 30.7395 122.41 30.0289 122.41C29.6822 122.41 29.3745 122.471 29.1059 122.592C28.8372 122.705 28.5685 122.852 28.2999 123.034L27.9099 122.8L28.2479 118.562H32.3689V118.991H28.6769L28.3649 122.462C28.6076 122.315 28.8632 122.198 29.1319 122.111C29.4092 122.016 29.7212 121.968 30.0679 121.968C30.5879 121.968 31.0559 122.076 31.4719 122.293C31.8965 122.501 32.2302 122.83 32.4729 123.281C32.7242 123.723 32.8499 124.295 32.8499 124.997C32.8499 125.673 32.7069 126.249 32.4209 126.726C32.1435 127.194 31.7839 127.554 31.3419 127.805C30.9085 128.048 30.4535 128.169 29.9769 128.169Z" fill="white"/>
<path d="M20.5846 128V127.701C21.7026 126.739 22.5953 125.868 23.2626 125.088C23.9299 124.308 24.4109 123.589 24.7056 122.93C25.0003 122.263 25.1476 121.634 25.1476 121.045C25.1476 120.638 25.0739 120.265 24.9266 119.927C24.7879 119.589 24.5669 119.32 24.2636 119.121C23.9603 118.922 23.5659 118.822 23.0806 118.822C22.6559 118.822 22.2529 118.935 21.8716 119.16C21.4989 119.385 21.1696 119.676 20.8836 120.031L20.5586 119.732C20.8879 119.359 21.2563 119.043 21.6636 118.783C22.0796 118.523 22.5649 118.393 23.1196 118.393C23.6569 118.393 24.1119 118.506 24.4846 118.731C24.8573 118.948 25.1433 119.255 25.3426 119.654C25.5419 120.044 25.6416 120.508 25.6416 121.045C25.6416 121.73 25.4726 122.419 25.1346 123.112C24.8053 123.805 24.3199 124.525 23.6786 125.27C23.0459 126.007 22.2746 126.795 21.3646 127.636C21.6246 127.619 21.8846 127.606 22.1446 127.597C22.4046 127.58 22.6603 127.571 22.9116 127.571H26.1096V128H20.5846Z" fill="white"/>
<path d="M16.6003 128.169C16.0456 128.169 15.5646 127.991 15.1573 127.636C14.7586 127.281 14.451 126.739 14.2343 126.011C14.0263 125.283 13.9223 124.364 13.9223 123.255C13.9223 122.154 14.0263 121.249 14.2343 120.538C14.451 119.819 14.7586 119.281 15.1573 118.926C15.5646 118.571 16.0456 118.393 16.6003 118.393C17.155 118.393 17.6273 118.571 18.0173 118.926C18.416 119.281 18.7236 119.819 18.9403 120.538C19.157 121.249 19.2653 122.154 19.2653 123.255C19.2653 124.364 19.157 125.283 18.9403 126.011C18.7236 126.739 18.416 127.281 18.0173 127.636C17.6273 127.991 17.155 128.169 16.6003 128.169ZM16.6003 127.74C17.0423 127.74 17.428 127.567 17.7573 127.22C18.0866 126.873 18.338 126.366 18.5113 125.699C18.6933 125.032 18.7843 124.217 18.7843 123.255C18.7843 122.302 18.6933 121.496 18.5113 120.837C18.338 120.17 18.0866 119.667 17.7573 119.329C17.428 118.982 17.0423 118.809 16.6003 118.809C16.1583 118.809 15.7726 118.982 15.4433 119.329C15.114 119.667 14.8583 120.17 14.6763 120.837C14.4943 121.496 14.4033 122.302 14.4033 123.255C14.4033 124.217 14.4943 125.032 14.6763 125.699C14.8583 126.366 15.114 126.873 15.4433 127.22C15.7726 127.567 16.1583 127.74 16.6003 127.74Z" fill="white"/>
<path d="M7.026 128V127.701C8.144 126.739 9.03667 125.868 9.704 125.088C10.3713 124.308 10.8523 123.589 11.147 122.93C11.4417 122.263 11.589 121.634 11.589 121.045C11.589 120.638 11.5153 120.265 11.368 119.927C11.2293 119.589 11.0083 119.32 10.705 119.121C10.4017 118.922 10.0073 118.822 9.522 118.822C9.09733 118.822 8.69433 118.935 8.313 119.16C7.94033 119.385 7.611 119.676 7.325 120.031L7 119.732C7.32933 119.359 7.69767 119.043 8.105 118.783C8.521 118.523 9.00633 118.393 9.561 118.393C10.0983 118.393 10.5533 118.506 10.926 118.731C11.2987 118.948 11.5847 119.255 11.784 119.654C11.9833 120.044 12.083 120.508 12.083 121.045C12.083 121.73 11.914 122.419 11.576 123.112C11.2467 123.805 10.7613 124.525 10.12 125.27C9.48733 126.007 8.716 126.795 7.806 127.636C8.066 127.619 8.326 127.606 8.586 127.597C8.846 127.58 9.10167 127.571 9.353 127.571H12.551V128H7.026Z" fill="white"/>
<path d="M129.335 204.169C128.78 204.169 128.299 203.991 127.892 203.636C127.493 203.281 127.185 202.739 126.969 202.011C126.761 201.283 126.657 200.364 126.657 199.255C126.657 198.154 126.761 197.249 126.969 196.538C127.185 195.819 127.493 195.281 127.892 194.926C128.299 194.571 128.78 194.393 129.335 194.393C129.889 194.393 130.362 194.571 130.752 194.926C131.15 195.281 131.458 195.819 131.675 196.538C131.891 197.249 132 198.154 132 199.255C132 200.364 131.891 201.283 131.675 202.011C131.458 202.739 131.15 203.281 130.752 203.636C130.362 203.991 129.889 204.169 129.335 204.169ZM129.335 203.74C129.777 203.74 130.162 203.567 130.492 203.22C130.821 202.873 131.072 202.366 131.246 201.699C131.428 201.032 131.519 200.217 131.519 199.255C131.519 198.302 131.428 197.496 131.246 196.837C131.072 196.17 130.821 195.667 130.492 195.329C130.162 194.982 129.777 194.809 129.335 194.809C128.893 194.809 128.507 194.982 128.178 195.329C127.848 195.667 127.593 196.17 127.411 196.837C127.229 197.496 127.138 198.302 127.138 199.255C127.138 200.217 127.229 201.032 127.411 201.699C127.593 202.366 127.848 202.873 128.178 203.22C128.507 203.567 128.893 203.74 129.335 203.74Z" fill="white"/>
<path d="M122.555 204.169C122.001 204.169 121.52 203.991 121.112 203.636C120.714 203.281 120.406 202.739 120.189 202.011C119.981 201.283 119.877 200.364 119.877 199.255C119.877 198.154 119.981 197.249 120.189 196.538C120.406 195.819 120.714 195.281 121.112 194.926C121.52 194.571 122.001 194.393 122.555 194.393C123.11 194.393 123.582 194.571 123.972 194.926C124.371 195.281 124.679 195.819 124.895 196.538C125.112 197.249 125.22 198.154 125.22 199.255C125.22 200.364 125.112 201.283 124.895 202.011C124.679 202.739 124.371 203.281 123.972 203.636C123.582 203.991 123.11 204.169 122.555 204.169ZM122.555 203.74C122.997 203.74 123.383 203.567 123.712 203.22C124.042 202.873 124.293 202.366 124.466 201.699C124.648 201.032 124.739 200.217 124.739 199.255C124.739 198.302 124.648 197.496 124.466 196.837C124.293 196.17 124.042 195.667 123.712 195.329C123.383 194.982 122.997 194.809 122.555 194.809C122.113 194.809 121.728 194.982 121.398 195.329C121.069 195.667 120.813 196.17 120.631 196.837C120.449 197.496 120.358 198.302 120.358 199.255C120.358 200.217 120.449 201.032 120.631 201.699C120.813 202.366 121.069 202.873 121.398 203.22C121.728 203.567 122.113 203.74 122.555 203.74Z" fill="white"/>
<path d="M117.649 198.605C117.519 198.605 117.397 198.557 117.285 198.462C117.181 198.367 117.129 198.228 117.129 198.046C117.129 197.855 117.181 197.712 117.285 197.617C117.397 197.513 117.519 197.461 117.649 197.461C117.787 197.461 117.909 197.513 118.013 197.617C118.125 197.712 118.182 197.855 118.182 198.046C118.182 198.228 118.125 198.367 118.013 198.462C117.909 198.557 117.787 198.605 117.649 198.605ZM117.649 204.169C117.519 204.169 117.397 204.117 117.285 204.013C117.181 203.918 117.129 203.783 117.129 203.61C117.129 203.419 117.181 203.276 117.285 203.181C117.397 203.077 117.519 203.025 117.649 203.025C117.787 203.025 117.909 203.077 118.013 203.181C118.125 203.276 118.182 203.419 118.182 203.61C118.182 203.783 118.125 203.918 118.013 204.013C117.909 204.117 117.787 204.169 117.649 204.169Z" fill="white"/>
<path d="M113.105 204.169C112.646 204.169 112.234 204.069 111.87 203.87C111.515 203.662 111.212 203.363 110.96 202.973C110.709 202.574 110.514 202.093 110.375 201.53C110.245 200.967 110.18 200.321 110.18 199.593C110.18 198.622 110.267 197.803 110.44 197.136C110.622 196.469 110.869 195.936 111.181 195.537C111.493 195.13 111.849 194.839 112.247 194.666C112.646 194.484 113.062 194.393 113.495 194.393C113.903 194.393 114.254 194.471 114.548 194.627C114.852 194.783 115.12 194.991 115.354 195.251L115.042 195.576C114.843 195.325 114.609 195.138 114.34 195.017C114.072 194.887 113.786 194.822 113.482 194.822C112.98 194.822 112.512 194.974 112.078 195.277C111.654 195.572 111.311 196.07 111.051 196.772C110.791 197.465 110.661 198.406 110.661 199.593C110.661 200.39 110.748 201.101 110.921 201.725C111.095 202.349 111.363 202.843 111.727 203.207C112.091 203.562 112.559 203.74 113.131 203.74C113.504 203.74 113.833 203.627 114.119 203.402C114.405 203.168 114.631 202.86 114.795 202.479C114.969 202.089 115.055 201.66 115.055 201.192C115.055 200.707 114.986 200.273 114.847 199.892C114.709 199.502 114.488 199.194 114.184 198.969C113.881 198.744 113.482 198.631 112.988 198.631C112.642 198.631 112.256 198.748 111.831 198.982C111.407 199.216 110.995 199.61 110.596 200.165V199.58C110.822 199.303 111.06 199.064 111.311 198.865C111.571 198.657 111.844 198.501 112.13 198.397C112.425 198.284 112.72 198.228 113.014 198.228C113.552 198.228 114.007 198.341 114.379 198.566C114.761 198.791 115.051 199.125 115.25 199.567C115.45 200 115.549 200.542 115.549 201.192C115.549 201.764 115.437 202.275 115.211 202.726C114.986 203.168 114.687 203.519 114.314 203.779C113.95 204.039 113.547 204.169 113.105 204.169Z" fill="white"/>
<path d="M105.988 204.169C105.433 204.169 104.952 203.991 104.545 203.636C104.146 203.281 103.839 202.739 103.622 202.011C103.414 201.283 103.31 200.364 103.31 199.255C103.31 198.154 103.414 197.249 103.622 196.538C103.839 195.819 104.146 195.281 104.545 194.926C104.952 194.571 105.433 194.393 105.988 194.393C106.543 194.393 107.015 194.571 107.405 194.926C107.804 195.281 108.111 195.819 108.328 196.538C108.545 197.249 108.653 198.154 108.653 199.255C108.653 200.364 108.545 201.283 108.328 202.011C108.111 202.739 107.804 203.281 107.405 203.636C107.015 203.991 106.543 204.169 105.988 204.169ZM105.988 203.74C106.43 203.74 106.816 203.567 107.145 203.22C107.474 202.873 107.726 202.366 107.899 201.699C108.081 201.032 108.172 200.217 108.172 199.255C108.172 198.302 108.081 197.496 107.899 196.837C107.726 196.17 107.474 195.667 107.145 195.329C106.816 194.982 106.43 194.809 105.988 194.809C105.546 194.809 105.16 194.982 104.831 195.329C104.502 195.667 104.246 196.17 104.064 196.837C103.882 197.496 103.791 198.302 103.791 199.255C103.791 200.217 103.882 201.032 104.064 201.699C104.246 202.366 104.502 202.873 104.831 203.22C105.16 203.567 105.546 203.74 105.988 203.74Z" fill="white"/>
<path d="M89.1446 194.822H98.2446V195.212H89.1446V194.822ZM88.5466 200.854H98.9596V201.231H88.5466V200.854ZM93.5126 201.062H93.9286V204.884H93.5126V201.062ZM93.7206 196.096C94.8212 196.096 95.6792 196.261 96.2946 196.59C96.9186 196.911 97.2306 197.366 97.2306 197.955C97.2306 198.536 96.9186 198.991 96.2946 199.32C95.6792 199.641 94.8212 199.801 93.7206 199.801C92.6199 199.801 91.7576 199.641 91.1336 199.32C90.5182 198.991 90.2106 198.536 90.2106 197.955C90.2106 197.366 90.5182 196.911 91.1336 196.59C91.7576 196.261 92.6199 196.096 93.7206 196.096ZM93.7206 196.46C92.7932 196.46 92.0479 196.594 91.4846 196.863C90.9299 197.132 90.6526 197.496 90.6526 197.955C90.6526 198.406 90.9299 198.765 91.4846 199.034C92.0479 199.303 92.7932 199.437 93.7206 199.437C94.6479 199.437 95.3889 199.303 95.9436 199.034C96.5069 198.765 96.7886 198.406 96.7886 197.955C96.7886 197.496 96.5069 197.132 95.9436 196.863C95.3889 196.594 94.6479 196.46 93.7206 196.46ZM93.5126 193.275H93.9286V195.082H93.5126V193.275Z" fill="white"/>
<path d="M81.5536 199.905H81.9696V203.012H81.5536V199.905ZM81.7616 194.315C82.5589 194.315 83.2609 194.432 83.8676 194.666C84.4743 194.9 84.9466 195.229 85.2846 195.654C85.6313 196.079 85.8046 196.581 85.8046 197.162C85.8046 197.734 85.6313 198.232 85.2846 198.657C84.9466 199.082 84.4743 199.411 83.8676 199.645C83.2609 199.879 82.5589 199.996 81.7616 199.996C80.9729 199.996 80.2709 199.879 79.6556 199.645C79.0489 199.411 78.5723 199.082 78.2256 198.657C77.8876 198.232 77.7186 197.734 77.7186 197.162C77.7186 196.581 77.8876 196.079 78.2256 195.654C78.5723 195.229 79.0489 194.9 79.6556 194.666C80.2709 194.432 80.9729 194.315 81.7616 194.315ZM81.7616 194.679C81.0683 194.679 80.4443 194.787 79.8896 195.004C79.3349 195.212 78.8973 195.502 78.5766 195.875C78.2559 196.248 78.0956 196.677 78.0956 197.162C78.0956 197.639 78.2559 198.068 78.5766 198.449C78.8973 198.822 79.3349 199.116 79.8896 199.333C80.4443 199.541 81.0683 199.645 81.7616 199.645C82.4549 199.645 83.0789 199.541 83.6336 199.333C84.1883 199.116 84.6259 198.822 84.9466 198.449C85.2673 198.068 85.4276 197.639 85.4276 197.162C85.4276 196.677 85.2673 196.248 84.9466 195.875C84.6259 195.502 84.1883 195.212 83.6336 195.004C83.0789 194.787 82.4549 194.679 81.7616 194.679ZM76.5876 202.869H87.0006V203.259H76.5876V202.869Z" fill="white"/>
<path d="M70.8648 200.139C70.5962 200.139 70.3448 200.074 70.1108 199.944C69.8855 199.814 69.6688 199.662 69.4608 199.489C69.2528 199.316 69.0492 199.164 68.8498 199.034C68.6592 198.904 68.4598 198.839 68.2518 198.839C68.0352 198.839 67.8315 198.904 67.6408 199.034C67.4588 199.164 67.2812 199.402 67.1078 199.749L66.7828 199.567C66.9735 199.177 67.2032 198.887 67.4718 198.696C67.7492 198.505 68.0222 198.41 68.2908 198.41C68.5595 198.41 68.8065 198.479 69.0318 198.618C69.2658 198.748 69.4825 198.9 69.6818 199.073C69.8898 199.238 70.0892 199.389 70.2798 199.528C70.4792 199.658 70.6828 199.723 70.8908 199.723C71.1075 199.723 71.3068 199.658 71.4888 199.528C71.6795 199.398 71.8615 199.16 72.0348 198.813L72.3598 199.021C72.1692 199.394 71.9395 199.675 71.6708 199.866C71.4022 200.048 71.1335 200.139 70.8648 200.139Z" fill="white"/>
<path d="M59.9421 204.169C59.3874 204.169 58.9064 203.991 58.4991 203.636C58.1004 203.281 57.7928 202.739 57.5761 202.011C57.3681 201.283 57.2641 200.364 57.2641 199.255C57.2641 198.154 57.3681 197.249 57.5761 196.538C57.7928 195.819 58.1004 195.281 58.4991 194.926C58.9064 194.571 59.3874 194.393 59.9421 194.393C60.4968 194.393 60.9691 194.571 61.3591 194.926C61.7578 195.281 62.0654 195.819 62.2821 196.538C62.4988 197.249 62.6071 198.154 62.6071 199.255C62.6071 200.364 62.4988 201.283 62.2821 202.011C62.0654 202.739 61.7578 203.281 61.3591 203.636C60.9691 203.991 60.4968 204.169 59.9421 204.169ZM59.9421 203.74C60.3841 203.74 60.7698 203.567 61.0991 203.22C61.4284 202.873 61.6798 202.366 61.8531 201.699C62.0351 201.032 62.1261 200.217 62.1261 199.255C62.1261 198.302 62.0351 197.496 61.8531 196.837C61.6798 196.17 61.4284 195.667 61.0991 195.329C60.7698 194.982 60.3841 194.809 59.9421 194.809C59.5001 194.809 59.1144 194.982 58.7851 195.329C58.4558 195.667 58.2001 196.17 58.0181 196.837C57.8361 197.496 57.7451 198.302 57.7451 199.255C57.7451 200.217 57.8361 201.032 58.0181 201.699C58.2001 202.366 58.4558 202.873 58.7851 203.22C59.1144 203.567 59.5001 203.74 59.9421 203.74Z" fill="white"/>
<path d="M53.1628 204.169C52.6081 204.169 52.1271 203.991 51.7198 203.636C51.3211 203.281 51.0135 202.739 50.7968 202.011C50.5888 201.283 50.4848 200.364 50.4848 199.255C50.4848 198.154 50.5888 197.249 50.7968 196.538C51.0135 195.819 51.3211 195.281 51.7198 194.926C52.1271 194.571 52.6081 194.393 53.1628 194.393C53.7175 194.393 54.1898 194.571 54.5798 194.926C54.9785 195.281 55.2861 195.819 55.5028 196.538C55.7195 197.249 55.8278 198.154 55.8278 199.255C55.8278 200.364 55.7195 201.283 55.5028 202.011C55.2861 202.739 54.9785 203.281 54.5798 203.636C54.1898 203.991 53.7175 204.169 53.1628 204.169ZM53.1628 203.74C53.6048 203.74 53.9905 203.567 54.3198 203.22C54.6491 202.873 54.9005 202.366 55.0738 201.699C55.2558 201.032 55.3468 200.217 55.3468 199.255C55.3468 198.302 55.2558 197.496 55.0738 196.837C54.9005 196.17 54.6491 195.667 54.3198 195.329C53.9905 194.982 53.6048 194.809 53.1628 194.809C52.7208 194.809 52.3351 194.982 52.0058 195.329C51.6765 195.667 51.4208 196.17 51.2388 196.837C51.0568 197.496 50.9658 198.302 50.9658 199.255C50.9658 200.217 51.0568 201.032 51.2388 201.699C51.4208 202.366 51.6765 202.873 52.0058 203.22C52.3351 203.567 52.7208 203.74 53.1628 203.74Z" fill="white"/>
<path d="M48.256 198.605C48.126 198.605 48.0047 198.557 47.892 198.462C47.788 198.367 47.736 198.228 47.736 198.046C47.736 197.855 47.788 197.712 47.892 197.617C48.0047 197.513 48.126 197.461 48.256 197.461C48.3947 197.461 48.516 197.513 48.62 197.617C48.7327 197.712 48.789 197.855 48.789 198.046C48.789 198.228 48.7327 198.367 48.62 198.462C48.516 198.557 48.3947 198.605 48.256 198.605ZM48.256 204.169C48.126 204.169 48.0047 204.117 47.892 204.013C47.788 203.918 47.736 203.783 47.736 203.61C47.736 203.419 47.788 203.276 47.892 203.181C48.0047 203.077 48.126 203.025 48.256 203.025C48.3947 203.025 48.516 203.077 48.62 203.181C48.7327 203.276 48.789 203.419 48.789 203.61C48.789 203.783 48.7327 203.918 48.62 204.013C48.516 204.117 48.3947 204.169 48.256 204.169Z" fill="white"/>
<path d="M42.7637 204.169C42.3304 204.169 41.9577 204.091 41.6457 203.935C41.3337 203.779 41.0564 203.571 40.8137 203.311L41.1127 202.973C41.338 203.233 41.5937 203.428 41.8797 203.558C42.1657 203.679 42.4734 203.74 42.8027 203.74C43.158 203.74 43.496 203.653 43.8167 203.48C44.146 203.307 44.4364 203.025 44.6877 202.635C44.939 202.236 45.1384 201.716 45.2857 201.075C45.433 200.425 45.5067 199.628 45.5067 198.683C45.5067 197.938 45.42 197.275 45.2467 196.694C45.0734 196.105 44.8047 195.645 44.4407 195.316C44.0767 194.978 43.6044 194.809 43.0237 194.809C42.6597 194.809 42.3304 194.926 42.0357 195.16C41.7497 195.385 41.52 195.693 41.3467 196.083C41.182 196.464 41.0997 196.893 41.0997 197.37C41.0997 197.847 41.169 198.28 41.3077 198.67C41.4464 199.051 41.6674 199.359 41.9707 199.593C42.274 199.818 42.664 199.931 43.1407 199.931C43.5134 199.931 43.9077 199.81 44.3237 199.567C44.7397 199.324 45.147 198.93 45.5457 198.384L45.5587 198.982C45.342 199.242 45.1037 199.476 44.8437 199.684C44.5924 199.883 44.3194 200.044 44.0247 200.165C43.7387 200.278 43.431 200.334 43.1017 200.334C42.5817 200.334 42.1354 200.221 41.7627 199.996C41.39 199.762 41.104 199.424 40.9047 198.982C40.7054 198.54 40.6057 198.003 40.6057 197.37C40.6057 196.798 40.7184 196.287 40.9437 195.836C41.169 195.385 41.4637 195.034 41.8277 194.783C42.2004 194.523 42.6077 194.393 43.0497 194.393C43.509 194.393 43.9207 194.488 44.2847 194.679C44.6487 194.87 44.9564 195.151 45.2077 195.524C45.459 195.888 45.6497 196.334 45.7797 196.863C45.9184 197.392 45.9877 197.998 45.9877 198.683C45.9877 199.706 45.8967 200.568 45.7147 201.27C45.5414 201.972 45.303 202.535 44.9997 202.96C44.6964 203.385 44.3497 203.692 43.9597 203.883C43.5784 204.074 43.1797 204.169 42.7637 204.169Z" fill="white"/>
<path d="M36.5954 204.169C36.0408 204.169 35.5598 203.991 35.1524 203.636C34.7538 203.281 34.4461 202.739 34.2294 202.011C34.0214 201.283 33.9174 200.364 33.9174 199.255C33.9174 198.154 34.0214 197.249 34.2294 196.538C34.4461 195.819 34.7538 195.281 35.1524 194.926C35.5598 194.571 36.0408 194.393 36.5954 194.393C37.1501 194.393 37.6224 194.571 38.0124 194.926C38.4111 195.281 38.7188 195.819 38.9354 196.538C39.1521 197.249 39.2604 198.154 39.2604 199.255C39.2604 200.364 39.1521 201.283 38.9354 202.011C38.7188 202.739 38.4111 203.281 38.0124 203.636C37.6224 203.991 37.1501 204.169 36.5954 204.169ZM36.5954 203.74C37.0374 203.74 37.4231 203.567 37.7524 203.22C38.0818 202.873 38.3331 202.366 38.5064 201.699C38.6884 201.032 38.7794 200.217 38.7794 199.255C38.7794 198.302 38.6884 197.496 38.5064 196.837C38.3331 196.17 38.0818 195.667 37.7524 195.329C37.4231 194.982 37.0374 194.809 36.5954 194.809C36.1534 194.809 35.7678 194.982 35.4384 195.329C35.1091 195.667 34.8534 196.17 34.6714 196.837C34.4894 197.496 34.3984 198.302 34.3984 199.255C34.3984 200.217 34.4894 201.032 34.6714 201.699C34.8534 202.366 35.1091 202.873 35.4384 203.22C35.7678 203.567 36.1534 203.74 36.5954 203.74Z" fill="white"/>
<path d="M25.173 196.772H28.306V197.149H25.173V196.772ZM27.994 193.405H28.423V201.855H27.994V193.405ZM21.364 204.169H28.8V204.559H21.364V204.169ZM21.364 201.075H21.78V204.247H21.364V201.075ZM22.365 194.744H22.729V195.888C22.729 196.555 22.573 197.175 22.261 197.747C21.9577 198.31 21.5633 198.8 21.078 199.216C20.5927 199.632 20.0813 199.957 19.544 200.191L19.297 199.84C19.6783 199.693 20.0467 199.493 20.402 199.242C20.766 198.982 21.0953 198.679 21.39 198.332C21.6933 197.985 21.9317 197.604 22.105 197.188C22.2783 196.772 22.365 196.339 22.365 195.888V194.744ZM22.417 194.744H22.781V195.875C22.781 196.412 22.924 196.928 23.21 197.422C23.496 197.907 23.8643 198.332 24.315 198.696C24.7743 199.06 25.2553 199.337 25.758 199.528L25.511 199.879C24.9823 199.662 24.4797 199.359 24.003 198.969C23.535 198.57 23.1537 198.107 22.859 197.578C22.5643 197.049 22.417 196.482 22.417 195.875V194.744ZM19.505 194.497H25.589V194.887H19.505V194.497Z" fill="white"/>
<path d="M12.161 199.905H12.577V203.012H12.161V199.905ZM12.369 194.315C13.1663 194.315 13.8683 194.432 14.475 194.666C15.0817 194.9 15.554 195.229 15.892 195.654C16.2387 196.079 16.412 196.581 16.412 197.162C16.412 197.734 16.2387 198.232 15.892 198.657C15.554 199.082 15.0817 199.411 14.475 199.645C13.8683 199.879 13.1663 199.996 12.369 199.996C11.5803 199.996 10.8783 199.879 10.263 199.645C9.65634 199.411 9.17967 199.082 8.83301 198.657C8.49501 198.232 8.32601 197.734 8.32601 197.162C8.32601 196.581 8.49501 196.079 8.83301 195.654C9.17967 195.229 9.65634 194.9 10.263 194.666C10.8783 194.432 11.5803 194.315 12.369 194.315ZM12.369 194.679C11.6757 194.679 11.0517 194.787 10.497 195.004C9.94234 195.212 9.50467 195.502 9.18401 195.875C8.86334 196.248 8.70301 196.677 8.70301 197.162C8.70301 197.639 8.86334 198.068 9.18401 198.449C9.50467 198.822 9.94234 199.116 10.497 199.333C11.0517 199.541 11.6757 199.645 12.369 199.645C13.0623 199.645 13.6863 199.541 14.241 199.333C14.7957 199.116 15.2333 198.822 15.554 198.449C15.8747 198.068 16.035 197.639 16.035 197.162C16.035 196.677 15.8747 196.248 15.554 195.875C15.2333 195.502 14.7957 195.212 14.241 195.004C13.6863 194.787 13.0623 194.679 12.369 194.679ZM7.19501 202.869H17.608V203.259H7.19501V202.869Z" fill="white"/>
<path d="M249.574 269.327H250.25V280.936H249.574V269.327ZM241.54 277.478H242.463C243.096 277.478 243.72 277.469 244.335 277.452C244.951 277.426 245.583 277.383 246.233 277.322C246.883 277.253 247.572 277.162 248.3 277.049L248.378 277.634C247.26 277.807 246.233 277.924 245.297 277.985C244.37 278.046 243.425 278.076 242.463 278.076H241.54V277.478ZM241.514 270.471H246.792V274.41H242.229V277.712H241.54V273.812H246.103V271.069H241.514V270.471Z" fill="white"/>
<path d="M237.615 269.327H238.304V280.936H237.615V269.327ZM235.184 273.955H237.823V274.553H235.184V273.955ZM229.334 277.491H230.179C230.899 277.491 231.549 277.482 232.129 277.465C232.719 277.448 233.282 277.409 233.819 277.348C234.357 277.287 234.911 277.205 235.483 277.101L235.548 277.699C234.968 277.803 234.404 277.885 233.858 277.946C233.312 277.998 232.745 278.037 232.155 278.063C231.566 278.089 230.907 278.102 230.179 278.102H229.334V277.491ZM229.308 270.471H234.456V274.358H230.023V277.686H229.334V273.76H233.78V271.069H229.308V270.471Z" fill="white"/>
<path d="M225.955 269.34H226.618V275.359H225.955V269.34ZM223.849 272.122H226.241V272.72H223.849V272.122ZM223.42 269.561H224.096V275.281H223.42V269.561ZM221.275 270.055H221.977C221.977 270.913 221.8 271.702 221.444 272.421C221.089 273.14 220.573 273.773 219.897 274.319C219.221 274.865 218.407 275.32 217.453 275.684L217.115 275.164C217.999 274.835 218.749 274.432 219.364 273.955C219.98 273.47 220.452 272.915 220.781 272.291C221.111 271.667 221.275 270.991 221.275 270.263V270.055ZM217.531 270.055H221.574V270.653H217.531V270.055ZM219.117 275.944H226.618V278.531H219.832V280.403H219.156V277.959H225.955V276.516H219.117V275.944ZM219.156 280.169H227.112V280.754H219.156V280.169Z" fill="white"/>
<path d="M202.092 275.32H212.557V275.905H202.092V275.32ZM206.993 269.262H207.669V270.822H206.993V269.262ZM206.967 270.939H207.578V271.108C207.578 271.593 207.444 272.027 207.175 272.408C206.907 272.789 206.551 273.119 206.109 273.396C205.667 273.665 205.178 273.881 204.64 274.046C204.103 274.211 203.57 274.328 203.041 274.397L202.807 273.838C203.284 273.786 203.765 273.691 204.25 273.552C204.744 273.405 205.195 273.218 205.602 272.993C206.01 272.759 206.339 272.486 206.59 272.174C206.842 271.853 206.967 271.498 206.967 271.108V270.939ZM207.097 270.939H207.695V271.108C207.695 271.498 207.821 271.853 208.072 272.174C208.324 272.486 208.653 272.759 209.06 272.993C209.468 273.218 209.914 273.405 210.399 273.552C210.893 273.691 211.379 273.786 211.855 273.838L211.634 274.397C211.097 274.328 210.56 274.211 210.022 274.046C209.494 273.881 209.008 273.665 208.566 273.396C208.124 273.119 207.769 272.789 207.5 272.408C207.232 272.027 207.097 271.593 207.097 271.108V270.939ZM203.223 270.523H211.465V271.095H203.223V270.523ZM207.331 277.101C208.571 277.101 209.537 277.266 210.23 277.595C210.924 277.916 211.27 278.384 211.27 278.999C211.27 279.614 210.924 280.082 210.23 280.403C209.537 280.724 208.571 280.884 207.331 280.884C206.092 280.884 205.126 280.724 204.432 280.403C203.739 280.082 203.392 279.614 203.392 278.999C203.392 278.384 203.739 277.916 204.432 277.595C205.126 277.266 206.092 277.101 207.331 277.101ZM207.331 277.66C206.335 277.66 205.546 277.781 204.965 278.024C204.385 278.258 204.094 278.583 204.094 278.999C204.094 279.415 204.385 279.744 204.965 279.987C205.546 280.221 206.335 280.338 207.331 280.338C208.328 280.338 209.117 280.221 209.697 279.987C210.278 279.744 210.568 279.415 210.568 278.999C210.568 278.583 210.278 278.258 209.697 278.024C209.117 277.781 208.328 277.66 207.331 277.66Z" fill="white"/>
<path d="M195.616 280V279.337H197.774V271.641H196.097V271.121C196.487 271.052 196.83 270.969 197.124 270.874C197.428 270.77 197.692 270.653 197.917 270.523H198.528V279.337H200.504V280H195.616Z" fill="white"/>
<path d="M180.359 270.692H187.223V271.277H180.359V270.692ZM183.791 272.018C184.337 272.018 184.814 272.105 185.221 272.278C185.628 272.443 185.945 272.677 186.17 272.98C186.395 273.283 186.508 273.652 186.508 274.085C186.508 274.501 186.395 274.865 186.17 275.177C185.945 275.48 185.628 275.719 185.221 275.892C184.814 276.057 184.337 276.139 183.791 276.139C183.245 276.139 182.764 276.057 182.348 275.892C181.941 275.719 181.62 275.48 181.386 275.177C181.161 274.865 181.048 274.501 181.048 274.085C181.048 273.652 181.161 273.283 181.386 272.98C181.62 272.677 181.941 272.443 182.348 272.278C182.764 272.105 183.245 272.018 183.791 272.018ZM183.791 272.577C183.167 272.577 182.664 272.716 182.283 272.993C181.902 273.27 181.711 273.634 181.711 274.085C181.711 274.527 181.902 274.887 182.283 275.164C182.664 275.433 183.167 275.567 183.791 275.567C184.406 275.567 184.9 275.433 185.273 275.164C185.654 274.887 185.845 274.527 185.845 274.085C185.845 273.634 185.654 273.27 185.273 272.993C184.9 272.716 184.406 272.577 183.791 272.577ZM188.536 269.34H189.225V276.568H188.536V269.34ZM189.043 272.655H191.045V273.253H189.043V272.655ZM181.828 277.283H189.225V280.923H188.536V277.881H181.828V277.283ZM183.44 269.275H184.142V271.004H183.44V269.275Z" fill="white"/>
<path d="M177.435 269.34H178.124V280.923H177.435V269.34ZM175.225 274.098H177.643V274.696H175.225V274.098ZM174.796 269.626H175.446V280.299H174.796V269.626ZM168.829 277.322H169.544C170.168 277.322 170.718 277.313 171.195 277.296C171.68 277.279 172.135 277.244 172.56 277.192C172.993 277.14 173.427 277.062 173.86 276.958L173.951 277.556C173.492 277.66 173.045 277.738 172.612 277.79C172.179 277.842 171.715 277.877 171.221 277.894C170.736 277.911 170.177 277.92 169.544 277.92H168.829V277.322ZM168.829 270.783H173.145V271.368H169.518V277.569H168.829V270.783Z" fill="white"/>
<path d="M165.112 269.353H165.814V277.894H165.112V269.353ZM158.534 280.039H166.204V280.637H158.534V280.039ZM158.534 277.01H159.223V280.195H158.534V277.01ZM159.652 270.198C160.215 270.198 160.718 270.315 161.16 270.549C161.602 270.783 161.953 271.112 162.213 271.537C162.473 271.953 162.603 272.438 162.603 272.993C162.603 273.539 162.473 274.024 162.213 274.449C161.953 274.874 161.602 275.207 161.16 275.45C160.718 275.684 160.215 275.801 159.652 275.801C159.089 275.801 158.586 275.684 158.144 275.45C157.702 275.207 157.351 274.874 157.091 274.449C156.831 274.024 156.701 273.539 156.701 272.993C156.701 272.438 156.831 271.953 157.091 271.537C157.351 271.112 157.702 270.783 158.144 270.549C158.586 270.315 159.089 270.198 159.652 270.198ZM159.652 270.796C159.219 270.796 158.829 270.891 158.482 271.082C158.144 271.273 157.875 271.533 157.676 271.862C157.485 272.191 157.39 272.568 157.39 272.993C157.39 273.409 157.485 273.782 157.676 274.111C157.875 274.44 158.144 274.7 158.482 274.891C158.829 275.082 159.219 275.177 159.652 275.177C160.085 275.177 160.475 275.082 160.822 274.891C161.169 274.7 161.437 274.44 161.628 274.111C161.827 273.782 161.927 273.409 161.927 272.993C161.927 272.568 161.827 272.191 161.628 271.862C161.437 271.533 161.169 271.273 160.822 271.082C160.475 270.891 160.085 270.796 159.652 270.796Z" fill="white"/>
<path d="M147.459 270.887H148.031V273.123C148.031 273.695 147.931 274.263 147.732 274.826C147.541 275.389 147.286 275.922 146.965 276.425C146.644 276.928 146.289 277.374 145.899 277.764C145.509 278.145 145.115 278.444 144.716 278.661L144.287 278.102C144.66 277.911 145.032 277.643 145.405 277.296C145.778 276.941 146.12 276.538 146.432 276.087C146.744 275.628 146.991 275.147 147.173 274.644C147.364 274.133 147.459 273.626 147.459 273.123V270.887ZM147.563 270.887H148.122V273.123C148.122 273.591 148.209 274.063 148.382 274.54C148.564 275.017 148.798 275.472 149.084 275.905C149.379 276.33 149.708 276.711 150.072 277.049C150.445 277.378 150.826 277.638 151.216 277.829L150.8 278.388C150.384 278.171 149.985 277.881 149.604 277.517C149.223 277.153 148.876 276.733 148.564 276.256C148.252 275.779 148.005 275.277 147.823 274.748C147.65 274.211 147.563 273.669 147.563 273.123V270.887ZM144.677 270.562H150.852V271.16H144.677V270.562ZM152.542 269.34H153.244V280.923H152.542V269.34ZM153.062 274.176H155.272V274.774H153.062V274.176Z" fill="white"/>
<path d="M141.181 269.34H141.87V280.936H141.181V269.34ZM133.251 277.387H134.148C134.885 277.387 135.561 277.374 136.176 277.348C136.791 277.322 137.385 277.279 137.957 277.218C138.538 277.157 139.131 277.071 139.738 276.958L139.816 277.569C139.192 277.682 138.59 277.768 138.009 277.829C137.428 277.89 136.826 277.933 136.202 277.959C135.578 277.976 134.893 277.985 134.148 277.985H133.251V277.387ZM133.251 270.484H138.646V271.095H133.953V277.595H133.251V270.484Z" fill="white"/>
<path d="M122.505 270.211H123.103V271.134C123.103 271.637 123.003 272.109 122.804 272.551C122.613 272.993 122.358 273.4 122.037 273.773C121.716 274.146 121.352 274.479 120.945 274.774C120.546 275.06 120.135 275.303 119.71 275.502C119.294 275.701 118.9 275.849 118.527 275.944L118.202 275.359C118.531 275.29 118.891 275.168 119.281 274.995C119.671 274.822 120.057 274.605 120.438 274.345C120.819 274.076 121.162 273.777 121.465 273.448C121.777 273.119 122.028 272.759 122.219 272.369C122.41 271.97 122.505 271.559 122.505 271.134V270.211ZM122.609 270.211H123.207V271.134C123.207 271.559 123.302 271.966 123.493 272.356C123.684 272.746 123.935 273.11 124.247 273.448C124.568 273.786 124.914 274.085 125.287 274.345C125.668 274.605 126.054 274.826 126.444 275.008C126.843 275.181 127.207 275.298 127.536 275.359L127.198 275.944C126.825 275.849 126.431 275.701 126.015 275.502C125.599 275.303 125.187 275.06 124.78 274.774C124.381 274.479 124.017 274.146 123.688 273.773C123.359 273.4 123.094 272.993 122.895 272.551C122.704 272.109 122.609 271.637 122.609 271.134V270.211ZM117.643 278.687H128.16V279.272H117.643V278.687Z" fill="white"/>
<path d="M105.957 270.679H112.353V271.264H105.957V270.679ZM105.671 277.933L105.567 277.309C106.26 277.3 107.014 277.292 107.829 277.283C108.652 277.266 109.489 277.235 110.338 277.192C111.187 277.149 111.993 277.084 112.756 276.997L112.795 277.53C112.015 277.643 111.205 277.729 110.364 277.79C109.523 277.851 108.7 277.89 107.894 277.907C107.088 277.924 106.347 277.933 105.671 277.933ZM107.244 271.121H107.933V277.478H107.244V271.121ZM110.247 271.121H110.923V277.478H110.247V271.121ZM114.433 269.34H115.122V280.923H114.433V269.34ZM111.911 273.799H114.836V274.397H111.911V273.799Z" fill="white"/>
<path d="M98.21 270.146H98.899C98.899 271.047 98.7344 271.888 98.405 272.668C98.0844 273.448 97.586 274.15 96.91 274.774C96.2427 275.398 95.376 275.927 94.31 276.36L93.959 275.814C94.9384 275.424 95.74 274.952 96.364 274.397C96.9967 273.842 97.4604 273.223 97.755 272.538C98.0584 271.845 98.21 271.104 98.21 270.315V270.146ZM94.427 270.146H98.483V270.731H94.427V270.146ZM98.002 272.239V272.759L93.985 273.175L93.842 272.551L98.002 272.239ZM102.76 269.34H103.423V276.191H102.76V269.34ZM100.654 272.421H103.059V273.019H100.654V272.421ZM100.225 269.561H100.901V276.1H100.225V269.561ZM95.961 276.802H103.423V280.754H95.961V276.802ZM102.747 277.387H96.663V280.169H102.747V277.387Z" fill="white"/>
<path d="M89.9951 269.327H90.6841V277.933H89.9951V269.327ZM90.4371 272.98H92.5041V273.565H90.4371V272.98ZM83.6251 280.039H91.2691V280.637H83.6251V280.039ZM83.6251 277.062H84.3141V280.247H83.6251V277.062ZM85.0031 270.198C85.5751 270.198 86.0821 270.315 86.5241 270.549C86.9661 270.783 87.3127 271.112 87.5641 271.537C87.8241 271.962 87.9541 272.447 87.9541 272.993C87.9541 273.539 87.8241 274.024 87.5641 274.449C87.3127 274.874 86.9661 275.207 86.5241 275.45C86.0821 275.684 85.5751 275.801 85.0031 275.801C84.4484 275.801 83.9457 275.684 83.4951 275.45C83.0531 275.207 82.7021 274.874 82.4421 274.449C82.1907 274.024 82.0651 273.539 82.0651 272.993C82.0651 272.447 82.1907 271.962 82.4421 271.537C82.7021 271.112 83.0531 270.783 83.4951 270.549C83.9457 270.315 84.4484 270.198 85.0031 270.198ZM85.0031 270.809C84.5784 270.809 84.1927 270.904 83.8461 271.095C83.5081 271.286 83.2394 271.546 83.0401 271.875C82.8407 272.204 82.7411 272.577 82.7411 272.993C82.7411 273.409 82.8407 273.782 83.0401 274.111C83.2394 274.44 83.5081 274.7 83.8461 274.891C84.1927 275.082 84.5784 275.177 85.0031 275.177C85.4364 275.177 85.8264 275.082 86.1731 274.891C86.5197 274.7 86.7927 274.44 86.9921 274.111C87.1914 273.782 87.2911 273.409 87.2911 272.993C87.2911 272.577 87.1914 272.204 86.9921 271.875C86.7927 271.546 86.5197 271.286 86.1731 271.095C85.8264 270.904 85.4364 270.809 85.0031 270.809Z" fill="white"/>
<path d="M72.8881 271.472H73.4601V272.122C73.4601 272.807 73.3171 273.439 73.0311 274.02C72.7451 274.592 72.3594 275.086 71.8741 275.502C71.3887 275.918 70.8514 276.243 70.2621 276.477L69.9111 275.931C70.4484 275.732 70.9424 275.45 71.3931 275.086C71.8437 274.713 72.2034 274.276 72.4721 273.773C72.7494 273.262 72.8881 272.711 72.8881 272.122V271.472ZM72.9921 271.472H73.5641V272.122C73.5641 272.677 73.7027 273.197 73.9801 273.682C74.2574 274.159 74.6257 274.57 75.0851 274.917C75.5531 275.264 76.0557 275.524 76.5931 275.697L76.2421 276.256C75.6527 276.048 75.1111 275.745 74.6171 275.346C74.1231 274.947 73.7287 274.475 73.4341 273.929C73.1394 273.383 72.9921 272.781 72.9921 272.122V271.472ZM70.1321 271.004H76.2941V271.589H70.1321V271.004ZM72.8881 269.405H73.5771V271.212H72.8881V269.405ZM75.8911 273.019H78.9591V273.617H75.8911V273.019ZM78.5431 269.353H79.2451V278.037H78.5431V269.353ZM72.0041 280.039H79.5961V280.637H72.0041V280.039ZM72.0041 277.231H72.6931V280.26H72.0041V277.231Z" fill="white"/>
<path d="M56.1099 270.614H63.6369V271.199H56.1099V270.614ZM54.9789 278.57H65.4569V279.168H54.9789V278.57ZM57.7739 274.631H58.4629V278.83H57.7739V274.631ZM63.3769 270.614H64.0529V271.966C64.0529 272.469 64.0486 272.976 64.0399 273.487C64.0313 273.998 63.9966 274.54 63.9359 275.112C63.8839 275.684 63.7886 276.312 63.6499 276.997L62.9609 276.893C63.1689 275.905 63.2903 275.025 63.3249 274.254C63.3596 273.474 63.3769 272.711 63.3769 271.966V270.614ZM60.6339 274.631H61.3229V278.83H60.6339V274.631Z" fill="white"/>
<path d="M43.072 270.692H49.936V271.277H43.072V270.692ZM46.504 272.018C47.05 272.018 47.5266 272.105 47.934 272.278C48.3413 272.443 48.6576 272.677 48.883 272.98C49.1083 273.283 49.221 273.652 49.221 274.085C49.221 274.501 49.1083 274.865 48.883 275.177C48.6576 275.48 48.3413 275.719 47.934 275.892C47.5266 276.057 47.05 276.139 46.504 276.139C45.958 276.139 45.477 276.057 45.061 275.892C44.6536 275.719 44.333 275.48 44.099 275.177C43.8736 274.865 43.761 274.501 43.761 274.085C43.761 273.652 43.8736 273.283 44.099 272.98C44.333 272.677 44.6536 272.443 45.061 272.278C45.477 272.105 45.958 272.018 46.504 272.018ZM46.504 272.577C45.88 272.577 45.3773 272.716 44.996 272.993C44.6146 273.27 44.424 273.634 44.424 274.085C44.424 274.527 44.6146 274.887 44.996 275.164C45.3773 275.433 45.88 275.567 46.504 275.567C47.1193 275.567 47.6133 275.433 47.986 275.164C48.3673 274.887 48.558 274.527 48.558 274.085C48.558 273.634 48.3673 273.27 47.986 272.993C47.6133 272.716 47.1193 272.577 46.504 272.577ZM51.249 269.34H51.938V276.568H51.249V269.34ZM51.756 272.655H53.758V273.253H51.756V272.655ZM44.541 277.283H51.938V280.923H51.249V277.881H44.541V277.283ZM46.153 269.275H46.855V271.004H46.153V269.275Z" fill="white"/>
<path d="M40.148 269.34H40.837V280.923H40.148V269.34ZM37.938 274.098H40.356V274.696H37.938V274.098ZM37.509 269.626H38.159V280.299H37.509V269.626ZM31.542 277.322H32.257C32.881 277.322 33.4313 277.313 33.908 277.296C34.3933 277.279 34.8483 277.244 35.273 277.192C35.7063 277.14 36.1397 277.062 36.573 276.958L36.664 277.556C36.2047 277.66 35.7583 277.738 35.325 277.79C34.8917 277.842 34.428 277.877 33.934 277.894C33.4487 277.911 32.8897 277.92 32.257 277.92H31.542V277.322ZM31.542 270.783H35.858V271.368H32.231V277.569H31.542V270.783Z" fill="white"/>
<path d="M24.588 271.329H28.176V271.927H24.588V271.329ZM24.588 273.63H28.176V274.202H24.588V273.63ZM27.838 269.34H28.54V276.243H27.838V269.34ZM19.687 270.237H24.848V275.281H19.687V270.237ZM24.172 270.822H20.35V274.709H24.172V270.822ZM24.796 276.594C25.9747 276.594 26.902 276.785 27.578 277.166C28.254 277.547 28.592 278.076 28.592 278.752C28.592 279.428 28.254 279.952 27.578 280.325C26.902 280.698 25.9747 280.884 24.796 280.884C23.6173 280.884 22.69 280.698 22.014 280.325C21.338 279.952 21 279.428 21 278.752C21 278.076 21.338 277.547 22.014 277.166C22.69 276.785 23.6173 276.594 24.796 276.594ZM24.796 277.166C24.1633 277.166 23.613 277.231 23.145 277.361C22.6857 277.491 22.326 277.677 22.066 277.92C21.806 278.154 21.676 278.431 21.676 278.752C21.676 279.073 21.806 279.35 22.066 279.584C22.326 279.818 22.6857 279.996 23.145 280.117C23.613 280.247 24.1633 280.312 24.796 280.312C25.4287 280.312 25.9747 280.247 26.434 280.117C26.902 279.996 27.2617 279.818 27.513 279.584C27.773 279.35 27.903 279.073 27.903 278.752C27.903 278.431 27.773 278.154 27.513 277.92C27.2617 277.677 26.902 277.491 26.434 277.361C25.9747 277.231 25.4287 277.166 24.796 277.166Z" fill="white"/>
<path d="M10.133 269.925H10.718V271.199C10.718 271.927 10.575 272.599 10.289 273.214C10.0117 273.829 9.63034 274.362 9.14501 274.813C8.66834 275.264 8.13534 275.615 7.54601 275.866L7.16901 275.294C7.71501 275.086 8.21334 274.783 8.66401 274.384C9.11467 273.977 9.47001 273.5 9.73001 272.954C9.99867 272.408 10.133 271.823 10.133 271.199V269.925ZM10.237 269.925H10.809V271.225C10.809 271.65 10.887 272.057 11.043 272.447C11.2077 272.828 11.4243 273.188 11.693 273.526C11.9703 273.855 12.2867 274.146 12.642 274.397C12.9973 274.648 13.37 274.848 13.76 274.995L13.383 275.541C12.8197 275.316 12.2953 274.991 11.81 274.566C11.3333 274.133 10.952 273.63 10.666 273.058C10.38 272.486 10.237 271.875 10.237 271.225V269.925ZM15.372 269.34H16.061V276.477H15.372V269.34ZM15.879 272.525H17.881V273.123H15.879V272.525ZM12.421 276.828C13.2097 276.828 13.8813 276.906 14.436 277.062C14.9907 277.218 15.4153 277.452 15.71 277.764C16.0133 278.067 16.165 278.431 16.165 278.856C16.165 279.289 16.0133 279.658 15.71 279.961C15.4153 280.264 14.9907 280.494 14.436 280.65C13.8813 280.806 13.2097 280.884 12.421 280.884C11.6497 280.884 10.9823 280.806 10.419 280.65C9.86434 280.494 9.43534 280.264 9.13201 279.961C8.83734 279.658 8.69001 279.289 8.69001 278.856C8.69001 278.431 8.83734 278.067 9.13201 277.764C9.43534 277.452 9.86434 277.218 10.419 277.062C10.9823 276.906 11.6497 276.828 12.421 276.828ZM12.421 277.4C11.8057 277.4 11.2683 277.461 10.809 277.582C10.3497 277.695 9.99434 277.864 9.74301 278.089C9.49167 278.306 9.36601 278.561 9.36601 278.856C9.36601 279.159 9.49167 279.424 9.74301 279.649C9.99434 279.866 10.3497 280.03 10.809 280.143C11.2683 280.264 11.8057 280.325 12.421 280.325C13.045 280.325 13.5867 280.264 14.046 280.143C14.514 280.03 14.8693 279.866 15.112 279.649C15.3633 279.424 15.489 279.159 15.489 278.856C15.489 278.561 15.3633 278.306 15.112 278.089C14.8693 277.864 14.514 277.695 14.046 277.582C13.5867 277.461 13.045 277.4 12.421 277.4Z" fill="white"/>
<path d="M193.294 301V300.571H195.465V292.446H193.814V292.108C194.178 292.047 194.503 291.969 194.789 291.874C195.075 291.779 195.317 291.675 195.517 291.562H195.92V300.571H197.948V301H193.294Z" fill="white"/>
<path d="M188.569 301.169C188.083 301.169 187.663 301.104 187.308 300.974C186.952 300.844 186.645 300.679 186.385 300.48C186.125 300.281 185.899 300.081 185.709 299.882L186.008 299.544C186.285 299.839 186.623 300.112 187.022 300.363C187.42 300.614 187.945 300.74 188.595 300.74C189.028 300.74 189.409 300.649 189.739 300.467C190.077 300.285 190.341 300.029 190.532 299.7C190.722 299.371 190.818 298.985 190.818 298.543C190.818 298.092 190.705 297.698 190.48 297.36C190.254 297.013 189.899 296.745 189.414 296.554C188.937 296.363 188.313 296.268 187.542 296.268V295.813C188.27 295.813 188.846 295.718 189.271 295.527C189.695 295.328 189.999 295.063 190.181 294.734C190.371 294.396 190.467 294.028 190.467 293.629C190.467 293.092 190.293 292.658 189.947 292.329C189.6 291.991 189.132 291.822 188.543 291.822C188.118 291.822 187.719 291.922 187.347 292.121C186.974 292.312 186.662 292.546 186.411 292.823L186.112 292.485C186.415 292.19 186.762 291.935 187.152 291.718C187.55 291.501 188.014 291.393 188.543 291.393C188.993 291.393 189.401 291.484 189.765 291.666C190.137 291.839 190.432 292.091 190.649 292.42C190.865 292.749 190.974 293.144 190.974 293.603C190.974 294.244 190.8 294.764 190.454 295.163C190.116 295.553 189.695 295.83 189.193 295.995V296.047C189.574 296.125 189.925 296.272 190.246 296.489C190.566 296.706 190.822 296.987 191.013 297.334C191.212 297.672 191.312 298.066 191.312 298.517C191.312 299.054 191.19 299.522 190.948 299.921C190.705 300.32 190.376 300.627 189.96 300.844C189.552 301.061 189.089 301.169 188.569 301.169Z" fill="white"/>
<path d="M180.071 290.392H180.5V296.346H180.071V290.392ZM176.678 291.094H177.133C177.133 291.995 176.89 292.81 176.405 293.538C175.928 294.257 175.274 294.877 174.442 295.397C173.619 295.908 172.683 296.303 171.634 296.58L171.452 296.216C172.197 296.017 172.886 295.761 173.519 295.449C174.152 295.137 174.702 294.769 175.17 294.344C175.647 293.919 176.015 293.447 176.275 292.927C176.544 292.398 176.678 291.826 176.678 291.211V291.094ZM171.998 291.094H176.899V291.484H171.998V291.094ZM173.324 296.983H180.5V299.44H173.766V301.689H173.363V299.063H180.084V297.373H173.324V296.983ZM173.363 301.377H180.994V301.754H173.363V301.377Z" fill="white"/>
<path d="M168.463 290.392H168.892V301.871H168.463V290.392ZM166.097 295.189H168.619V295.579H166.097V295.189ZM165.824 290.704H166.24V301.234H165.824V290.704ZM159.779 298.4H160.468C161.127 298.4 161.699 298.391 162.184 298.374C162.678 298.357 163.133 298.322 163.549 298.27C163.974 298.209 164.398 298.127 164.823 298.023L164.901 298.413C164.451 298.517 164.013 298.599 163.588 298.66C163.164 298.712 162.704 298.747 162.21 298.764C161.716 298.781 161.136 298.79 160.468 298.79H159.779V298.4ZM159.779 291.861H164.069V292.238H160.208V298.543H159.779V291.861Z" fill="white"/>
<path d="M152.708 292.459H156.426V292.849H152.708V292.459ZM152.708 294.721H156.426V295.098H152.708V294.721ZM156.153 290.392H156.582V297.256H156.153V290.392ZM147.911 291.302H152.942V296.229H147.911V291.302ZM152.526 291.679H148.314V295.852H152.526V291.679ZM152.929 297.633C154.082 297.633 154.988 297.819 155.646 298.192C156.305 298.556 156.634 299.072 156.634 299.739C156.634 300.398 156.305 300.909 155.646 301.273C154.988 301.637 154.082 301.819 152.929 301.819C151.777 301.819 150.867 301.637 150.199 301.273C149.541 300.909 149.211 300.398 149.211 299.739C149.211 299.072 149.541 298.556 150.199 298.192C150.867 297.819 151.777 297.633 152.929 297.633ZM152.929 298.01C152.271 298.01 151.694 298.084 151.2 298.231C150.706 298.37 150.321 298.569 150.043 298.829C149.766 299.089 149.627 299.392 149.627 299.739C149.627 300.077 149.766 300.376 150.043 300.636C150.321 300.887 150.706 301.082 151.2 301.221C151.694 301.368 152.271 301.442 152.929 301.442C153.588 301.442 154.16 301.368 154.645 301.221C155.139 301.082 155.525 300.887 155.802 300.636C156.08 300.376 156.218 300.077 156.218 299.739C156.218 299.392 156.08 299.089 155.802 298.829C155.525 298.569 155.139 298.37 154.645 298.231C154.16 298.084 153.588 298.01 152.929 298.01Z" fill="white"/>
<path d="M138.435 290.964H138.799V292.29C138.799 293.001 138.652 293.655 138.357 294.253C138.063 294.842 137.677 295.354 137.2 295.787C136.724 296.22 136.212 296.558 135.666 296.801L135.432 296.437C135.944 296.229 136.429 295.926 136.888 295.527C137.348 295.12 137.72 294.643 138.006 294.097C138.292 293.542 138.435 292.94 138.435 292.29V290.964ZM138.474 290.964H138.825V292.29C138.825 292.723 138.912 293.139 139.085 293.538C139.259 293.937 139.488 294.305 139.774 294.643C140.069 294.981 140.394 295.28 140.749 295.54C141.113 295.791 141.482 295.991 141.854 296.138L141.607 296.489C141.079 296.264 140.572 295.943 140.086 295.527C139.61 295.111 139.22 294.626 138.916 294.071C138.622 293.516 138.474 292.923 138.474 292.29V290.964ZM143.7 290.392H144.129V297.542H143.7V290.392ZM144.012 293.681H146.001V294.071H144.012V293.681ZM140.567 297.906C141.339 297.906 141.993 297.984 142.53 298.14C143.076 298.287 143.492 298.508 143.778 298.803C144.073 299.098 144.22 299.453 144.22 299.869C144.22 300.285 144.073 300.64 143.778 300.935C143.492 301.221 143.076 301.438 142.53 301.585C141.993 301.741 141.339 301.819 140.567 301.819C139.805 301.819 139.15 301.741 138.604 301.585C138.058 301.438 137.638 301.221 137.343 300.935C137.057 300.64 136.914 300.285 136.914 299.869C136.914 299.453 137.057 299.098 137.343 298.803C137.638 298.508 138.058 298.287 138.604 298.14C139.15 297.984 139.805 297.906 140.567 297.906ZM140.567 298.283C139.917 298.283 139.35 298.348 138.864 298.478C138.379 298.608 137.998 298.794 137.72 299.037C137.452 299.271 137.317 299.548 137.317 299.869C137.317 300.19 137.452 300.471 137.72 300.714C137.998 300.948 138.379 301.13 138.864 301.26C139.35 301.39 139.917 301.455 140.567 301.455C141.217 301.455 141.785 301.39 142.27 301.26C142.764 301.13 143.146 300.948 143.414 300.714C143.683 300.471 143.817 300.19 143.817 299.869C143.817 299.548 143.683 299.271 143.414 299.037C143.146 298.794 142.764 298.608 142.27 298.478C141.785 298.348 141.217 298.283 140.567 298.283Z" fill="white"/>
<path d="M121.956 291.224H129.106V291.601H121.956V291.224ZM120.539 296.19H130.9V296.58H120.539V296.19ZM125.518 296.398H125.934V301.884H125.518V296.398ZM128.963 291.224H129.379V292.199C129.379 292.58 129.37 292.983 129.353 293.408C129.344 293.833 129.309 294.296 129.249 294.799C129.197 295.302 129.101 295.861 128.963 296.476L128.521 296.385C128.746 295.492 128.876 294.712 128.911 294.045C128.945 293.369 128.963 292.754 128.963 292.199V291.224Z" fill="white"/>
<path d="M116.926 290.405H117.355V296.905H116.926V290.405ZM117.251 293.252H119.24V293.642H117.251V293.252ZM110.374 297.633H117.355V301.676H110.374V297.633ZM116.939 298.01H110.79V301.286H116.939V298.01ZM109.23 291.003H109.659V295.488H109.23V291.003ZM109.23 295.345H110.075C110.95 295.345 111.825 295.306 112.701 295.228C113.585 295.15 114.512 295.007 115.483 294.799L115.548 295.189C114.551 295.397 113.615 295.54 112.74 295.618C111.864 295.696 110.976 295.735 110.075 295.735H109.23V295.345Z" fill="white"/>
<path d="M96.6208 296.32H106.982V296.697H96.6208V296.32ZM101.587 294.357H101.99V296.515H101.587V294.357ZM97.9858 294.227H105.734V294.617H97.9858V294.227ZM97.9858 290.951H105.63V291.328H98.4018V294.396H97.9858V290.951ZM101.808 297.789C103.021 297.789 103.97 297.967 104.655 298.322C105.339 298.669 105.682 299.163 105.682 299.804C105.682 300.454 105.339 300.952 104.655 301.299C103.97 301.654 103.021 301.832 101.808 301.832C100.603 301.832 99.6541 301.654 98.9608 301.299C98.2761 300.952 97.9338 300.454 97.9338 299.804C97.9338 299.163 98.2761 298.669 98.9608 298.322C99.6541 297.967 100.603 297.789 101.808 297.789ZM101.808 298.166C101.123 298.166 100.521 298.235 100.001 298.374C99.4808 298.504 99.0778 298.69 98.7918 298.933C98.5058 299.176 98.3628 299.466 98.3628 299.804C98.3628 300.142 98.5058 300.437 98.7918 300.688C99.0778 300.931 99.4808 301.117 100.001 301.247C100.521 301.386 101.123 301.455 101.808 301.455C102.501 301.455 103.103 301.386 103.615 301.247C104.135 301.117 104.538 300.931 104.824 300.688C105.11 300.437 105.253 300.142 105.253 299.804C105.253 299.466 105.11 299.176 104.824 298.933C104.538 298.69 104.135 298.504 103.615 298.374C103.103 298.235 102.501 298.166 101.808 298.166Z" fill="white"/>
<path d="M85.0684 291.497H85.4454V293.954C85.4454 294.535 85.3414 295.102 85.1334 295.657C84.934 296.203 84.6697 296.719 84.3404 297.204C84.011 297.681 83.6514 298.105 83.2614 298.478C82.8714 298.851 82.4944 299.141 82.1304 299.349L81.8314 298.998C82.1867 298.816 82.5507 298.552 82.9234 298.205C83.3047 297.85 83.6557 297.447 83.9764 296.996C84.297 296.537 84.557 296.047 84.7564 295.527C84.9644 295.007 85.0684 294.483 85.0684 293.954V291.497ZM85.0944 291.497H85.4714V293.954C85.4714 294.474 85.571 294.985 85.7704 295.488C85.9784 295.991 86.247 296.467 86.5764 296.918C86.9057 297.36 87.261 297.75 87.6424 298.088C88.0237 298.417 88.392 298.673 88.7474 298.855L88.4614 299.18C88.0887 298.981 87.7074 298.703 87.3174 298.348C86.9274 297.993 86.5634 297.581 86.2254 297.113C85.8874 296.645 85.6144 296.142 85.4064 295.605C85.1984 295.068 85.0944 294.517 85.0944 293.954V291.497ZM90.6324 290.392H91.0484V301.871H90.6324V290.392Z" fill="white"/>
<path d="M78.1924 290.379H78.6214V298.946H78.1924V290.379ZM78.4394 294.084H80.4934V294.461H78.4394V294.084ZM71.7444 301.169H79.2454V301.559H71.7444V301.169ZM71.7444 298.088H72.1604V301.26H71.7444V298.088ZM73.0574 291.276C73.6121 291.276 74.1017 291.393 74.5264 291.627C74.9597 291.852 75.2977 292.173 75.5404 292.589C75.7917 292.996 75.9174 293.469 75.9174 294.006C75.9174 294.543 75.7917 295.02 75.5404 295.436C75.2977 295.852 74.9597 296.177 74.5264 296.411C74.1017 296.636 73.6121 296.749 73.0574 296.749C72.5114 296.749 72.0217 296.636 71.5884 296.411C71.1551 296.177 70.8127 295.852 70.5614 295.436C70.3187 295.02 70.1974 294.543 70.1974 294.006C70.1974 293.469 70.3187 292.996 70.5614 292.589C70.8127 292.173 71.1551 291.852 71.5884 291.627C72.0217 291.393 72.5114 291.276 73.0574 291.276ZM73.0574 291.653C72.5894 291.653 72.1691 291.757 71.7964 291.965C71.4324 292.173 71.1421 292.455 70.9254 292.81C70.7174 293.165 70.6134 293.564 70.6134 294.006C70.6134 294.448 70.7174 294.847 70.9254 295.202C71.1421 295.557 71.4324 295.839 71.7964 296.047C72.1691 296.255 72.5894 296.359 73.0574 296.359C73.5254 296.359 73.9457 296.255 74.3184 296.047C74.6911 295.839 74.9814 295.557 75.1894 295.202C75.4061 294.847 75.5144 294.448 75.5144 294.006C75.5144 293.564 75.4061 293.165 75.1894 292.81C74.9814 292.455 74.6911 292.173 74.3184 291.965C73.9457 291.757 73.5254 291.653 73.0574 291.653Z" fill="white"/>
<path d="M61.0594 292.472H61.4234V293.174C61.4234 293.85 61.2717 294.465 60.9684 295.02C60.6737 295.575 60.2837 296.051 59.7984 296.45C59.3217 296.849 58.8104 297.161 58.2644 297.386L58.0304 297.048C58.5417 296.857 59.0271 296.576 59.4864 296.203C59.9544 295.83 60.3314 295.388 60.6174 294.877C60.9121 294.357 61.0594 293.789 61.0594 293.174V292.472ZM61.1114 292.472H61.4754V293.174C61.4754 293.755 61.6227 294.292 61.9174 294.786C62.2207 295.271 62.6064 295.687 63.0744 296.034C63.5511 296.381 64.0451 296.641 64.5564 296.814L64.3224 297.165C63.7764 296.957 63.2564 296.667 62.7624 296.294C62.2771 295.913 61.8784 295.462 61.5664 294.942C61.2631 294.413 61.1114 293.824 61.1114 293.174V292.472ZM58.2124 292.121H64.2964V292.511H58.2124V292.121ZM61.0594 290.457H61.4884V292.264H61.0594V290.457ZM63.8804 294.123H67.0134V294.513H63.8804V294.123ZM66.7274 290.405H67.1564V299.037H66.7274V290.405ZM60.0974 301.169H67.5334V301.559H60.0974V301.169ZM60.0974 298.218H60.5134V301.208H60.0974V298.218Z" fill="white"/>
<path d="M44.502 296.008H52.185V296.385H44.502V296.008ZM43.072 299.882H53.485V300.272H43.072V299.882ZM48.038 296.138H48.454V300.142H48.038V296.138ZM44.502 291.445H52.042V291.835H44.931V296.19H44.502V291.445Z" fill="white"/>
<path d="M39.459 290.405H39.888V296.905H39.459V290.405ZM39.784 293.252H41.773V293.642H39.784V293.252ZM32.907 297.633H39.888V301.676H32.907V297.633ZM39.472 298.01H33.323V301.286H39.472V298.01ZM31.763 291.003H32.192V295.488H31.763V291.003ZM31.763 295.345H32.608C33.4833 295.345 34.3586 295.306 35.234 295.228C36.118 295.15 37.0453 295.007 38.016 294.799L38.081 295.189C37.0843 295.397 36.1483 295.54 35.273 295.618C34.3976 295.696 33.5093 295.735 32.608 295.735H31.763V295.345Z" fill="white"/>
<path d="M22.326 292.303H22.69V292.862C22.69 293.521 22.5383 294.127 22.235 294.682C21.9403 295.237 21.5503 295.718 21.065 296.125C20.5883 296.532 20.077 296.849 19.531 297.074L19.297 296.736C19.8083 296.537 20.2937 296.251 20.753 295.878C21.2123 295.497 21.5893 295.05 21.884 294.539C22.1787 294.019 22.326 293.46 22.326 292.862V292.303ZM22.378 292.303H22.742V292.862C22.742 293.278 22.8287 293.677 23.002 294.058C23.184 294.431 23.4223 294.773 23.717 295.085C24.0117 295.388 24.341 295.653 24.705 295.878C25.0777 296.103 25.4547 296.281 25.836 296.411L25.615 296.762C25.069 296.563 24.549 296.277 24.055 295.904C23.561 295.531 23.158 295.089 22.846 294.578C22.534 294.058 22.378 293.486 22.378 292.862V292.303ZM19.479 291.978H25.563V292.368H19.479V291.978ZM22.326 290.327H22.755V292.069H22.326V290.327ZM25.186 293.876H28.189V294.266H25.186V293.876ZM27.994 290.392H28.423V297.36H27.994V290.392ZM24.77 297.776C25.9313 297.776 26.837 297.954 27.487 298.309C28.1457 298.664 28.475 299.163 28.475 299.804C28.475 300.437 28.1457 300.931 27.487 301.286C26.837 301.641 25.9313 301.819 24.77 301.819C23.6087 301.819 22.6987 301.641 22.04 301.286C21.3813 300.931 21.052 300.437 21.052 299.804C21.052 299.163 21.3813 298.664 22.04 298.309C22.6987 297.954 23.6087 297.776 24.77 297.776ZM24.77 298.153C24.1113 298.153 23.535 298.222 23.041 298.361C22.547 298.491 22.1613 298.682 21.884 298.933C21.6067 299.176 21.468 299.466 21.468 299.804C21.468 300.133 21.6067 300.424 21.884 300.675C22.1613 300.918 22.547 301.104 23.041 301.234C23.535 301.373 24.1113 301.442 24.77 301.442C25.4287 301.442 26.0007 301.373 26.486 301.234C26.98 301.104 27.3657 300.918 27.643 300.675C27.9203 300.424 28.059 300.133 28.059 299.804C28.059 299.466 27.9203 299.176 27.643 298.933C27.3657 298.682 26.98 298.491 26.486 298.361C26.0007 298.222 25.4287 298.153 24.77 298.153Z" fill="white"/>
<path d="M12.174 296.463H12.577V298.27H12.174V296.463ZM7.19501 296.203H17.556V296.593H7.19501V296.203ZM12.174 290.288H12.59V291.796H12.174V290.288ZM12.174 291.926H12.551V292.069C12.551 292.572 12.408 293.014 12.122 293.395C11.8447 293.776 11.4807 294.101 11.03 294.37C10.5793 294.63 10.0983 294.842 9.58701 295.007C9.07567 295.163 8.59034 295.28 8.13101 295.358L7.97501 294.994C8.39101 294.933 8.83734 294.829 9.31401 294.682C9.79934 294.535 10.2587 294.344 10.692 294.11C11.1253 293.867 11.4807 293.577 11.758 293.239C12.0353 292.901 12.174 292.511 12.174 292.069V291.926ZM12.226 291.926H12.59V292.069C12.59 292.511 12.7287 292.901 13.006 293.239C13.2833 293.577 13.6387 293.867 14.072 294.11C14.5053 294.344 14.9603 294.535 15.437 294.682C15.9223 294.829 16.373 294.933 16.789 294.994L16.646 295.358C16.178 295.28 15.6883 295.163 15.177 295.007C14.6657 294.842 14.1847 294.63 13.734 294.37C13.292 294.101 12.928 293.776 12.642 293.395C12.3647 293.014 12.226 292.572 12.226 292.069V291.926ZM8.33901 291.601H16.438V291.991H8.33901V291.601ZM12.382 298.114C13.604 298.114 14.553 298.274 15.229 298.595C15.9137 298.907 16.256 299.366 16.256 299.973C16.256 300.571 15.9137 301.026 15.229 301.338C14.553 301.659 13.604 301.819 12.382 301.819C11.16 301.819 10.2067 301.659 9.52201 301.338C8.84601 301.026 8.50801 300.571 8.50801 299.973C8.50801 299.366 8.84601 298.907 9.52201 298.595C10.2067 298.274 11.16 298.114 12.382 298.114ZM12.382 298.478C11.342 298.478 10.5057 298.612 9.87301 298.881C9.24901 299.15 8.93701 299.514 8.93701 299.973C8.93701 300.424 9.24901 300.783 9.87301 301.052C10.5057 301.321 11.342 301.455 12.382 301.455C13.422 301.455 14.254 301.321 14.878 301.052C15.5107 300.783 15.827 300.424 15.827 299.973C15.827 299.514 15.5107 299.15 14.878 298.881C14.254 298.612 13.422 298.478 12.382 298.478Z" fill="white"/>
<g filter="url(#filter0_d_90_848)">
<path d="M7 3H283" stroke="white" stroke-linecap="round"/>
</g>
<defs>
<filter id="filter0_d_90_848" x="0.8" y="0.8" width="288.4" height="12.4" filterUnits="userSpaceOnUse" color-interpolation-filters="sRGB">
<feFlood flood-opacity="0" result="BackgroundImageFix"/>
<feColorMatrix in="SourceAlpha" type="matrix" values="0 0 0 0 0 0 0 0 0 0 0 0 0 0 0 0 0 0 127 0" result="hardAlpha"/>
<feOffset dy="4"/>
<feGaussianBlur stdDeviation="2.85"/>
<feComposite in2="hardAlpha" operator="out"/>
<feColorMatrix type="matrix" values="0 0 0 0 1 0 0 0 0 1 0 0 0 0 1 0 0 0 0.35 0"/>
<feBlend mode="normal" in2="BackgroundImageFix" result="effect1_dropShadow_90_848"/>
<feBlend mode="normal" in="SourceGraphic" in2="effect1_dropShadow_90_848" result="shape"/>
</filter>
</defs>
</svg>
