<svg width="270" height="107" viewBox="0 0 270 107" fill="none" xmlns="http://www.w3.org/2000/svg">
<path d="M250.652 11.216H269.948V13.328H250.652V11.216ZM258.956 0.583984H261.62V2.55198H268.052V4.61598H261.788C262.1 6.39198 264.596 7.85598 268.988 8.16798L268.22 10.16C264.404 9.84799 261.62 8.69598 260.276 6.84798C258.956 8.69598 256.148 9.84799 252.356 10.16L251.564 8.16798C255.956 7.85598 258.476 6.39198 258.788 4.61598H252.548V2.55198H258.956V0.583984ZM260.276 14.744C264.908 14.744 267.644 16.016 267.644 18.344C267.644 20.648 264.908 21.92 260.276 21.92C255.62 21.92 252.884 20.648 252.884 18.344C252.884 16.016 255.62 14.744 260.276 14.744ZM260.276 16.688C257.18 16.688 255.548 17.216 255.548 18.344C255.548 19.424 257.18 19.976 260.276 19.976C263.348 19.976 264.98 19.424 264.98 18.344C264.98 17.216 263.348 16.688 260.276 16.688Z" fill="white"/>
<path d="M247.485 2.62402V20.072L244.941 20.048V5.33602L241.869 7.04002L240.813 4.90402L244.965 2.62402H247.485Z" fill="white"/>
<path d="M229.137 0.536011H231.777V21.968H229.137V0.536011ZM215.241 2.45601H225.249V10.472H217.953V14.744C221.289 14.72 224.169 14.576 227.457 14.024L227.721 16.16C224.097 16.784 220.929 16.904 217.137 16.904H215.289V8.36001H222.585V4.56801H215.241V2.45601Z" fill="white"/>
<path d="M208.232 0.536011H210.872V21.968H208.232V10.568H204.608V8.43201H208.232V0.536011ZM193.832 2.45601H203.408V10.256H196.472V14.768C199.64 14.744 202.136 14.624 204.992 14.144L205.232 16.304C202.064 16.832 199.232 16.952 195.584 16.952H193.856V8.16801H200.816V4.56801H193.832V2.45601Z" fill="white"/>
<path d="M187.76 0.559998H190.256V11.336H187.76V7.184H185.576V11.192H183.104V0.967998H185.576V5.072H187.76V0.559998ZM181.328 1.832C181.328 6.896 178.712 10.232 173.36 12.104L172.16 10.184C176.168 8.864 178.208 6.752 178.592 3.92H173.12V1.832H181.328ZM175.928 12.272H190.256V17.84H178.568V19.592H191.024V21.68H175.976V15.872H187.688V14.312H175.928V12.272Z" fill="white"/>
<path d="M166.183 0.583984H168.823V16.016H166.183V0.583984ZM154.807 14.48H157.423V19.4H169.399V21.512H154.807V14.48ZM157.255 1.97598C160.495 1.97598 162.967 4.20798 162.967 7.35198C162.967 10.448 160.495 12.704 157.255 12.704C154.039 12.704 151.543 10.448 151.543 7.35198C151.543 4.20798 154.039 1.97598 157.255 1.97598ZM157.255 4.25598C155.479 4.25598 154.111 5.45598 154.111 7.35198C154.111 9.19998 155.479 10.4 157.255 10.4C159.031 10.4 160.399 9.19998 160.399 7.35198C160.399 5.45598 159.031 4.25598 157.255 4.25598Z" fill="white"/>
<path d="M130.567 2.67198H142.231V4.85598H137.791V6.63198C137.791 9.91998 139.759 13.712 143.095 15.272L141.631 17.36C139.231 16.208 137.479 13.928 136.519 11.288C135.559 14.192 133.735 16.688 131.287 17.888L129.775 15.8C133.111 14.192 135.175 10.184 135.175 6.63198V4.85598H130.567V2.67198ZM144.151 0.583984H146.815V8.91198H150.055V11.096H146.815V21.944H144.151V0.583984Z" fill="white"/>
<path d="M124.206 0.559998H126.846V21.992H124.206V0.559998ZM110.55 2.528H120.774V4.664H113.166V14.6C117.054 14.576 119.55 14.456 122.358 13.928L122.598 16.112C119.55 16.712 116.814 16.808 112.35 16.808H110.55V2.528Z" fill="white"/>
<path d="M82.7462 2.576H87.7142V0.440002H90.3542V2.576H95.3222V4.688H82.7462V2.576ZM89.0342 5.504C92.1062 5.504 94.2422 7.088 94.2422 9.44C94.2422 11.768 92.1062 13.328 89.0342 13.328C85.9622 13.328 83.8502 11.768 83.8502 9.44C83.8502 7.088 85.9622 5.504 89.0342 5.504ZM89.0342 7.52C87.4502 7.52 86.3702 8.216 86.3702 9.44C86.3702 10.616 87.4502 11.336 89.0342 11.336C90.6182 11.336 91.6982 10.616 91.6982 9.44C91.6982 8.216 90.6182 7.52 89.0342 7.52ZM96.7862 0.584003H99.4262V6.224H102.402V8.384H99.4262V13.952H96.7862V0.584003ZM85.3382 14.936H99.4262V21.944H96.7862V17.048H85.3382V14.936Z" fill="white"/>
<path d="M77.4657 0.559998H79.9857V21.92H77.4657V11.072H75.1377V20.864H72.6897V0.991998H75.1377V8.912H77.4657V0.559998ZM62.4177 3.104H70.2897V5.24H65.0097V14.768C67.2897 14.744 69.2097 14.6 71.3457 14.192L71.5857 16.352C68.9937 16.856 66.7857 16.952 63.8577 16.952H62.4177V3.104Z" fill="white"/>
<path d="M55.7692 0.583984H58.4092V16.016H55.7692V0.583984ZM44.3932 14.48H47.0092V19.4H58.9852V21.512H44.3932V14.48ZM46.8412 1.97598C50.0812 1.97598 52.5532 4.20798 52.5532 7.35198C52.5532 10.448 50.0812 12.704 46.8412 12.704C43.6252 12.704 41.1292 10.448 41.1292 7.35198C41.1292 4.20798 43.6252 1.97598 46.8412 1.97598ZM46.8412 4.25598C45.0652 4.25598 43.6972 5.45598 43.6972 7.35198C43.6972 9.19998 45.0652 10.4 46.8412 10.4C48.6172 10.4 49.9852 9.19998 49.9852 7.35198C49.9852 5.45598 48.6172 4.25598 46.8412 4.25598Z" fill="white"/>
<path d="M20.1526 2.67198H31.8166V4.85598H27.3766V6.63198C27.3766 9.91998 29.3446 13.712 32.6806 15.272L31.2166 17.36C28.8166 16.208 27.0646 13.928 26.1046 11.288C25.1446 14.192 23.3206 16.688 20.8726 17.888L19.3606 15.8C22.6966 14.192 24.7606 10.184 24.7606 6.63198V4.85598H20.1526V2.67198ZM33.7366 0.583984H36.4006V8.91198H39.6406V11.096H36.4006V21.944H33.7366V0.583984Z" fill="white"/>
<path d="M13.792 0.559998H16.432V21.992H13.792V0.559998ZM0.135986 2.528H10.36V4.664H2.75199V14.6C6.63999 14.576 9.13599 14.456 11.944 13.928L12.184 16.112C9.13599 16.712 6.39999 16.808 1.93599 16.808H0.135986V2.528Z" fill="white"/>
<path d="M269.516 34.19V44.284H268.508V35.338L266.94 36.43L266.38 35.66L268.508 34.19H269.516Z" fill="white" fill-opacity="0.5"/>
<path d="M263.549 39.062C264.445 39.608 264.935 40.588 264.935 41.428C264.935 43.15 263.591 44.368 261.673 44.368C259.769 44.368 258.425 43.15 258.425 41.428H259.433C259.433 42.632 260.357 43.472 261.673 43.472C263.003 43.472 263.927 42.632 263.927 41.442C263.927 40.308 263.003 39.51 261.701 39.51H260.959V38.586H261.701C262.919 38.586 263.787 37.858 263.787 36.822C263.787 35.744 262.947 34.988 261.757 34.988C260.553 34.988 259.713 35.758 259.713 36.85H258.705C258.705 35.226 259.965 34.092 261.757 34.092C263.535 34.092 264.795 35.226 264.795 36.85C264.795 37.606 264.361 38.516 263.549 39.062Z" fill="white" fill-opacity="0.5"/>
<path d="M251.712 33.056H252.776V39.314H251.712V33.056ZM249.136 33.658C249.136 36.766 246.924 38.726 243.34 39.566L242.962 38.712C246.014 38.026 247.806 36.542 247.988 34.526H243.564V33.658H249.136ZM244.88 39.916H252.776V42.856H245.944V44.354H253.196V45.18H244.922V42.058H251.726V40.756H244.88V39.916Z" fill="white" fill-opacity="0.5"/>
<path d="M239.882 33.056H240.89V45.306H239.882V38.866H238.09V44.662H237.11V33.336H238.09V37.984H239.882V33.056ZM230.978 34.554H235.514V35.422H232.014V41.372C233.694 41.372 234.87 41.302 236.2 41.022L236.326 41.89C234.856 42.198 233.624 42.254 231.762 42.254H230.978V34.554Z" fill="white" fill-opacity="0.5"/>
<path d="M227.281 33.056H228.331V40.308H227.281V38.348H224.411V39.412H218.853V33.98H224.411V35.058H227.281V33.056ZM223.389 34.834H219.875V38.572H223.389V34.834ZM224.313 40.672C226.833 40.672 228.387 41.526 228.387 42.982C228.387 44.452 226.833 45.278 224.313 45.278C221.793 45.278 220.239 44.452 220.239 42.982C220.239 41.526 221.793 40.672 224.313 40.672ZM224.313 41.512C222.437 41.512 221.289 42.058 221.289 42.982C221.289 43.892 222.437 44.452 224.313 44.452C226.189 44.452 227.337 43.892 227.337 42.982C227.337 42.058 226.189 41.512 224.313 41.512ZM224.411 37.494H227.281V35.926H224.411V37.494Z" fill="white" fill-opacity="0.5"/>
<path d="M209.067 33.686H210.089V35.03C210.089 36.71 211.363 38.25 213.099 38.866L212.553 39.678C211.209 39.188 210.131 38.152 209.613 36.85C209.095 38.32 208.003 39.454 206.575 40.028L206.001 39.188C207.835 38.516 209.067 36.85 209.067 34.96V33.686ZM214.485 33.056H215.535V36.262H217.369V37.144H215.535V40.518H214.485V33.056ZM211.643 40.854C214.149 40.854 215.661 41.666 215.661 43.066C215.661 44.466 214.149 45.278 211.643 45.278C209.151 45.278 207.639 44.466 207.639 43.066C207.639 41.666 209.151 40.854 211.643 40.854ZM211.643 41.68C209.809 41.68 208.661 42.198 208.661 43.066C208.661 43.934 209.809 44.452 211.643 44.452C213.491 44.452 214.625 43.934 214.625 43.066C214.625 42.198 213.491 41.68 211.643 41.68Z" fill="white" fill-opacity="0.5"/>
<path d="M191.994 33.868H200.184V34.932C200.184 36.094 200.184 37.354 199.834 39.132H201.654V40.014H196.628V45.334H195.564V40.014H190.58V39.132H198.77C199.148 37.382 199.148 36.08 199.148 34.932V34.722H191.994V33.868Z" fill="white" fill-opacity="0.5"/>
<path d="M186.8 33.056H187.85V35.884H189.684V36.766H187.85V39.986H186.8V33.056ZM180.164 40.658H187.85V45.124H180.164V40.658ZM186.828 41.498H181.186V44.27H186.828V41.498ZM178.96 33.672H180.01V38.138C181.746 38.138 183.552 38.012 185.526 37.606L185.652 38.46C183.58 38.894 181.746 39.02 179.926 39.02H178.96V33.672Z" fill="white" fill-opacity="0.5"/>
<path d="M166.121 39.132H171.119V37.69H167.521V33.63H175.795V34.484H168.557V36.822H175.879V37.69H172.155V39.132H177.181V39.986H166.121V39.132ZM171.637 40.896C174.241 40.896 175.823 41.694 175.823 43.094C175.823 44.508 174.241 45.292 171.637 45.292C169.019 45.292 167.451 44.508 167.451 43.094C167.451 41.694 169.019 40.896 171.637 40.896ZM171.637 41.722C169.691 41.722 168.501 42.226 168.501 43.094C168.501 43.976 169.691 44.466 171.637 44.466C173.583 44.466 174.759 43.976 174.759 43.094C174.759 42.226 173.583 41.722 171.637 41.722Z" fill="white" fill-opacity="0.5"/>
<path d="M153.879 34.134H154.929V36.36C154.929 38.6 156.455 40.854 158.219 41.68L157.589 42.52C156.203 41.834 154.999 40.364 154.425 38.6C153.865 40.462 152.647 42.03 151.219 42.744L150.575 41.876C152.353 41.022 153.879 38.684 153.879 36.36V34.134ZM159.577 33.042H160.627V45.32H159.577V33.042Z" fill="white" fill-opacity="0.5"/>
<path d="M146.85 33.042H147.9V36.794H149.734V37.662H147.9V42.086H146.85V33.042ZM140.312 41.162H141.348V44.158H148.474V45.026H140.312V41.162ZM141.838 33.924C143.658 33.924 145.016 35.156 145.016 36.934C145.016 38.698 143.658 39.944 141.838 39.944C140.018 39.944 138.66 38.698 138.66 36.934C138.66 35.156 140.018 33.924 141.838 33.924ZM141.838 34.834C140.606 34.834 139.682 35.716 139.682 36.934C139.682 38.152 140.606 39.02 141.838 39.02C143.07 39.02 144.008 38.152 144.008 36.934C144.008 35.716 143.07 34.834 141.838 34.834Z" fill="white" fill-opacity="0.5"/>
<path d="M126.508 34.722H129.266V33.14H130.302V34.722H133.046V35.562H130.302V35.968C130.302 37.62 131.59 39.062 133.382 39.636L132.864 40.462C131.464 40 130.344 39.02 129.798 37.746C129.28 39.118 128.174 40.168 126.732 40.686L126.2 39.86C128.006 39.244 129.266 37.718 129.266 35.968V35.562H126.508V34.722ZM132.612 36.836H135.174V33.07H136.224V42.212H135.174V37.718H132.612V36.836ZM128.426 41.386H129.476V44.158H136.574V45.026H128.426V41.386Z" fill="white" fill-opacity="0.5"/>
<path d="M112.137 34.036H120.383V34.904H113.187V38.796H120.523V39.664H116.757V42.856H121.811V43.738H110.709V42.856H115.721V39.664H112.137V34.036Z" fill="white" fill-opacity="0.5"/>
<path d="M106.929 33.056H107.979V35.884H109.813V36.766H107.979V39.986H106.929V33.056ZM100.293 40.658H107.979V45.124H100.293V40.658ZM106.957 41.498H101.315V44.27H106.957V41.498ZM99.0887 33.672H100.139V38.138C101.875 38.138 103.681 38.012 105.655 37.606L105.781 38.46C103.709 38.894 101.875 39.02 100.055 39.02H99.0887V33.672Z" fill="white" fill-opacity="0.5"/>
<path d="M86.5583 34.554H89.3303V33H90.3663V34.554H93.0963V35.408H90.3663V35.66C90.3663 37.228 91.6683 38.6 93.4603 39.132L92.9703 39.944C91.5563 39.51 90.4223 38.586 89.8623 37.368C89.3443 38.712 88.2243 39.776 86.7823 40.266L86.2643 39.44C88.0563 38.852 89.3303 37.354 89.3303 35.66V35.408H86.5583V34.554ZM92.7323 36.57H95.2383V33.056H96.2883V40.476H95.2383V37.438H92.7323V36.57ZM92.2703 40.812C94.7903 40.812 96.3303 41.624 96.3303 43.038C96.3303 44.452 94.7903 45.278 92.2703 45.278C89.7363 45.278 88.1963 44.452 88.1963 43.038C88.1963 41.624 89.7363 40.812 92.2703 40.812ZM92.2703 41.638C90.3943 41.638 89.2463 42.17 89.2463 43.038C89.2463 43.92 90.3943 44.452 92.2703 44.452C94.1323 44.452 95.2943 43.92 95.2943 43.038C95.2943 42.17 94.1323 41.638 92.2703 41.638Z" fill="white" fill-opacity="0.5"/>
<path d="M74 39.118H85.06V39.972H80.048V41.246C82.358 41.33 83.716 42.03 83.716 43.262C83.716 44.564 82.162 45.278 79.53 45.278C76.884 45.278 75.344 44.564 75.344 43.262C75.344 42.03 76.688 41.33 79.012 41.246V39.972H74V39.118ZM79.012 33.014H80.062V34.26H83.94V35.1H80.104C80.202 36.5 82.162 37.41 84.402 37.62L84.08 38.446C82.092 38.236 80.272 37.508 79.53 36.276C78.788 37.508 76.968 38.236 74.994 38.446L74.658 37.62C76.898 37.41 78.872 36.5 78.97 35.1H75.148V34.26H79.012V33.014ZM79.53 42.03C77.556 42.03 76.394 42.464 76.394 43.262C76.394 44.032 77.556 44.48 79.53 44.48C81.49 44.48 82.652 44.032 82.652 43.262C82.652 42.464 81.49 42.03 79.53 42.03Z" fill="white" fill-opacity="0.5"/>
<path d="M89.6725 100.936C89.7441 102.284 90.259 103.216 91.2169 103.731C91.7094 104.003 92.2645 104.139 92.8822 104.139C94.0372 104.139 95.022 103.655 95.8368 102.687C96.6515 101.71 97.229 99.7333 97.5692 96.7573C97.032 97.6166 96.365 98.2227 95.5682 98.5755C94.7803 98.9192 93.9298 99.0911 93.0165 99.0911C91.1632 99.0911 89.6949 98.5076 88.6116 97.3407C87.5372 96.1738 87 94.6722 87 92.836C87 91.0721 87.5327 89.5207 88.5981 88.182C89.6636 86.8432 91.2348 86.1738 93.312 86.1738C96.1143 86.1738 98.0482 87.4493 99.1136 90.0002C99.7045 91.4022 100 93.1571 100 95.2647C100 97.6438 99.6463 99.7514 98.939 101.588C97.7662 104.645 95.7786 106.174 92.9762 106.174C91.0961 106.174 89.668 105.676 88.6921 104.681C87.7163 103.686 87.2283 102.438 87.2283 100.936H89.6725ZM93.3388 96.9472C94.2968 96.9472 95.1698 96.6306 95.9576 95.9974C96.7545 95.3552 97.1529 94.2381 97.1529 92.646C97.1529 91.2168 96.7948 90.1539 96.0785 89.4574C95.3712 88.7518 94.4669 88.3991 93.3657 88.3991C92.1839 88.3991 91.2438 88.8016 90.5455 89.6067C89.8561 90.4027 89.5114 91.4701 89.5114 92.8088C89.5114 94.0752 89.8158 95.0838 90.4246 95.8346C91.0334 96.5764 92.0048 96.9472 93.3388 96.9472Z" fill="white"/>
<path d="M158.442 86.1738C160.723 86.1738 162.31 86.7388 163.204 87.8687C164.107 88.9896 164.558 90.1467 164.558 91.3399H162.02C161.868 90.5716 161.626 89.9704 161.293 89.5365C160.675 88.723 159.739 88.3162 158.485 88.3162C157.05 88.3162 155.909 88.949 155.063 90.2145C154.217 91.471 153.747 93.2744 153.652 95.6247C154.241 94.8021 154.982 94.1874 155.876 93.7806C156.693 93.419 157.606 93.2382 158.613 93.2382C160.324 93.2382 161.816 93.758 163.09 94.7976C164.363 95.8371 165 97.3874 165 99.4484C165 101.211 164.396 102.775 163.189 104.14C161.982 105.496 160.262 106.174 158.029 106.174C156.118 106.174 154.469 105.487 153.081 104.113C151.694 102.73 151 100.407 151 97.1433C151 94.7298 151.309 92.6823 151.927 91.0009C153.115 87.7829 155.286 86.1738 158.442 86.1738ZM158.257 104.004C159.606 104.004 160.614 103.575 161.279 102.716C161.954 101.848 162.291 100.827 162.291 99.6518C162.291 98.6574 161.992 97.7128 161.393 96.8179C160.794 95.9139 159.706 95.462 158.128 95.462C157.026 95.462 156.056 95.81 155.22 96.506C154.393 97.2021 153.98 98.2507 153.98 99.6518C153.98 100.881 154.355 101.916 155.106 102.757C155.866 103.589 156.916 104.004 158.257 104.004Z" fill="white"/>
<path d="M112.858 91.5054L110.439 86.7644V92.9858H110.09V86H110.439L113.071 91.1571L115.712 86H116.06V92.9858H115.712V86.7644L113.283 91.5054H112.858Z" fill="white"/>
<path d="M106.038 86L108.738 92.9858H108.36L107.528 90.8185H104.219L103.377 92.9858H103L105.709 86H106.038ZM104.335 90.5088H107.402L105.874 86.5322L104.335 90.5088Z" fill="white"/>
<path d="M177.082 91.7132L174.572 86.7932V93.2495H174.21V86H174.572L177.303 91.3518L180.044 86H180.405V93.2495H180.044V86.7932L177.524 91.7132H177.082Z" fill="white"/>
<path d="M170.594 89.6147C171.628 89.6147 172.351 88.9319 172.351 87.958C172.351 86.994 171.628 86.3213 170.594 86.3213H168.767V89.6147H170.594ZM170.665 86C171.869 86 172.713 86.8133 172.713 87.958C172.713 89.1227 171.869 89.936 170.665 89.936H168.767V93.2495H168.405V86H170.665Z" fill="white"/>
<path d="M132.066 106.28C131.4 106.267 130.8 106.147 130.266 105.92C129.746 105.693 129.313 105.353 128.966 104.9C128.633 104.447 128.413 103.88 128.306 103.2C128.2 102.52 128.24 101.727 128.426 100.82C128.586 100.06 128.833 99.3533 129.166 98.7C129.513 98.0333 129.94 97.4533 130.446 96.96C130.953 96.4667 131.533 96.08 132.186 95.8C132.853 95.5067 133.586 95.36 134.386 95.36C135.2 95.36 135.873 95.5067 136.406 95.8C136.953 96.08 137.373 96.4667 137.666 96.96C137.96 97.44 138.133 98.0133 138.186 98.68C138.24 99.3467 138.186 100.06 138.026 100.82C137.853 101.647 137.58 102.393 137.206 103.06C136.833 103.727 136.386 104.3 135.866 104.78C135.346 105.26 134.76 105.633 134.106 105.9C133.466 106.153 132.786 106.28 132.066 106.28ZM136.746 100.82C136.866 100.207 136.92 99.6333 136.906 99.1C136.893 98.5667 136.786 98.1067 136.586 97.72C136.4 97.32 136.106 97.0067 135.706 96.78C135.32 96.5533 134.806 96.44 134.166 96.44C133.54 96.44 132.973 96.5667 132.466 96.82C131.973 97.06 131.54 97.3867 131.166 97.8C130.793 98.2 130.486 98.6667 130.246 99.2C130.006 99.72 129.826 100.26 129.706 100.82C129.573 101.46 129.526 102.053 129.566 102.6C129.606 103.133 129.733 103.593 129.946 103.98C130.16 104.367 130.46 104.667 130.846 104.88C131.246 105.093 131.733 105.2 132.306 105.2C132.933 105.2 133.493 105.08 133.986 104.84C134.493 104.587 134.926 104.253 135.286 103.84C135.66 103.427 135.966 102.96 136.206 102.44C136.446 101.92 136.626 101.38 136.746 100.82Z" fill="white"/>
<path d="M126.08 106.04C125.933 106.067 125.727 106.113 125.46 106.18C125.207 106.247 124.933 106.28 124.64 106.28C124.04 106.28 123.613 106.133 123.36 105.84C123.12 105.533 123.08 104.993 123.24 104.22L124.84 96.64H123.38L123.6 95.64H125.06L125.68 92.76H126.88L126.26 95.64H128.2L127.98 96.64H126.04L124.54 103.74C124.487 103.993 124.447 104.213 124.42 104.4C124.393 104.587 124.4 104.74 124.44 104.86C124.493 104.98 124.58 105.067 124.7 105.12C124.833 105.173 125.027 105.2 125.28 105.2C125.44 105.2 125.6 105.187 125.76 105.16C125.933 105.133 126.107 105.1 126.28 105.06L126.08 106.04Z" fill="white"/>
</svg>
