<svg width="197" height="233" viewBox="0 0 197 233" fill="none" xmlns="http://www.w3.org/2000/svg">
<path d="M115.226 107.107V0.949722H138.569V87.4811H190.309V107.107H115.226Z" fill="#F0F6DA"/>
<path d="M2.82489 107.107V0.949722H50.6996C57.0433 0.949722 62.5444 1.89136 67.203 3.77463C71.9608 5.55878 75.8264 8.08633 78.8 11.3573C81.7736 14.5291 83.9542 18.147 85.3419 22.2109C86.7296 26.2748 87.4234 30.5369 87.4234 34.9973C87.4234 39.4577 86.7296 43.7198 85.3419 47.7837C83.9542 51.8476 81.7736 55.515 78.8 58.786C75.8264 61.9578 71.9608 64.4853 67.203 66.3686C62.5444 68.1528 57.0433 69.0448 50.6996 69.0448H26.1675V107.107H2.82489ZM26.1675 19.0886V50.906H44.3064C47.28 50.906 49.9562 50.7077 52.3351 50.3113C54.714 49.8157 56.845 49.0227 58.7283 47.9324C60.7107 46.743 62.1975 45.1075 63.1887 43.026C64.279 40.9445 64.8242 38.2682 64.8242 34.9973C64.8242 31.7263 64.279 29.0501 63.1887 26.9686C62.1975 24.8871 60.7107 23.2516 58.7283 22.0622C56.845 20.8727 54.714 20.0798 52.3351 19.6833C49.9562 19.2868 47.28 19.0886 44.3064 19.0886H26.1675Z" fill="#F0F6DA"/>
<path d="M141.525 232.894V195.013L106.951 135.604H130.219L152.173 174.029L173.995 135.604H197L162.164 195.558V232.894H141.525Z" fill="#F0F6DA"/>
<path d="M0 232.894L35.6251 135.604H56.7898L91.889 232.894H70.4614L63.3627 211.228H28.2634L20.9018 232.894H0ZM45.8788 159.586L33.6532 195.286H57.9729L46.1417 159.586H45.8788Z" fill="#F0F6DA"/>
</svg>
