<svg width="163" height="47" viewBox="0 0 163 47" fill="none" xmlns="http://www.w3.org/2000/svg">
<path d="M57.1324 16.6485L57.1444 16.6724H57.1682H61.8345H61.9061L61.8703 16.6097L55.1961 4.8395L55.205 2.31838V2.27661H55.1633H51.5143H51.4726V2.31838L51.4756 4.88426L44.8998 16.6097L44.864 16.6724H44.9356H49.6019H49.6287L49.6407 16.6485L53.385 9.30293L57.1324 16.6485Z" fill="white"/>
<path d="M87.7797 2.27661V5.05134H84.1308V8.4377H87.7797V10.1562H84.1726H84.1308V10.198V13.5008V13.5426H84.1726H87.7797V16.7111H91.5122V2.27661H87.7797Z" fill="white"/>
<path d="M65.8952 7.24139V2.36623V2.32446H65.8535H62.2046H62.1628V2.36623V16.6158V16.6576H62.2046H65.8535H65.8952V16.6158V10.6307H69.4994H69.5412V10.586V7.28316V7.24139H69.4994H65.8952Z" fill="white"/>
<path d="M138.769 7.19623V2.32107V2.2793H138.724H135.078H135.037V2.32107V16.5975V16.6392H135.078H138.724H138.769V16.5975V10.5826H142.373H142.415V10.5408V7.238V7.19623H142.373H138.769Z" fill="white"/>
<path d="M112.281 2.25567H112.239V2.29744V7.61119H109.646V2.29446V2.25269H109.605H105.971H105.929V2.29446V32.6434V32.6852H105.971H109.605H109.646V32.6434V11.0333H112.239V32.6464V32.6911H112.281H115.915H115.957V32.6464V2.29744V2.25567H115.915H112.281Z" fill="white"/>
<path d="M95.2686 2.69116H95.2268V2.73293V16.4783V16.52H95.2686H104.882H104.923V16.4783V13.2202V13.1784H104.882H99.0428L99.0398 6.07752H104.914H104.956V6.03575V2.73293V2.69116H104.914H95.2686Z" fill="white"/>
<path d="M138.712 18.9666H135.078H121.539H121.497V19.0113V22.2932V22.335H121.539H135.037V32.6343V32.6761H135.078H138.736H138.778V32.6343V19.0113V18.9666H138.736H138.712Z" fill="white"/>
<path d="M83.1254 16.5471V2.67944H71.033V16.5471H83.1254ZM79.4377 6.06879V13.1607H74.8012V6.06879H79.4377Z" fill="white"/>
<path d="M65.9638 25.5099C65.9548 23.3826 65.206 21.5388 63.741 20.0321C62.2671 18.5134 60.4322 17.7437 58.2841 17.7437C56.1359 17.7437 54.3428 18.5134 52.8689 20.0321C51.395 21.5477 50.6461 23.4065 50.6461 25.5517C50.6461 27.6969 51.392 29.5646 52.8659 31.0952C54.3398 32.6257 56.1627 33.4044 58.2811 33.4044C60.3994 33.4044 62.2731 32.6287 63.7589 31.0952C65.2477 29.5646 66.0026 27.6969 66.0026 25.5517V25.5099H65.9578H65.9638ZM58.3258 29.5019C57.2547 29.5019 56.3358 29.1081 55.5869 28.3353C54.841 27.5626 54.4621 26.6258 54.4621 25.5547C54.489 24.4567 54.8828 23.5139 55.6287 22.7531C56.3746 21.9923 57.2965 21.6074 58.3676 21.6074C59.4387 21.6074 60.3487 22.0072 61.0827 22.7948C61.8107 23.5795 62.1806 24.5164 62.1866 25.5785C62.1836 26.6675 61.8107 27.6044 61.0827 28.3592C60.3517 29.12 59.4238 29.5049 58.3258 29.5049V29.5019Z" fill="white"/>
<path d="M91.5152 25.4979C91.5062 23.3706 90.7604 21.5267 89.2954 20.02C87.8215 18.5014 85.9836 17.7346 83.8385 17.7346C81.6933 17.7346 79.8972 18.5044 78.4233 20.02C76.9494 21.5357 76.2005 23.3945 76.2005 25.5397C76.2005 27.6848 76.9464 29.5526 78.4233 31.0831C79.8972 32.6137 81.7201 33.3924 83.8385 33.3924C85.9568 33.3924 87.8305 32.6167 89.3163 31.0831C90.8051 29.5526 91.5599 27.6878 91.5599 25.5397V25.4979H91.5152ZM83.8802 29.4869C82.8091 29.4869 81.8902 29.0961 81.1443 28.3203C80.3984 27.5446 80.0195 26.6108 80.0195 25.5397C80.0463 24.4417 80.4402 23.4989 81.189 22.7381C81.9349 21.9773 82.8569 21.5924 83.925 21.5924C84.9931 21.5924 85.9091 21.9922 86.64 22.7798C87.368 23.5645 87.738 24.4984 87.744 25.5635C87.738 26.6525 87.368 27.5894 86.64 28.3442C85.9091 29.105 84.9812 29.4899 83.8832 29.4899L83.8802 29.4869Z" fill="white"/>
<path d="M126.533 16.5412C129.932 16.5412 132.698 13.7784 132.698 10.3801C132.698 9.29711 132.411 8.23496 131.871 7.3011H133.978V3.88192H128.33V1.47119H124.612V3.88192H119.063V7.3011H121.202C120.662 8.23496 120.375 9.29711 120.375 10.3801C120.375 13.7784 123.141 16.5412 126.536 16.5412H126.533ZM126.533 13.0146C125.08 13.0146 123.899 11.8331 123.899 10.3772C123.899 8.92118 125.083 7.74267 126.533 7.74267C127.984 7.74267 129.171 8.92416 129.171 10.3772C129.171 11.8302 127.989 13.0146 126.533 13.0146Z" fill="white"/>
<path d="M157.318 16.5802V16.622H157.36H161.018H161.059V16.5802V3.07058V3.02881H161.018H160.994H143.283H143.241V3.07058V6.3555V6.39727H143.283H157.318V16.5802Z" fill="white"/>
<path d="M162.575 28.9857H155.755V16.7083V16.6665H155.713H152.058H152.016V16.7083V28.9857H150.277V16.7083V16.6665H150.235H146.58H146.538V16.7083V28.9857H143.614H143.573V29.0275V32.3094V32.3541H143.614H162.575H162.617V32.3094V29.0275V28.9857H162.575Z" fill="white"/>
<path d="M51.1862 38.7269L50.5477 39.9711C50.2195 39.6966 49.8644 39.5623 49.4825 39.5623C49.3125 39.5623 49.1633 39.6071 49.032 39.6936C48.8739 39.7921 48.7933 39.9204 48.7933 40.0785C48.7933 40.3291 49.032 40.526 49.5064 40.6663L49.9152 40.7886C50.3955 40.9348 50.7565 41.1227 50.9952 41.3525C51.2906 41.6359 51.4368 42.0089 51.4368 42.4743C51.4368 43.2202 51.2249 43.7751 50.7983 44.1362C50.3388 44.524 49.757 44.718 49.0469 44.718C48.2712 44.718 47.5492 44.4823 46.8779 44.0138L47.5671 42.7219C48.0534 43.1486 48.5278 43.3604 48.9902 43.3604C49.1991 43.3604 49.3781 43.3067 49.5333 43.1993C49.6884 43.0919 49.766 42.9397 49.766 42.7369C49.766 42.534 49.6466 42.3788 49.405 42.2535C49.2916 42.1879 49.0857 42.1133 48.7903 42.0327C48.1966 41.8627 47.7908 41.6866 47.579 41.5017C47.2717 41.2391 47.1195 40.8363 47.1195 40.2903C47.1195 39.6668 47.3194 39.1685 47.7163 38.7896C48.1161 38.4107 48.6233 38.2197 49.2468 38.2197C49.939 38.2197 50.5835 38.3898 51.1772 38.7269H51.1862Z" fill="white"/>
<path d="M54.8769 40.2903H54.8918L55.5482 42.2535H54.2145L54.8769 40.2903ZM58.0932 44.5538L55.769 38.3838H54.0176L51.6457 44.5538H53.3493L53.776 43.4827H55.9868L56.3866 44.5538H58.0962H58.0932Z" fill="white"/>
<path d="M60.1936 44.5538H58.5884V38.3838H60.1936L63.1324 42.158H63.1473V38.3838H64.7525V44.5538H63.1473L60.2085 40.7736H60.1906V44.5538H60.1936Z" fill="white"/>
<path d="M68.7713 42.3699V41.1108H71.9548C71.9429 41.6449 71.907 42.0686 71.8414 42.3789C71.7489 42.8085 71.5759 43.1993 71.3253 43.5484C70.7464 44.357 69.8991 44.7597 68.7803 44.7597C67.8076 44.7597 67.017 44.4584 66.4053 43.8557C65.7937 43.253 65.4894 42.4684 65.4894 41.5017C65.4894 40.535 65.7967 39.6996 66.4143 39.091C67.0319 38.4823 67.8375 38.178 68.837 38.178C70.1617 38.178 71.0896 38.7538 71.6206 39.9055L70.099 40.544C69.8514 39.8906 69.4098 39.5624 68.7653 39.5624C68.2671 39.5624 67.8703 39.7712 67.5719 40.1829C67.2974 40.5529 67.1632 40.9975 67.1632 41.5076C67.1632 42.0178 67.3034 42.4624 67.5809 42.8353C67.8882 43.2381 68.291 43.441 68.7922 43.441C69.1532 43.441 69.4486 43.3485 69.6843 43.1635C69.92 42.9786 70.0513 42.713 70.0841 42.3699H68.7743H68.7713Z" fill="white"/>
<path d="M74.0851 44.5538H72.4889L73.5361 38.3838H75.1144L76.3675 41.6806L77.6922 38.3838H79.2885L80.2223 44.5538H78.6172L78.1666 41.0004H78.1487L76.6689 44.5538H76.0304L74.6132 41.0004H74.5983L74.0821 44.5538H74.0851Z" fill="white"/>
<path d="M82.3287 44.5538V41.5911L80.0522 38.3838H81.9767L83.1313 40.0606L84.2859 38.3838H86.2104L83.9369 41.5911V44.5538H82.3317H82.3287Z" fill="white"/>
<path d="M90.3218 41.6329V38.3838H91.9239V41.8537C91.9239 42.3549 91.8941 42.7428 91.8344 43.0143C91.736 43.423 91.551 43.7632 91.2795 44.0287C90.8111 44.4882 90.1278 44.7149 89.2327 44.7149C88.3377 44.7149 87.6544 44.4852 87.186 44.0287C86.9145 43.7602 86.7265 43.423 86.6311 43.0143C86.5714 42.7428 86.5416 42.3549 86.5416 41.8537V38.3838H88.1437V41.6329C88.1437 42.158 88.1975 42.5369 88.2989 42.7696C88.463 43.1307 88.7733 43.3097 89.2327 43.3097C89.6922 43.3097 90.0025 43.1307 90.1666 42.7696C90.271 42.5339 90.3218 42.155 90.3218 41.6329Z" fill="white"/>
<path d="M94.5465 44.5538H92.9413V38.3838H94.5465L97.4853 42.158H97.5002V38.3838H99.1054V44.5538H97.5002L94.5644 40.7736H94.5495V44.5538H94.5465Z" fill="white"/>
<path d="M103.121 42.3699V41.1108H106.305C106.293 41.6449 106.257 42.0686 106.191 42.3789C106.099 42.8085 105.926 43.1993 105.675 43.5484C105.096 44.357 104.249 44.7597 103.13 44.7597C102.161 44.7597 101.367 44.4584 100.758 43.8557C100.147 43.253 99.8423 42.4684 99.8423 41.5017C99.8423 40.535 100.15 39.6996 100.767 39.091C101.385 38.4823 102.19 38.178 103.19 38.178C104.518 38.178 105.443 38.7538 105.974 39.9055L104.452 40.544C104.207 39.8906 103.763 39.5624 103.118 39.5624C102.623 39.5624 102.223 39.7712 101.922 40.1829C101.65 40.5529 101.513 40.9975 101.513 41.5076C101.513 42.0178 101.653 42.4624 101.931 42.8353C102.235 43.2381 102.641 43.441 103.142 43.441C103.503 43.441 103.799 43.3485 104.034 43.1635C104.27 42.9786 104.404 42.713 104.434 42.3699H103.124H103.121Z" fill="white"/>
<path d="M114.008 41.6329V38.3838H115.613V41.8537C115.613 42.3549 115.584 42.7428 115.524 43.0173C115.426 43.426 115.241 43.7632 114.966 44.0317C114.498 44.4912 113.814 44.7179 112.919 44.7179C112.024 44.7179 111.341 44.4882 110.876 44.0317C110.601 43.7632 110.416 43.426 110.318 43.0173C110.258 42.7428 110.228 42.3579 110.228 41.8537V38.3838H111.83V41.6329C111.83 42.155 111.881 42.5369 111.985 42.7696C112.15 43.1307 112.46 43.3097 112.919 43.3097C113.379 43.3097 113.689 43.1307 113.853 42.7696C113.958 42.5339 114.008 42.155 114.008 41.6329Z" fill="white"/>
<path d="M118.23 44.5538H116.625V38.3838H118.23L121.169 42.158H121.187V38.3838H122.789V44.5538H121.187L118.248 40.7736H118.233V44.5538H118.23Z" fill="white"/>
<path d="M124.17 38.3838H125.776V44.5538H124.17V38.3838Z" fill="white"/>
<path d="M126.51 38.3838H128.252L129.741 42.1312L131.239 38.3838H132.981L130.346 44.5538H129.102L126.51 38.3838Z" fill="white"/>
<path d="M137.23 38.3838V39.7413H135.323V40.7736H137.131V42.1312H135.323V43.1963H137.23V44.5538H133.721V38.3838H137.23Z" fill="white"/>
<path d="M141.427 40.3796C141.427 40.8928 141.057 41.1494 140.315 41.1494H140.159V39.6098H140.315C141.057 39.6098 141.427 39.8664 141.427 40.3796ZM142.752 41.4119C142.982 41.1016 143.095 40.7257 143.095 40.2812C143.095 39.6486 142.889 39.1683 142.481 38.8401C142.105 38.5358 141.594 38.3806 140.95 38.3806H138.551V44.5507H140.153V42.1757H140.171L141.684 44.5507H143.68L141.741 42.0206C142.167 41.943 142.501 41.7401 142.746 41.406L142.752 41.4119Z" fill="white"/>
<path d="M148.146 38.7269L147.508 39.9711C147.18 39.6996 146.825 39.5623 146.446 39.5623C146.276 39.5623 146.127 39.6071 145.995 39.6936C145.837 39.7921 145.757 39.9204 145.757 40.0785C145.757 40.3291 145.995 40.526 146.47 40.6663L146.878 40.7886C147.359 40.9348 147.72 41.1227 147.959 41.3525C148.254 41.6359 148.4 42.0089 148.4 42.4743C148.4 43.2202 148.188 43.7751 147.762 44.1362C147.302 44.524 146.72 44.718 146.01 44.718C145.235 44.718 144.512 44.4823 143.841 44.0138L144.527 42.7219C145.011 43.1486 145.488 43.3604 145.951 43.3604C146.156 43.3604 146.338 43.3067 146.494 43.1993C146.649 43.0919 146.726 42.9397 146.726 42.7369C146.726 42.534 146.607 42.3788 146.365 42.2535C146.252 42.1879 146.046 42.1163 145.754 42.0327C145.16 41.8627 144.754 41.6866 144.542 41.5017C144.235 41.2391 144.083 40.8363 144.083 40.2903C144.083 39.6697 144.283 39.1685 144.68 38.7896C145.076 38.4107 145.587 38.2197 146.21 38.2197C146.902 38.2197 147.547 38.3898 148.144 38.7269H148.146Z" fill="white"/>
<path d="M149.495 38.3838H151.1V44.5538H149.495V38.3838Z" fill="white"/>
<path d="M156.265 39.7413H154.937V44.5538H153.335V39.7413H152.01V38.3838H156.265V39.7413Z" fill="white"/>
<path d="M158.777 44.5538V41.5911L156.503 38.3838H158.425L159.579 40.0606L160.734 38.3838H162.656L160.382 41.5911V44.5538H158.777Z" fill="white"/>
<path d="M0 0V46.5647H34.6423V0H0ZM17.5464 15.4132H13.5275L9.6996 9.07902L5.87168 15.4132H1.8528L8.08549 5.23021V2.62853H11.3107V5.23021L17.5464 15.4132ZM14.3987 20.9387V23.7851H11.257V28.9437H8.11533V16.7021H11.257V20.9387H14.3987ZM9.69065 30.3161C12.7339 30.3161 14.4196 32.2704 14.4196 32.2704C16.5081 34.3589 16.3709 36.9784 16.3709 36.9784C16.3709 39.8994 14.4137 41.7074 14.4137 41.7074C12.349 43.772 9.69065 43.6616 9.69065 43.6616C6.69514 43.6616 4.98257 41.7074 4.98257 41.7074C2.8344 39.5592 3.02833 36.9784 3.02833 36.9784C3.02833 33.9561 4.98257 32.2733 4.98257 32.2733C7.15163 30.1043 9.69364 30.3161 9.69364 30.3161H9.69065ZM20.2823 26.336V23.4897H23.4241V21.9382H20.2823V19.0919H23.4241V16.7021H26.5658V28.9437H23.4241V26.336H20.2823ZM19.0442 15.252V3.22226H30.9814V15.252H19.0442ZM20.2644 32.2733C22.4335 30.1043 24.9755 30.3161 24.9755 30.3161C28.0217 30.3161 29.7045 32.2704 29.7045 32.2704C31.793 34.3589 31.6557 36.9784 31.6557 36.9784C31.6557 39.8994 29.6985 41.7074 29.6985 41.7074C27.6339 43.772 24.9755 43.6616 24.9755 43.6616C21.983 43.6616 20.2674 41.7074 20.2674 41.7074C18.1193 39.5592 18.3132 36.9784 18.3132 36.9784C18.3132 33.9561 20.2674 32.2733 20.2674 32.2733H20.2644Z" fill="white"/>
<path d="M24.9755 40.4723C24.9755 40.4723 26.3719 40.532 27.4489 39.4549C27.4489 39.4549 28.4693 38.5181 28.4693 36.9786C28.4693 36.9786 28.4842 35.5554 27.4519 34.5231C27.4519 34.5231 26.5598 33.4937 24.9755 33.4937C24.9755 33.4937 23.6508 33.3416 22.5111 34.5171C22.5111 34.5171 21.4907 35.4211 21.4907 36.9786C21.4907 36.9786 21.3923 38.3391 22.5141 39.4609C22.5141 39.4609 23.4181 40.4723 24.9755 40.4723Z" fill="white"/>
<path d="M27.8785 6.06909H22.2186V12.4092H27.8785V6.06909Z" fill="white"/>
<path d="M9.69069 40.4723C9.69069 40.4723 11.087 40.532 12.1641 39.4549C12.1641 39.4549 13.1845 38.5181 13.1845 36.9786C13.1845 36.9786 13.1994 35.5554 12.1671 34.5231C12.1671 34.5231 11.275 33.4937 9.69069 33.4937C9.69069 33.4937 8.36598 33.3416 7.22625 34.5171C7.22625 34.5171 6.20587 35.4211 6.20587 36.9786C6.20587 36.9786 6.10741 38.3391 7.22924 39.4609C7.22924 39.4609 8.13326 40.4723 9.69069 40.4723Z" fill="white"/>
</svg>
